ISO-10303-21;
HEADER;
FILE_DESCRIPTION((''),'2;1');
FILE_NAME('front of the memory', '2026-07-30T23:49:41', (''), (''), 'ImageToStl.com STEP Converter','', '');
FILE_SCHEMA(('AUTOMOTIVE_DESIGN_CC2'));
ENDSEC;
DATA;
#1=PRODUCT_DEFINITION_CONTEXT('',#4,'design');
#2=APPLICATION_PROTOCOL_DEFINITION('INTERNATIONAL STANDARD','automotive_design',1994,#4);
#3=(GEOMETRIC_REPRESENTATION_CONTEXT(3)GLOBAL_UNCERTAINTY_ASSIGNED_CONTEXT((#5))GLOBAL_UNIT_ASSIGNED_CONTEXT((#6,#7,#8))REPRESENTATION_CONTEXT('NONE','WORKSPACE'));
#4=APPLICATION_CONTEXT(' ');
#5=UNCERTAINTY_MEASURE_WITH_UNIT(LENGTH_MEASURE(1.0E-006),#6,'','');
#6=(CONVERSION_BASED_UNIT('METRE',#10)LENGTH_UNIT()NAMED_UNIT(#11));
#7=(NAMED_UNIT(#12)PLANE_ANGLE_UNIT()SI_UNIT($,.RADIAN.));
#8=(NAMED_UNIT(#12)SOLID_ANGLE_UNIT()SI_UNIT($,.STERADIAN.));
#9=AXIS2_PLACEMENT_3D('',#14,#15,#16);
#10=LENGTH_MEASURE_WITH_UNIT(LENGTH_MEASURE(1.0),#17);
#11=DIMENSIONAL_EXPONENTS(1.0,0.0,0.0,0.0,0.0,0.0,0.0);
#12=DIMENSIONAL_EXPONENTS(0.0,0.0,0.0,0.0,0.0,0.0,0.0);
#13=PRODUCT_CONTEXT('',#4,'mechanical');
#14=CARTESIAN_POINT('',(0.0,0.0,0.0));
#15=DIRECTION('',(0.0,0.0,1.0));
#16=DIRECTION('',(1.0,0.0,0.0));
#17=(NAMED_UNIT(#11)LENGTH_UNIT()SI_UNIT(.MILLI.,.METRE.));
#18=PRESENTATION_STYLE_ASSIGNMENT((#19));
#19=SURFACE_STYLE_USAGE(.BOTH.,#20);
#20=SURFACE_SIDE_STYLE('',(#21));
#21=SURFACE_STYLE_FILL_AREA(#22);
#22=FILL_AREA_STYLE('',(#23));
#23=FILL_AREA_STYLE_COLOUR('',#24);
#24=COLOUR_RGB('',0.9,0.9,0.9);
#25=SHAPE_DEFINITION_REPRESENTATION(#26,#27);
#26=PRODUCT_DEFINITION_SHAPE('productshape0','',#30);
#27=MANIFOLD_SURFACE_SHAPE_REPRESENTATION('',(#28,#9),#3);
#28=SHELL_BASED_SURFACE_MODEL('shell0',(#33));
#29=PRODUCT('product0','','',(#13));
#30=PRODUCT_DEFINITION('mesh0','',#31,#2);
#31=PRODUCT_DEFINITION_FORMATION_WITH_SPECIFIED_SOURCE('prodsource0','',#29,.NOT_KNOWN.);
#32=STYLED_ITEM('',(#18),#33);
#33=CLOSED_SHELL('',(#94,#116,#138,#160,#182,#204,#226,#248,#270,#292,#314,#336,#358,#380,#402,#424,#446,#468,#490,#512,#534,#556,#578,#600,#622,#644,#666,#688,#710,#732,#754,#776,#798,#820,#842,#864,#886,#908,#930,#952,#974,#996,#1018,#1040,#1062,#1084,#1106,#1128,#1150,#1172,#1194,#1216,#1238,#1260,#1282));
#34=CARTESIAN_POINT('',(155.3799591064453,-137.1791534423828,10.621288299560547));
#35=VERTEX_POINT('',#34);
#36=CARTESIAN_POINT('',(155.3799591064453,-113.31147003173828,10.621288299560547));
#37=VERTEX_POINT('',#36);
#38=CARTESIAN_POINT('',(148.26963806152344,-113.31147003173828,10.621288299560547));
#39=VERTEX_POINT('',#38);
#40=CARTESIAN_POINT('',(148.26963806152344,-137.1791534423828,10.621288299560547));
#41=VERTEX_POINT('',#40);
#42=CARTESIAN_POINT('',(155.3799591064453,-137.1791534423828,18.897945404052734));
#43=VERTEX_POINT('',#42);
#44=CARTESIAN_POINT('',(148.26963806152344,-137.1791534423828,18.897945404052734));
#45=VERTEX_POINT('',#44);
#46=CARTESIAN_POINT('',(148.26963806152344,-113.31147003173828,18.897945404052734));
#47=VERTEX_POINT('',#46);
#48=CARTESIAN_POINT('',(155.3799591064453,-113.31147003173828,18.897945404052734));
#49=VERTEX_POINT('',#48);
#50=CARTESIAN_POINT('',(148.26963806152344,-158.29409790039062,8.98273754119873));
#51=VERTEX_POINT('',#50);
#52=CARTESIAN_POINT('',(290.020751953125,-158.29409790039062,8.98273754119873));
#53=VERTEX_POINT('',#52);
#54=CARTESIAN_POINT('',(290.020751953125,-92.32872009277344,8.98273754119873));
#55=VERTEX_POINT('',#54);
#56=CARTESIAN_POINT('',(148.26963806152344,-92.32872009277344,8.98273754119873));
#57=VERTEX_POINT('',#56);
#58=CARTESIAN_POINT('',(155.3799591064453,-150.3114013671875,15.7050142288208));
#59=VERTEX_POINT('',#58);
#60=CARTESIAN_POINT('',(168.37779235839844,-150.3114013671875,15.7050142288208));
#61=VERTEX_POINT('',#60);
#62=CARTESIAN_POINT('',(280.3800048828125,-150.3114013671875,15.7050142288208));
#63=VERTEX_POINT('',#62);
#64=CARTESIAN_POINT('',(155.3799591064453,-150.3114013671875,11.526873588562012));
#65=VERTEX_POINT('',#64);
#66=CARTESIAN_POINT('',(280.3800048828125,-150.3114013671875,11.526874542236328));
#67=VERTEX_POINT('',#66);
#68=CARTESIAN_POINT('',(168.37779235839844,-150.3114013671875,11.526873588562012));
#69=VERTEX_POINT('',#68);
#70=CARTESIAN_POINT('',(267.3821716308594,-100.31139373779297,15.7050142288208));
#71=VERTEX_POINT('',#70);
#72=CARTESIAN_POINT('',(155.3799591064453,-100.31139373779297,15.705013275146484));
#73=VERTEX_POINT('',#72);
#74=CARTESIAN_POINT('',(155.3799591064453,-100.31139373779297,11.526874542236328));
#75=VERTEX_POINT('',#74);
#76=CARTESIAN_POINT('',(267.3821716308594,-100.31139373779297,11.526875495910645));
#77=VERTEX_POINT('',#76);
#78=CARTESIAN_POINT('',(280.3800048828125,-100.31139373779297,11.526875495910645));
#79=VERTEX_POINT('',#78);
#80=CARTESIAN_POINT('',(280.3800048828125,-100.31139373779297,15.7050142288208));
#81=VERTEX_POINT('',#80);
#82=CARTESIAN_POINT('',(148.26963806152344,-92.32872009277344,11.526872634887695));
#83=VERTEX_POINT('',#82);
#84=CARTESIAN_POINT('',(148.26963806152344,-158.29409790039062,11.526872634887695));
#85=VERTEX_POINT('',#84);
#86=CARTESIAN_POINT('',(290.020751953125,-158.29409790039062,11.526874542236328));
#87=VERTEX_POINT('',#86);
#88=CARTESIAN_POINT('',(290.020751953125,-92.32872009277344,11.526874542236328));
#89=VERTEX_POINT('',#88);
#90=CARTESIAN_POINT('',(148.26963806152344,-92.32872009277344,11.526874542236328));
#91=VERTEX_POINT('',#90);
#92=CARTESIAN_POINT('',(148.26963806152344,-158.29409790039062,11.526874542236328));
#93=VERTEX_POINT('',#92);
#94=FACE_SURFACE('',(#99),#95,.T.);
#95=PLANE('',#96);
#96=AXIS2_PLACEMENT_3D('',#34,#97,#98);
#97=DIRECTION('',(0,-0,1));
#98=DIRECTION('',(0,1,0));
#99=FACE_BOUND('',#100,.T.);
#100=EDGE_LOOP('',(#101,#102,#103));
#101=ORIENTED_EDGE('',*,*,#104,.T.);
#102=ORIENTED_EDGE('',*,*,#105,.T.);
#103=ORIENTED_EDGE('',*,*,#106,.T.);
#104=EDGE_CURVE('',#35,#37,#107,.F.);
#105=EDGE_CURVE('',#37,#39,#108,.T.);
#106=EDGE_CURVE('',#39,#35,#109,.T.);
#107=LINE('',#34,#110);
#108=LINE('',#36,#111);
#109=LINE('',#38,#112);
#110=VECTOR('',#113,1.0);
#111=VECTOR('',#114,1.0);
#112=VECTOR('',#115,1.0);
#113=DIRECTION('',(0,1,0));
#114=DIRECTION('',(-1,0,0));
#115=DIRECTION('',(0.2855060298309193,-0.958376912769807,0));
#116=FACE_SURFACE('',(#121),#117,.T.);
#117=PLANE('',#118);
#118=AXIS2_PLACEMENT_3D('',#34,#119,#120);
#119=DIRECTION('',(0,0,1));
#120=DIRECTION('',(-0.2855060298309193,0.958376912769807,0));
#121=FACE_BOUND('',#122,.T.);
#122=EDGE_LOOP('',(#123,#124,#125));
#123=ORIENTED_EDGE('',*,*,#126,.T.);
#124=ORIENTED_EDGE('',*,*,#127,.T.);
#125=ORIENTED_EDGE('',*,*,#128,.T.);
#126=EDGE_CURVE('',#35,#39,#129,.F.);
#127=EDGE_CURVE('',#39,#41,#130,.T.);
#128=EDGE_CURVE('',#41,#35,#131,.T.);
#129=LINE('',#34,#132);
#130=LINE('',#38,#133);
#131=LINE('',#40,#134);
#132=VECTOR('',#135,1.0);
#133=VECTOR('',#136,1.0);
#134=VECTOR('',#137,1.0);
#135=DIRECTION('',(-0.2855060298309193,0.958376912769807,0));
#136=DIRECTION('',(0,-1,0));
#137=DIRECTION('',(1,0,0));
#138=FACE_SURFACE('',(#143),#139,.T.);
#139=PLANE('',#140);
#140=AXIS2_PLACEMENT_3D('',#42,#141,#142);
#141=DIRECTION('',(0,0,-1));
#142=DIRECTION('',(-1,0,0));
#143=FACE_BOUND('',#144,.T.);
#144=EDGE_LOOP('',(#145,#146,#147));
#145=ORIENTED_EDGE('',*,*,#148,.T.);
#146=ORIENTED_EDGE('',*,*,#149,.T.);
#147=ORIENTED_EDGE('',*,*,#150,.T.);
#148=EDGE_CURVE('',#43,#45,#151,.F.);
#149=EDGE_CURVE('',#45,#47,#152,.T.);
#150=EDGE_CURVE('',#47,#43,#153,.T.);
#151=LINE('',#42,#154);
#152=LINE('',#44,#155);
#153=LINE('',#46,#156);
#154=VECTOR('',#157,1.0);
#155=VECTOR('',#158,1.0);
#156=VECTOR('',#159,1.0);
#157=DIRECTION('',(-1,0,0));
#158=DIRECTION('',(0,1,0));
#159=DIRECTION('',(0.2855060298309193,-0.958376912769807,0));
#160=FACE_SURFACE('',(#165),#161,.T.);
#161=PLANE('',#162);
#162=AXIS2_PLACEMENT_3D('',#42,#163,#164);
#163=DIRECTION('',(0,0,-1));
#164=DIRECTION('',(-0.2855060298309193,0.958376912769807,0));
#165=FACE_BOUND('',#166,.T.);
#166=EDGE_LOOP('',(#167,#168,#169));
#167=ORIENTED_EDGE('',*,*,#170,.T.);
#168=ORIENTED_EDGE('',*,*,#171,.T.);
#169=ORIENTED_EDGE('',*,*,#172,.T.);
#170=EDGE_CURVE('',#43,#47,#173,.F.);
#171=EDGE_CURVE('',#47,#49,#174,.T.);
#172=EDGE_CURVE('',#49,#43,#175,.T.);
#173=LINE('',#42,#176);
#174=LINE('',#46,#177);
#175=LINE('',#48,#178);
#176=VECTOR('',#179,1.0);
#177=VECTOR('',#180,1.0);
#178=VECTOR('',#181,1.0);
#179=DIRECTION('',(-0.2855060298309193,0.958376912769807,0));
#180=DIRECTION('',(1,0,0));
#181=DIRECTION('',(0,-1,0));
#182=FACE_SURFACE('',(#187),#183,.T.);
#183=PLANE('',#184);
#184=AXIS2_PLACEMENT_3D('',#40,#185,#186);
#185=DIRECTION('',(1,0,0));
#186=DIRECTION('',(0,1,0));
#187=FACE_BOUND('',#188,.T.);
#188=EDGE_LOOP('',(#189,#190,#191));
#189=ORIENTED_EDGE('',*,*,#192,.T.);
#190=ORIENTED_EDGE('',*,*,#193,.T.);
#191=ORIENTED_EDGE('',*,*,#194,.T.);
#192=EDGE_CURVE('',#41,#39,#195,.F.);
#193=EDGE_CURVE('',#39,#47,#196,.T.);
#194=EDGE_CURVE('',#47,#41,#197,.T.);
#195=LINE('',#40,#198);
#196=LINE('',#38,#199);
#197=LINE('',#46,#200);
#198=VECTOR('',#201,1.0);
#199=VECTOR('',#202,1.0);
#200=VECTOR('',#203,1.0);
#201=DIRECTION('',(0,1,0));
#202=DIRECTION('',(0,0,1));
#203=DIRECTION('',(0,-0.9448052387980179,-0.3276325086736972));
#204=FACE_SURFACE('',(#209),#205,.T.);
#205=PLANE('',#206);
#206=AXIS2_PLACEMENT_3D('',#40,#207,#208);
#207=DIRECTION('',(1,0,0));
#208=DIRECTION('',(0,0.9448052387980179,0.3276325086736972));
#209=FACE_BOUND('',#210,.T.);
#210=EDGE_LOOP('',(#211,#212,#213));
#211=ORIENTED_EDGE('',*,*,#214,.T.);
#212=ORIENTED_EDGE('',*,*,#215,.T.);
#213=ORIENTED_EDGE('',*,*,#216,.T.);
#214=EDGE_CURVE('',#41,#47,#217,.F.);
#215=EDGE_CURVE('',#47,#45,#218,.T.);
#216=EDGE_CURVE('',#45,#41,#219,.T.);
#217=LINE('',#40,#220);
#218=LINE('',#46,#221);
#219=LINE('',#44,#222);
#220=VECTOR('',#223,1.0);
#221=VECTOR('',#224,1.0);
#222=VECTOR('',#225,1.0);
#223=DIRECTION('',(0,0.9448052387980179,0.3276325086736972));
#224=DIRECTION('',(0,-1,0));
#225=DIRECTION('',(0,0,-1));
#226=FACE_SURFACE('',(#231),#227,.T.);
#227=PLANE('',#228);
#228=AXIS2_PLACEMENT_3D('',#38,#229,#230);
#229=DIRECTION('',(0,-1,0));
#230=DIRECTION('',(1,0,0));
#231=FACE_BOUND('',#232,.T.);
#232=EDGE_LOOP('',(#233,#234,#235));
#233=ORIENTED_EDGE('',*,*,#236,.T.);
#234=ORIENTED_EDGE('',*,*,#237,.T.);
#235=ORIENTED_EDGE('',*,*,#238,.T.);
#236=EDGE_CURVE('',#39,#37,#239,.F.);
#237=EDGE_CURVE('',#37,#49,#240,.T.);
#238=EDGE_CURVE('',#49,#39,#241,.T.);
#239=LINE('',#38,#242);
#240=LINE('',#36,#243);
#241=LINE('',#48,#244);
#242=VECTOR('',#245,1.0);
#243=VECTOR('',#246,1.0);
#244=VECTOR('',#247,1.0);
#245=DIRECTION('',(1,0,0));
#246=DIRECTION('',(0,0,1));
#247=DIRECTION('',(-0.6516385749996462,0,-0.7585296088963375));
#248=FACE_SURFACE('',(#253),#249,.T.);
#249=PLANE('',#250);
#250=AXIS2_PLACEMENT_3D('',#38,#251,#252);
#251=DIRECTION('',(0,-1,0));
#252=DIRECTION('',(0.6516385749996462,0,0.7585296088963375));
#253=FACE_BOUND('',#254,.T.);
#254=EDGE_LOOP('',(#255,#256,#257));
#255=ORIENTED_EDGE('',*,*,#258,.T.);
#256=ORIENTED_EDGE('',*,*,#259,.T.);
#257=ORIENTED_EDGE('',*,*,#260,.T.);
#258=EDGE_CURVE('',#39,#49,#261,.F.);
#259=EDGE_CURVE('',#49,#47,#262,.T.);
#260=EDGE_CURVE('',#47,#39,#263,.T.);
#261=LINE('',#38,#264);
#262=LINE('',#48,#265);
#263=LINE('',#46,#266);
#264=VECTOR('',#267,1.0);
#265=VECTOR('',#268,1.0);
#266=VECTOR('',#269,1.0);
#267=DIRECTION('',(0.6516385749996462,0,0.7585296088963375));
#268=DIRECTION('',(-1,0,0));
#269=DIRECTION('',(0,0,-1));
#270=FACE_SURFACE('',(#275),#271,.T.);
#271=PLANE('',#272);
#272=AXIS2_PLACEMENT_3D('',#36,#273,#274);
#273=DIRECTION('',(-1,0,0));
#274=DIRECTION('',(0,-1,0));
#275=FACE_BOUND('',#276,.T.);
#276=EDGE_LOOP('',(#277,#278,#279));
#277=ORIENTED_EDGE('',*,*,#280,.T.);
#278=ORIENTED_EDGE('',*,*,#281,.T.);
#279=ORIENTED_EDGE('',*,*,#282,.T.);
#280=EDGE_CURVE('',#37,#35,#283,.F.);
#281=EDGE_CURVE('',#35,#43,#284,.T.);
#282=EDGE_CURVE('',#43,#37,#285,.T.);
#283=LINE('',#36,#286);
#284=LINE('',#34,#287);
#285=LINE('',#42,#288);
#286=VECTOR('',#289,1.0);
#287=VECTOR('',#290,1.0);
#288=VECTOR('',#291,1.0);
#289=DIRECTION('',(0,-1,0));
#290=DIRECTION('',(0,0,1));
#291=DIRECTION('',(0,0.9448052387980179,-0.3276325086736972));
#292=FACE_SURFACE('',(#297),#293,.T.);
#293=PLANE('',#294);
#294=AXIS2_PLACEMENT_3D('',#36,#295,#296);
#295=DIRECTION('',(-1,0,0));
#296=DIRECTION('',(0,-0.9448052387980179,0.3276325086736972));
#297=FACE_BOUND('',#298,.T.);
#298=EDGE_LOOP('',(#299,#300,#301));
#299=ORIENTED_EDGE('',*,*,#302,.T.);
#300=ORIENTED_EDGE('',*,*,#303,.T.);
#301=ORIENTED_EDGE('',*,*,#304,.T.);
#302=EDGE_CURVE('',#37,#43,#305,.F.);
#303=EDGE_CURVE('',#43,#49,#306,.T.);
#304=EDGE_CURVE('',#49,#37,#307,.T.);
#305=LINE('',#36,#308);
#306=LINE('',#42,#309);
#307=LINE('',#48,#310);
#308=VECTOR('',#311,1.0);
#309=VECTOR('',#312,1.0);
#310=VECTOR('',#313,1.0);
#311=DIRECTION('',(0,-0.9448052387980179,0.3276325086736972));
#312=DIRECTION('',(0,1,0));
#313=DIRECTION('',(0,0,-1));
#314=FACE_SURFACE('',(#319),#315,.T.);
#315=PLANE('',#316);
#316=AXIS2_PLACEMENT_3D('',#34,#317,#318);
#317=DIRECTION('',(0,1,0));
#318=DIRECTION('',(-1,0,0));
#319=FACE_BOUND('',#320,.T.);
#320=EDGE_LOOP('',(#321,#322,#323));
#321=ORIENTED_EDGE('',*,*,#324,.T.);
#322=ORIENTED_EDGE('',*,*,#325,.T.);
#323=ORIENTED_EDGE('',*,*,#326,.T.);
#324=EDGE_CURVE('',#35,#41,#327,.F.);
#325=EDGE_CURVE('',#41,#45,#328,.T.);
#326=EDGE_CURVE('',#45,#35,#329,.T.);
#327=LINE('',#34,#330);
#328=LINE('',#40,#331);
#329=LINE('',#44,#332);
#330=VECTOR('',#333,1.0);
#331=VECTOR('',#334,1.0);
#332=VECTOR('',#335,1.0);
#333=DIRECTION('',(-1,0,0));
#334=DIRECTION('',(0,0,1));
#335=DIRECTION('',(0.6516385749996462,0,-0.7585296088963375));
#336=FACE_SURFACE('',(#341),#337,.T.);
#337=PLANE('',#338);
#338=AXIS2_PLACEMENT_3D('',#34,#339,#340);
#339=DIRECTION('',(0,1,-0));
#340=DIRECTION('',(-0.6516385749996462,0,0.7585296088963375));
#341=FACE_BOUND('',#342,.T.);
#342=EDGE_LOOP('',(#343,#344,#345));
#343=ORIENTED_EDGE('',*,*,#346,.T.);
#344=ORIENTED_EDGE('',*,*,#347,.T.);
#345=ORIENTED_EDGE('',*,*,#348,.T.);
#346=EDGE_CURVE('',#35,#45,#349,.F.);
#347=EDGE_CURVE('',#45,#43,#350,.T.);
#348=EDGE_CURVE('',#43,#35,#351,.T.);
#349=LINE('',#34,#352);
#350=LINE('',#44,#353);
#351=LINE('',#42,#354);
#352=VECTOR('',#355,1.0);
#353=VECTOR('',#356,1.0);
#354=VECTOR('',#357,1.0);
#355=DIRECTION('',(-0.6516385749996462,0,0.7585296088963375));
#356=DIRECTION('',(1,0,0));
#357=DIRECTION('',(0,0,-1));
#358=FACE_SURFACE('',(#363),#359,.T.);
#359=PLANE('',#360);
#360=AXIS2_PLACEMENT_3D('',#50,#361,#362);
#361=DIRECTION('',(0,0,1));
#362=DIRECTION('',(1,0,0));
#363=FACE_BOUND('',#364,.T.);
#364=EDGE_LOOP('',(#365,#366,#367));
#365=ORIENTED_EDGE('',*,*,#368,.T.);
#366=ORIENTED_EDGE('',*,*,#369,.T.);
#367=ORIENTED_EDGE('',*,*,#370,.T.);
#368=EDGE_CURVE('',#51,#53,#371,.F.);
#369=EDGE_CURVE('',#53,#55,#372,.T.);
#370=EDGE_CURVE('',#55,#51,#373,.T.);
#371=LINE('',#50,#374);
#372=LINE('',#52,#375);
#373=LINE('',#54,#376);
#374=VECTOR('',#377,1.0);
#375=VECTOR('',#378,1.0);
#376=VECTOR('',#379,1.0);
#377=DIRECTION('',(1,0,0));
#378=DIRECTION('',(0,1,0));
#379=DIRECTION('',(-0.9066364035251933,-0.4219128248855479,0));
#380=FACE_SURFACE('',(#385),#381,.T.);
#381=PLANE('',#382);
#382=AXIS2_PLACEMENT_3D('',#50,#383,#384);
#383=DIRECTION('',(0,0,1));
#384=DIRECTION('',(0.9066364035251933,0.4219128248855479,0));
#385=FACE_BOUND('',#386,.T.);
#386=EDGE_LOOP('',(#387,#388,#389));
#387=ORIENTED_EDGE('',*,*,#390,.T.);
#388=ORIENTED_EDGE('',*,*,#391,.T.);
#389=ORIENTED_EDGE('',*,*,#392,.T.);
#390=EDGE_CURVE('',#51,#55,#393,.F.);
#391=EDGE_CURVE('',#55,#57,#394,.T.);
#392=EDGE_CURVE('',#57,#51,#395,.T.);
#393=LINE('',#50,#396);
#394=LINE('',#54,#397);
#395=LINE('',#56,#398);
#396=VECTOR('',#399,1.0);
#397=VECTOR('',#400,1.0);
#398=VECTOR('',#401,1.0);
#399=DIRECTION('',(0.9066364035251933,0.4219128248855479,0));
#400=DIRECTION('',(-1,0,0));
#401=DIRECTION('',(0,-1,0));
#402=FACE_SURFACE('',(#407),#403,.T.);
#403=PLANE('',#404);
#404=AXIS2_PLACEMENT_3D('',#58,#405,#406);
#405=DIRECTION('',(NaN,NaN,NaN));
#406=DIRECTION('',(1,0,0));
#407=FACE_BOUND('',#408,.T.);
#408=EDGE_LOOP('',(#409,#410,#411));
#409=ORIENTED_EDGE('',*,*,#412,.T.);
#410=ORIENTED_EDGE('',*,*,#413,.T.);
#411=ORIENTED_EDGE('',*,*,#414,.T.);
#412=EDGE_CURVE('',#59,#61,#415,.F.);
#413=EDGE_CURVE('',#61,#61,#416,.T.);
#414=EDGE_CURVE('',#61,#59,#417,.T.);
#415=LINE('',#58,#418);
#416=LINE('',#60,#419);
#417=LINE('',#60,#420);
#418=VECTOR('',#421,1.0);
#419=VECTOR('',#422,1.0);
#420=VECTOR('',#423,1.0);
#421=DIRECTION('',(1,0,0));
#422=DIRECTION('',(NaN,NaN,NaN));
#423=DIRECTION('',(-1,0,0));
#424=FACE_SURFACE('',(#429),#425,.T.);
#425=PLANE('',#426);
#426=AXIS2_PLACEMENT_3D('',#58,#427,#428);
#427=DIRECTION('',(NaN,NaN,NaN));
#428=DIRECTION('',(1,0,0));
#429=FACE_BOUND('',#430,.T.);
#430=EDGE_LOOP('',(#431,#432,#433));
#431=ORIENTED_EDGE('',*,*,#434,.T.);
#432=ORIENTED_EDGE('',*,*,#435,.T.);
#433=ORIENTED_EDGE('',*,*,#436,.T.);
#434=EDGE_CURVE('',#59,#61,#437,.F.);
#435=EDGE_CURVE('',#61,#59,#438,.T.);
#436=EDGE_CURVE('',#59,#59,#439,.T.);
#437=LINE('',#58,#440);
#438=LINE('',#60,#441);
#439=LINE('',#58,#442);
#440=VECTOR('',#443,1.0);
#441=VECTOR('',#444,1.0);
#442=VECTOR('',#445,1.0);
#443=DIRECTION('',(1,0,0));
#444=DIRECTION('',(-1,0,0));
#445=DIRECTION('',(NaN,NaN,NaN));
#446=FACE_SURFACE('',(#451),#447,.T.);
#447=PLANE('',#448);
#448=AXIS2_PLACEMENT_3D('',#60,#449,#450);
#449=DIRECTION('',(NaN,NaN,NaN));
#450=DIRECTION('',(1,0,0));
#451=FACE_BOUND('',#452,.T.);
#452=EDGE_LOOP('',(#453,#454,#455));
#453=ORIENTED_EDGE('',*,*,#456,.T.);
#454=ORIENTED_EDGE('',*,*,#457,.T.);
#455=ORIENTED_EDGE('',*,*,#458,.T.);
#456=EDGE_CURVE('',#61,#63,#459,.F.);
#457=EDGE_CURVE('',#63,#63,#460,.T.);
#458=EDGE_CURVE('',#63,#61,#461,.T.);
#459=LINE('',#60,#462);
#460=LINE('',#62,#463);
#461=LINE('',#62,#464);
#462=VECTOR('',#465,1.0);
#463=VECTOR('',#466,1.0);
#464=VECTOR('',#467,1.0);
#465=DIRECTION('',(1,0,0));
#466=DIRECTION('',(NaN,NaN,NaN));
#467=DIRECTION('',(-1,0,0));
#468=FACE_SURFACE('',(#473),#469,.T.);
#469=PLANE('',#470);
#470=AXIS2_PLACEMENT_3D('',#60,#471,#472);
#471=DIRECTION('',(NaN,NaN,NaN));
#472=DIRECTION('',(1,0,0));
#473=FACE_BOUND('',#474,.T.);
#474=EDGE_LOOP('',(#475,#476,#477));
#475=ORIENTED_EDGE('',*,*,#478,.T.);
#476=ORIENTED_EDGE('',*,*,#479,.T.);
#477=ORIENTED_EDGE('',*,*,#480,.T.);
#478=EDGE_CURVE('',#61,#63,#481,.F.);
#479=EDGE_CURVE('',#63,#61,#482,.T.);
#480=EDGE_CURVE('',#61,#61,#483,.T.);
#481=LINE('',#60,#484);
#482=LINE('',#62,#485);
#483=LINE('',#60,#486);
#484=VECTOR('',#487,1.0);
#485=VECTOR('',#488,1.0);
#486=VECTOR('',#489,1.0);
#487=DIRECTION('',(1,0,0));
#488=DIRECTION('',(-1,0,0));
#489=DIRECTION('',(NaN,NaN,NaN));
#490=FACE_SURFACE('',(#495),#491,.T.);
#491=PLANE('',#492);
#492=AXIS2_PLACEMENT_3D('',#64,#493,#494);
#493=DIRECTION('',(0,1,0));
#494=DIRECTION('',(0,0,1));
#495=FACE_BOUND('',#496,.T.);
#496=EDGE_LOOP('',(#497,#498,#499));
#497=ORIENTED_EDGE('',*,*,#500,.T.);
#498=ORIENTED_EDGE('',*,*,#501,.T.);
#499=ORIENTED_EDGE('',*,*,#502,.T.);
#500=EDGE_CURVE('',#65,#59,#503,.F.);
#501=EDGE_CURVE('',#59,#61,#504,.T.);
#502=EDGE_CURVE('',#61,#65,#505,.T.);
#503=LINE('',#64,#506);
#504=LINE('',#58,#507);
#505=LINE('',#60,#508);
#506=VECTOR('',#509,1.0);
#507=VECTOR('',#510,1.0);
#508=VECTOR('',#511,1.0);
#509=DIRECTION('',(0,0,1));
#510=DIRECTION('',(1,0,0));
#511=DIRECTION('',(-0.9520228922385378,0,-0.3060268168866407));
#512=FACE_SURFACE('',(#517),#513,.T.);
#513=PLANE('',#514);
#514=AXIS2_PLACEMENT_3D('',#60,#515,#516);
#515=DIRECTION('',(-0,1,0));
#516=DIRECTION('',(1,0,0));
#517=FACE_BOUND('',#518,.T.);
#518=EDGE_LOOP('',(#519,#520,#521));
#519=ORIENTED_EDGE('',*,*,#522,.T.);
#520=ORIENTED_EDGE('',*,*,#523,.T.);
#521=ORIENTED_EDGE('',*,*,#524,.T.);
#522=EDGE_CURVE('',#61,#63,#525,.F.);
#523=EDGE_CURVE('',#63,#67,#526,.T.);
#524=EDGE_CURVE('',#67,#61,#527,.T.);
#525=LINE('',#60,#528);
#526=LINE('',#62,#529);
#527=LINE('',#66,#530);
#528=VECTOR('',#531,1.0);
#529=VECTOR('',#532,1.0);
#530=VECTOR('',#533,1.0);
#531=DIRECTION('',(1,0,0));
#532=DIRECTION('',(0,0,-1));
#533=DIRECTION('',(-0.9993049281038706,0,0.03727815268113667));
#534=FACE_SURFACE('',(#539),#535,.T.);
#535=PLANE('',#536);
#536=AXIS2_PLACEMENT_3D('',#66,#537,#538);
#537=DIRECTION('',(0,1,0));
#538=DIRECTION('',(-1,0,-8.514781046833067E-09));
#539=FACE_BOUND('',#540,.T.);
#540=EDGE_LOOP('',(#541,#542,#543));
#541=ORIENTED_EDGE('',*,*,#544,.T.);
#542=ORIENTED_EDGE('',*,*,#545,.T.);
#543=ORIENTED_EDGE('',*,*,#546,.T.);
#544=EDGE_CURVE('',#67,#69,#547,.F.);
#545=EDGE_CURVE('',#69,#65,#548,.T.);
#546=EDGE_CURVE('',#65,#67,#549,.T.);
#547=LINE('',#66,#550);
#548=LINE('',#68,#551);
#549=LINE('',#64,#552);
#550=VECTOR('',#553,1.0);
#551=VECTOR('',#554,1.0);
#552=VECTOR('',#555,1.0);
#553=DIRECTION('',(-1,0,-8.514781046833067E-09));
#554=DIRECTION('',(-1,0,0));
#555=DIRECTION('',(1,0,7.629391737283299E-09));
#556=FACE_SURFACE('',(#561),#557,.T.);
#557=PLANE('',#558);
#558=AXIS2_PLACEMENT_3D('',#60,#559,#560);
#559=DIRECTION('',(0,1,0));
#560=DIRECTION('',(0.9993049281038706,0,-0.03727815268113667));
#561=FACE_BOUND('',#562,.T.);
#562=EDGE_LOOP('',(#563,#564,#565));
#563=ORIENTED_EDGE('',*,*,#566,.T.);
#564=ORIENTED_EDGE('',*,*,#567,.T.);
#565=ORIENTED_EDGE('',*,*,#568,.T.);
#566=EDGE_CURVE('',#61,#67,#569,.F.);
#567=EDGE_CURVE('',#67,#65,#570,.T.);
#568=EDGE_CURVE('',#65,#61,#571,.T.);
#569=LINE('',#60,#572);
#570=LINE('',#66,#573);
#571=LINE('',#64,#574);
#572=VECTOR('',#575,1.0);
#573=VECTOR('',#576,1.0);
#574=VECTOR('',#577,1.0);
#575=DIRECTION('',(0.9993049281038706,0,-0.03727815268113667));
#576=DIRECTION('',(-1,0,-7.629391737283299E-09));
#577=DIRECTION('',(0.9520228922385378,0,0.3060268168866407));
#578=FACE_SURFACE('',(#583),#579,.T.);
#579=PLANE('',#580);
#580=AXIS2_PLACEMENT_3D('',#70,#581,#582);
#581=DIRECTION('',(0,-1,0));
#582=DIRECTION('',(-1,0,-8.514781046833067E-09));
#583=FACE_BOUND('',#584,.T.);
#584=EDGE_LOOP('',(#585,#586,#587));
#585=ORIENTED_EDGE('',*,*,#588,.T.);
#586=ORIENTED_EDGE('',*,*,#589,.T.);
#587=ORIENTED_EDGE('',*,*,#590,.T.);
#588=EDGE_CURVE('',#71,#73,#591,.F.);
#589=EDGE_CURVE('',#73,#75,#592,.T.);
#590=EDGE_CURVE('',#75,#71,#593,.T.);
#591=LINE('',#70,#594);
#592=LINE('',#72,#595);
#593=LINE('',#74,#596);
#594=VECTOR('',#597,1.0);
#595=VECTOR('',#598,1.0);
#596=VECTOR('',#599,1.0);
#597=DIRECTION('',(-1,0,-8.514781046833067E-09));
#598=DIRECTION('',(0,0,-1));
#599=DIRECTION('',(0.9993049281038706,0,0.03727815268113667));
#600=FACE_SURFACE('',(#605),#601,.T.);
#601=PLANE('',#602);
#602=AXIS2_PLACEMENT_3D('',#70,#603,#604);
#603=DIRECTION('',(0,-1,-0));
#604=DIRECTION('',(-0.9993049281038706,0,-0.03727815268113667));
#605=FACE_BOUND('',#606,.T.);
#606=EDGE_LOOP('',(#607,#608,#609));
#607=ORIENTED_EDGE('',*,*,#610,.T.);
#608=ORIENTED_EDGE('',*,*,#611,.T.);
#609=ORIENTED_EDGE('',*,*,#612,.T.);
#610=EDGE_CURVE('',#71,#75,#613,.F.);
#611=EDGE_CURVE('',#75,#77,#614,.T.);
#612=EDGE_CURVE('',#77,#71,#615,.T.);
#613=LINE('',#70,#616);
#614=LINE('',#74,#617);
#615=LINE('',#76,#618);
#616=VECTOR('',#619,1.0);
#617=VECTOR('',#620,1.0);
#618=VECTOR('',#621,1.0);
#619=DIRECTION('',(-0.9993049281038706,0,-0.03727815268113667));
#620=DIRECTION('',(1,0,8.514781046833067E-09));
#621=DIRECTION('',(0,0,1));
#622=FACE_SURFACE('',(#627),#623,.T.);
#623=PLANE('',#624);
#624=AXIS2_PLACEMENT_3D('',#60,#625,#626);
#625=DIRECTION('',(-0,-1.9073483417742396E-08,-0.9999999999999998));
#626=DIRECTION('',(-1,0,0));
#627=FACE_BOUND('',#628,.T.);
#628=EDGE_LOOP('',(#629,#630,#631));
#629=ORIENTED_EDGE('',*,*,#632,.T.);
#630=ORIENTED_EDGE('',*,*,#633,.T.);
#631=ORIENTED_EDGE('',*,*,#634,.T.);
#632=EDGE_CURVE('',#61,#59,#635,.F.);
#633=EDGE_CURVE('',#59,#73,#636,.T.);
#634=EDGE_CURVE('',#73,#61,#637,.T.);
#635=LINE('',#60,#638);
#636=LINE('',#58,#639);
#637=LINE('',#72,#640);
#638=VECTOR('',#641,1.0);
#639=VECTOR('',#642,1.0);
#640=VECTOR('',#643,1.0);
#641=DIRECTION('',(-1,0,0));
#642=DIRECTION('',(0,0.9999999999999999,-1.9073483417742396E-08));
#643=DIRECTION('',(0.25159453029105633,-0.9678327295187028,1.8459941517623342E-08));
#644=FACE_SURFACE('',(#649),#645,.T.);
#645=PLANE('',#646);
#646=AXIS2_PLACEMENT_3D('',#72,#647,#648);
#647=DIRECTION('',(8.514781046833067E-09,2.2134737467232516E-09,-1));
#648=DIRECTION('',(1,0,8.514781046833067E-09));
#649=FACE_BOUND('',#650,.T.);
#650=EDGE_LOOP('',(#651,#652,#653));
#651=ORIENTED_EDGE('',*,*,#654,.T.);
#652=ORIENTED_EDGE('',*,*,#655,.T.);
#653=ORIENTED_EDGE('',*,*,#656,.T.);
#654=EDGE_CURVE('',#73,#71,#657,.F.);
#655=EDGE_CURVE('',#71,#63,#658,.T.);
#656=EDGE_CURVE('',#63,#73,#659,.T.);
#657=LINE('',#72,#660);
#658=LINE('',#70,#661);
#659=LINE('',#62,#662);
#660=VECTOR('',#663,1.0);
#661=VECTOR('',#664,1.0);
#662=VECTOR('',#665,1.0);
#663=DIRECTION('',(1,0,8.514781046833067E-09));
#664=DIRECTION('',(0.2515945302910564,-0.9678327295187029,0));
#665=DIRECTION('',(-0.9284767182430433,0.3713906079596362,-7.0837126024233895E-09));
#666=FACE_SURFACE('',(#671),#667,.T.);
#667=PLANE('',#668);
#668=AXIS2_PLACEMENT_3D('',#72,#669,#670);
#669=DIRECTION('',(0,-1.9073483417742396E-08,-0.9999999999999999));
#670=DIRECTION('',(0.9284767182430433,-0.3713906079596362,7.0837126024233895E-09));
#671=FACE_BOUND('',#672,.T.);
#672=EDGE_LOOP('',(#673,#674,#675));
#673=ORIENTED_EDGE('',*,*,#676,.T.);
#674=ORIENTED_EDGE('',*,*,#677,.T.);
#675=ORIENTED_EDGE('',*,*,#678,.T.);
#676=EDGE_CURVE('',#73,#63,#679,.F.);
#677=EDGE_CURVE('',#63,#61,#680,.T.);
#678=EDGE_CURVE('',#61,#73,#681,.T.);
#679=LINE('',#72,#682);
#680=LINE('',#62,#683);
#681=LINE('',#60,#684);
#682=VECTOR('',#685,1.0);
#683=VECTOR('',#686,1.0);
#684=VECTOR('',#687,1.0);
#685=DIRECTION('',(0.9284767182430433,-0.3713906079596362,7.0837126024233895E-09));
#686=DIRECTION('',(-1,0,0));
#687=DIRECTION('',(-0.25159453029105633,0.9678327295187028,-1.8459941517623342E-08));
#688=FACE_SURFACE('',(#693),#689,.T.);
#689=PLANE('',#690);
#690=AXIS2_PLACEMENT_3D('',#70,#691,#692);
#691=DIRECTION('',(0,-1,0));
#692=DIRECTION('',(0,0,-1));
#693=FACE_BOUND('',#694,.T.);
#694=EDGE_LOOP('',(#695,#696,#697));
#695=ORIENTED_EDGE('',*,*,#698,.T.);
#696=ORIENTED_EDGE('',*,*,#699,.T.);
#697=ORIENTED_EDGE('',*,*,#700,.T.);
#698=EDGE_CURVE('',#71,#77,#701,.F.);
#699=EDGE_CURVE('',#77,#79,#702,.T.);
#700=EDGE_CURVE('',#79,#71,#703,.T.);
#701=LINE('',#70,#704);
#702=LINE('',#76,#705);
#703=LINE('',#78,#706);
#704=VECTOR('',#707,1.0);
#705=VECTOR('',#708,1.0);
#706=VECTOR('',#709,1.0);
#707=DIRECTION('',(0,0,-1));
#708=DIRECTION('',(1,0,0));
#709=DIRECTION('',(-0.9520229329403098,0,0.306026690266928));
#710=FACE_SURFACE('',(#715),#711,.T.);
#711=PLANE('',#712);
#712=AXIS2_PLACEMENT_3D('',#70,#713,#714);
#713=DIRECTION('',(0,-1,0));
#714=DIRECTION('',(0.9520229329403098,0,-0.306026690266928));
#715=FACE_BOUND('',#716,.T.);
#716=EDGE_LOOP('',(#717,#718,#719));
#717=ORIENTED_EDGE('',*,*,#720,.T.);
#718=ORIENTED_EDGE('',*,*,#721,.T.);
#719=ORIENTED_EDGE('',*,*,#722,.T.);
#720=EDGE_CURVE('',#71,#79,#723,.F.);
#721=EDGE_CURVE('',#79,#81,#724,.T.);
#722=EDGE_CURVE('',#81,#71,#725,.T.);
#723=LINE('',#70,#726);
#724=LINE('',#78,#727);
#725=LINE('',#80,#728);
#726=VECTOR('',#729,1.0);
#727=VECTOR('',#730,1.0);
#728=VECTOR('',#731,1.0);
#729=DIRECTION('',(0.9520229329403098,0,-0.306026690266928));
#730=DIRECTION('',(0,0,1));
#731=DIRECTION('',(-1,0,0));
#732=FACE_SURFACE('',(#737),#733,.T.);
#733=PLANE('',#734);
#734=AXIS2_PLACEMENT_3D('',#70,#735,#736);
#735=DIRECTION('',(0,0,-1));
#736=DIRECTION('',(1,0,0));
#737=FACE_BOUND('',#738,.T.);
#738=EDGE_LOOP('',(#739,#740,#741));
#739=ORIENTED_EDGE('',*,*,#742,.T.);
#740=ORIENTED_EDGE('',*,*,#743,.T.);
#741=ORIENTED_EDGE('',*,*,#744,.T.);
#742=EDGE_CURVE('',#71,#81,#745,.F.);
#743=EDGE_CURVE('',#81,#63,#746,.T.);
#744=EDGE_CURVE('',#63,#71,#747,.T.);
#745=LINE('',#70,#748);
#746=LINE('',#80,#749);
#747=LINE('',#62,#750);
#748=VECTOR('',#751,1.0);
#749=VECTOR('',#752,1.0);
#750=VECTOR('',#753,1.0);
#751=DIRECTION('',(1,0,0));
#752=DIRECTION('',(0,-1,0));
#753=DIRECTION('',(-0.2515945302910564,0.9678327295187029,0));
#754=FACE_SURFACE('',(#759),#755,.T.);
#755=PLANE('',#756);
#756=AXIS2_PLACEMENT_3D('',#62,#757,#758);
#757=DIRECTION('',(-1,0,0));
#758=DIRECTION('',(0,1,0));
#759=FACE_BOUND('',#760,.T.);
#760=EDGE_LOOP('',(#761,#762,#763));
#761=ORIENTED_EDGE('',*,*,#764,.T.);
#762=ORIENTED_EDGE('',*,*,#765,.T.);
#763=ORIENTED_EDGE('',*,*,#766,.T.);
#764=EDGE_CURVE('',#63,#81,#767,.F.);
#765=EDGE_CURVE('',#81,#79,#768,.T.);
#766=EDGE_CURVE('',#79,#63,#769,.T.);
#767=LINE('',#62,#770);
#768=LINE('',#80,#771);
#769=LINE('',#78,#772);
#770=VECTOR('',#773,1.0);
#771=VECTOR('',#774,1.0);
#772=VECTOR('',#775,1.0);
#773=DIRECTION('',(0,1,0));
#774=DIRECTION('',(0,0,-1));
#775=DIRECTION('',(0,-0.9965268111323116,0.083272532653127));
#776=FACE_SURFACE('',(#781),#777,.T.);
#777=PLANE('',#778);
#778=AXIS2_PLACEMENT_3D('',#62,#779,#780);
#779=DIRECTION('',(-1,0,0));
#780=DIRECTION('',(0,0.9965268111323116,-0.083272532653127));
#781=FACE_BOUND('',#782,.T.);
#782=EDGE_LOOP('',(#783,#784,#785));
#783=ORIENTED_EDGE('',*,*,#786,.T.);
#784=ORIENTED_EDGE('',*,*,#787,.T.);
#785=ORIENTED_EDGE('',*,*,#788,.T.);
#786=EDGE_CURVE('',#63,#79,#789,.F.);
#787=EDGE_CURVE('',#79,#67,#790,.T.);
#788=EDGE_CURVE('',#67,#63,#791,.T.);
#789=LINE('',#62,#792);
#790=LINE('',#78,#793);
#791=LINE('',#66,#794);
#792=VECTOR('',#795,1.0);
#793=VECTOR('',#796,1.0);
#794=VECTOR('',#797,1.0);
#795=DIRECTION('',(0,0.9965268111323116,-0.083272532653127));
#796=DIRECTION('',(0,-0.9999999999999999,-1.9073483417742396E-08));
#797=DIRECTION('',(0,0,1));
#798=FACE_SURFACE('',(#803),#799,.T.);
#799=PLANE('',#800);
#800=AXIS2_PLACEMENT_3D('',#64,#801,#802);
#801=DIRECTION('',(1,0,0));
#802=DIRECTION('',(0,0.9999999999999999,1.9073483417742396E-08));
#803=FACE_BOUND('',#804,.T.);
#804=EDGE_LOOP('',(#805,#806,#807));
#805=ORIENTED_EDGE('',*,*,#808,.T.);
#806=ORIENTED_EDGE('',*,*,#809,.T.);
#807=ORIENTED_EDGE('',*,*,#810,.T.);
#808=EDGE_CURVE('',#65,#75,#811,.F.);
#809=EDGE_CURVE('',#75,#73,#812,.T.);
#810=EDGE_CURVE('',#73,#65,#813,.T.);
#811=LINE('',#64,#814);
#812=LINE('',#74,#815);
#813=LINE('',#72,#816);
#814=VECTOR('',#817,1.0);
#815=VECTOR('',#818,1.0);
#816=VECTOR('',#819,1.0);
#817=DIRECTION('',(0,0.9999999999999999,1.9073483417742396E-08));
#818=DIRECTION('',(0,0,1));
#819=DIRECTION('',(0,-0.9965268095550279,-0.08327255152856239));
#820=FACE_SURFACE('',(#825),#821,.T.);
#821=PLANE('',#822);
#822=AXIS2_PLACEMENT_3D('',#64,#823,#824);
#823=DIRECTION('',(1,0,0));
#824=DIRECTION('',(0,0.9965268095550279,0.08327255152856239));
#825=FACE_BOUND('',#826,.T.);
#826=EDGE_LOOP('',(#827,#828,#829));
#827=ORIENTED_EDGE('',*,*,#830,.T.);
#828=ORIENTED_EDGE('',*,*,#831,.T.);
#829=ORIENTED_EDGE('',*,*,#832,.T.);
#830=EDGE_CURVE('',#65,#73,#833,.F.);
#831=EDGE_CURVE('',#73,#59,#834,.T.);
#832=EDGE_CURVE('',#59,#65,#835,.T.);
#833=LINE('',#64,#836);
#834=LINE('',#72,#837);
#835=LINE('',#58,#838);
#836=VECTOR('',#839,1.0);
#837=VECTOR('',#840,1.0);
#838=VECTOR('',#841,1.0);
#839=DIRECTION('',(0,0.9965268095550279,0.08327255152856239));
#840=DIRECTION('',(0,-0.9999999999999999,1.9073483417742396E-08));
#841=DIRECTION('',(0,0,-1));
#842=FACE_SURFACE('',(#847),#843,.T.);
#843=PLANE('',#844);
#844=AXIS2_PLACEMENT_3D('',#50,#845,#846);
#845=DIRECTION('',(1,0,0));
#846=DIRECTION('',(0,1,0));
#847=FACE_BOUND('',#848,.T.);
#848=EDGE_LOOP('',(#849,#850,#851));
#849=ORIENTED_EDGE('',*,*,#852,.T.);
#850=ORIENTED_EDGE('',*,*,#853,.T.);
#851=ORIENTED_EDGE('',*,*,#854,.T.);
#852=EDGE_CURVE('',#51,#57,#855,.F.);
#853=EDGE_CURVE('',#57,#83,#856,.T.);
#854=EDGE_CURVE('',#83,#51,#857,.T.);
#855=LINE('',#50,#858);
#856=LINE('',#56,#859);
#857=LINE('',#82,#860);
#858=VECTOR('',#861,1.0);
#859=VECTOR('',#862,1.0);
#860=VECTOR('',#863,1.0);
#861=DIRECTION('',(0,1,0));
#862=DIRECTION('',(0,0,1));
#863=DIRECTION('',(0,-0.9992570936622932,-0.03853908101638011));
#864=FACE_SURFACE('',(#869),#865,.T.);
#865=PLANE('',#866);
#866=AXIS2_PLACEMENT_3D('',#50,#867,#868);
#867=DIRECTION('',(1,0,0));
#868=DIRECTION('',(0,0.9992570936622932,0.03853908101638011));
#869=FACE_BOUND('',#870,.T.);
#870=EDGE_LOOP('',(#871,#872,#873));
#871=ORIENTED_EDGE('',*,*,#874,.T.);
#872=ORIENTED_EDGE('',*,*,#875,.T.);
#873=ORIENTED_EDGE('',*,*,#876,.T.);
#874=EDGE_CURVE('',#51,#83,#877,.F.);
#875=EDGE_CURVE('',#83,#85,#878,.T.);
#876=EDGE_CURVE('',#85,#51,#879,.T.);
#877=LINE('',#50,#880);
#878=LINE('',#82,#881);
#879=LINE('',#84,#882);
#880=VECTOR('',#883,1.0);
#881=VECTOR('',#884,1.0);
#882=VECTOR('',#885,1.0);
#883=DIRECTION('',(0,0.9992570936622932,0.03853908101638011));
#884=DIRECTION('',(0,-1,0));
#885=DIRECTION('',(0,0,-1));
#886=FACE_SURFACE('',(#891),#887,.T.);
#887=PLANE('',#888);
#888=AXIS2_PLACEMENT_3D('',#64,#889,#890);
#889=DIRECTION('',(1.3412535248142512E-07,0,-0.999999999999991));
#890=DIRECTION('',(-0.665125941786326,-0.74673119766275,-8.921025138663162E-08));
#891=FACE_BOUND('',#892,.T.);
#892=EDGE_LOOP('',(#893,#894,#895));
#893=ORIENTED_EDGE('',*,*,#896,.T.);
#894=ORIENTED_EDGE('',*,*,#897,.T.);
#895=ORIENTED_EDGE('',*,*,#898,.T.);
#896=EDGE_CURVE('',#65,#85,#899,.F.);
#897=EDGE_CURVE('',#85,#83,#900,.T.);
#898=EDGE_CURVE('',#83,#65,#901,.T.);
#899=LINE('',#64,#902);
#900=LINE('',#84,#903);
#901=LINE('',#82,#904);
#902=VECTOR('',#905,1.0);
#903=VECTOR('',#906,1.0);
#904=VECTOR('',#907,1.0);
#905=DIRECTION('',(-0.665125941786326,-0.74673119766275,-8.921025138663162E-08));
#906=DIRECTION('',(0,1,0));
#907=DIRECTION('',(0.12171660394844623,-0.9925648937592226,1.6325282407427516E-08));
#908=FACE_SURFACE('',(#913),#909,.T.);
#909=PLANE('',#910);
#910=AXIS2_PLACEMENT_3D('',#64,#911,#912);
#911=DIRECTION('',(2.8966428002303694E-07,1.9073483417741595E-08,-0.9999999999999579));
#912=DIRECTION('',(-0.12171660394844623,0.9925648937592226,-1.6325282407427516E-08));
#913=FACE_BOUND('',#914,.T.);
#914=EDGE_LOOP('',(#915,#916,#917));
#915=ORIENTED_EDGE('',*,*,#918,.T.);
#916=ORIENTED_EDGE('',*,*,#919,.T.);
#917=ORIENTED_EDGE('',*,*,#920,.T.);
#918=EDGE_CURVE('',#65,#83,#921,.F.);
#919=EDGE_CURVE('',#83,#75,#922,.T.);
#920=EDGE_CURVE('',#75,#65,#923,.T.);
#921=LINE('',#64,#924);
#922=LINE('',#82,#925);
#923=LINE('',#74,#926);
#924=VECTOR('',#927,1.0);
#925=VECTOR('',#928,1.0);
#926=VECTOR('',#929,1.0);
#927=DIRECTION('',(-0.12171660394844623,0.9925648937592226,-1.6325282407427516E-08));
#928=DIRECTION('',(0.6651270051813003,-0.7467302504777228,1.7842078802971474E-07));
#929=DIRECTION('',(0,-0.9999999999999999,-1.9073483417742396E-08));
#930=FACE_SURFACE('',(#935),#931,.T.);
#931=PLANE('',#932);
#932=AXIS2_PLACEMENT_3D('',#54,#933,#934);
#933=DIRECTION('',(-1,0,0));
#934=DIRECTION('',(0,-1,0));
#935=FACE_BOUND('',#936,.T.);
#936=EDGE_LOOP('',(#937,#938,#939));
#937=ORIENTED_EDGE('',*,*,#940,.T.);
#938=ORIENTED_EDGE('',*,*,#941,.T.);
#939=ORIENTED_EDGE('',*,*,#942,.T.);
#940=EDGE_CURVE('',#55,#53,#943,.F.);
#941=EDGE_CURVE('',#53,#87,#944,.T.);
#942=EDGE_CURVE('',#87,#55,#945,.T.);
#943=LINE('',#54,#946);
#944=LINE('',#52,#947);
#945=LINE('',#86,#948);
#946=VECTOR('',#949,1.0);
#947=VECTOR('',#950,1.0);
#948=VECTOR('',#951,1.0);
#949=DIRECTION('',(0,-1,0));
#950=DIRECTION('',(0,0,1));
#951=DIRECTION('',(0,0.9992570925496138,-0.03853910986637545));
#952=FACE_SURFACE('',(#957),#953,.T.);
#953=PLANE('',#954);
#954=AXIS2_PLACEMENT_3D('',#54,#955,#956);
#955=DIRECTION('',(-1,0,0));
#956=DIRECTION('',(0,-0.9992570925496138,0.03853910986637545));
#957=FACE_BOUND('',#958,.T.);
#958=EDGE_LOOP('',(#959,#960,#961));
#959=ORIENTED_EDGE('',*,*,#962,.T.);
#960=ORIENTED_EDGE('',*,*,#963,.T.);
#961=ORIENTED_EDGE('',*,*,#964,.T.);
#962=EDGE_CURVE('',#55,#87,#965,.F.);
#963=EDGE_CURVE('',#87,#89,#966,.T.);
#964=EDGE_CURVE('',#89,#55,#967,.T.);
#965=LINE('',#54,#968);
#966=LINE('',#86,#969);
#967=LINE('',#88,#970);
#968=VECTOR('',#971,1.0);
#969=VECTOR('',#972,1.0);
#970=VECTOR('',#973,1.0);
#971=DIRECTION('',(0,-0.9992570925496138,0.03853910986637545));
#972=DIRECTION('',(0,1,0));
#973=DIRECTION('',(0,0,-1));
#974=FACE_SURFACE('',(#979),#975,.T.);
#975=PLANE('',#976);
#976=AXIS2_PLACEMENT_3D('',#78,#977,#978);
#977=DIRECTION('',(-9.892120490775748E-08,0,-0.9999999999999952));
#978=DIRECTION('',(0.7702324489701102,0.6377632590181882,-7.61923219111765E-08));
#979=FACE_BOUND('',#980,.T.);
#980=EDGE_LOOP('',(#981,#982,#983));
#981=ORIENTED_EDGE('',*,*,#984,.T.);
#982=ORIENTED_EDGE('',*,*,#985,.T.);
#983=ORIENTED_EDGE('',*,*,#986,.T.);
#984=EDGE_CURVE('',#79,#89,#987,.F.);
#985=EDGE_CURVE('',#89,#87,#988,.T.);
#986=EDGE_CURVE('',#87,#79,#989,.T.);
#987=LINE('',#78,#990);
#988=LINE('',#88,#991);
#989=LINE('',#86,#992);
#990=VECTOR('',#993,1.0);
#991=VECTOR('',#994,1.0);
#992=VECTOR('',#995,1.0);
#993=DIRECTION('',(0.7702324489701102,0.6377632590181882,-7.61923219111765E-08));
#994=DIRECTION('',(0,-1,0));
#995=DIRECTION('',(-0.16401764082079295,0.9864574058212453,1.6224822656120705E-08));
#996=FACE_SURFACE('',(#1001),#997,.T.);
#997=PLANE('',#998);
#998=AXIS2_PLACEMENT_3D('',#78,#999,#1000);
#999=DIRECTION('',(1.5793156779704222E-08,1.9073483417742392E-08,-0.9999999999999997));
#1000=DIRECTION('',(0.16401764082079295,-0.9864574058212453,-1.6224822656120705E-08));
#1001=FACE_BOUND('',#1002,.T.);
#1002=EDGE_LOOP('',(#1003,#1004,#1005));
#1003=ORIENTED_EDGE('',*,*,#1006,.T.);
#1004=ORIENTED_EDGE('',*,*,#1007,.T.);
#1005=ORIENTED_EDGE('',*,*,#1008,.T.);
#1006=EDGE_CURVE('',#79,#87,#1009,.F.);
#1007=EDGE_CURVE('',#87,#67,#1010,.T.);
#1008=EDGE_CURVE('',#67,#79,#1011,.T.);
#1009=LINE('',#78,#1012);
#1010=LINE('',#86,#1013);
#1011=LINE('',#66,#1014);
#1012=VECTOR('',#1015,1.0);
#1013=VECTOR('',#1016,1.0);
#1014=VECTOR('',#1017,1.0);
#1015=DIRECTION('',(0.16401764082079295,-0.9864574058212453,-1.6224822656120705E-08));
#1016=DIRECTION('',(-0.7702315507068865,0.6377643438572472,0));
#1017=DIRECTION('',(0,0.9999999999999999,1.9073483417742396E-08));
#1018=FACE_SURFACE('',(#1023),#1019,.T.);
#1019=PLANE('',#1020);
#1020=AXIS2_PLACEMENT_3D('',#56,#1021,#1022);
#1021=DIRECTION('',(0,-1,0));
#1022=DIRECTION('',(1,0,0));
#1023=FACE_BOUND('',#1024,.T.);
#1024=EDGE_LOOP('',(#1025,#1026,#1027));
#1025=ORIENTED_EDGE('',*,*,#1028,.T.);
#1026=ORIENTED_EDGE('',*,*,#1029,.T.);
#1027=ORIENTED_EDGE('',*,*,#1030,.T.);
#1028=EDGE_CURVE('',#57,#55,#1031,.F.);
#1029=EDGE_CURVE('',#55,#89,#1032,.T.);
#1030=EDGE_CURVE('',#89,#57,#1033,.T.);
#1031=LINE('',#56,#1034);
#1032=LINE('',#54,#1035);
#1033=LINE('',#88,#1036);
#1034=VECTOR('',#1037,1.0);
#1035=VECTOR('',#1038,1.0);
#1036=VECTOR('',#1039,1.0);
#1037=DIRECTION('',(1,0,0));
#1038=DIRECTION('',(0,0,1));
#1039=DIRECTION('',(-0.9998389750681588,0,-0.017945025345590043));
#1040=FACE_SURFACE('',(#1045),#1041,.T.);
#1041=PLANE('',#1042);
#1042=AXIS2_PLACEMENT_3D('',#56,#1043,#1044);
#1043=DIRECTION('',(0,-1,0));
#1044=DIRECTION('',(0.9998389750681588,0,0.017945025345590043));
#1045=FACE_BOUND('',#1046,.T.);
#1046=EDGE_LOOP('',(#1047,#1048,#1049));
#1047=ORIENTED_EDGE('',*,*,#1050,.T.);
#1048=ORIENTED_EDGE('',*,*,#1051,.T.);
#1049=ORIENTED_EDGE('',*,*,#1052,.T.);
#1050=EDGE_CURVE('',#57,#89,#1053,.F.);
#1051=EDGE_CURVE('',#89,#91,#1054,.T.);
#1052=EDGE_CURVE('',#91,#57,#1055,.T.);
#1053=LINE('',#56,#1056);
#1054=LINE('',#88,#1057);
#1055=LINE('',#90,#1058);
#1056=VECTOR('',#1059,1.0);
#1057=VECTOR('',#1060,1.0);
#1058=VECTOR('',#1061,1.0);
#1059=DIRECTION('',(0.9998389750681588,0,0.017945025345590043));
#1060=DIRECTION('',(-1,0,0));
#1061=DIRECTION('',(0,0,-1));
#1062=FACE_SURFACE('',(#1067),#1063,.T.);
#1063=PLANE('',#1064);
#1064=AXIS2_PLACEMENT_3D('',#52,#1065,#1066);
#1065=DIRECTION('',(0,1,0));
#1066=DIRECTION('',(-1,0,0));
#1067=FACE_BOUND('',#1068,.T.);
#1068=EDGE_LOOP('',(#1069,#1070,#1071));
#1069=ORIENTED_EDGE('',*,*,#1072,.T.);
#1070=ORIENTED_EDGE('',*,*,#1073,.T.);
#1071=ORIENTED_EDGE('',*,*,#1074,.T.);
#1072=EDGE_CURVE('',#53,#51,#1075,.F.);
#1073=EDGE_CURVE('',#51,#93,#1076,.T.);
#1074=EDGE_CURVE('',#93,#53,#1077,.T.);
#1075=LINE('',#52,#1078);
#1076=LINE('',#50,#1079);
#1077=LINE('',#92,#1080);
#1078=VECTOR('',#1081,1.0);
#1079=VECTOR('',#1082,1.0);
#1080=VECTOR('',#1083,1.0);
#1081=DIRECTION('',(-1,0,0));
#1082=DIRECTION('',(0,0,1));
#1083=DIRECTION('',(0.9998389750681588,0,-0.017945025345590043));
#1084=FACE_SURFACE('',(#1089),#1085,.T.);
#1085=PLANE('',#1086);
#1086=AXIS2_PLACEMENT_3D('',#52,#1087,#1088);
#1087=DIRECTION('',(0,1,-0));
#1088=DIRECTION('',(-0.9998389750681588,0,0.017945025345590043));
#1089=FACE_BOUND('',#1090,.T.);
#1090=EDGE_LOOP('',(#1091,#1092,#1093));
#1091=ORIENTED_EDGE('',*,*,#1094,.T.);
#1092=ORIENTED_EDGE('',*,*,#1095,.T.);
#1093=ORIENTED_EDGE('',*,*,#1096,.T.);
#1094=EDGE_CURVE('',#53,#93,#1097,.F.);
#1095=EDGE_CURVE('',#93,#87,#1098,.T.);
#1096=EDGE_CURVE('',#87,#53,#1099,.T.);
#1097=LINE('',#52,#1100);
#1098=LINE('',#92,#1101);
#1099=LINE('',#86,#1102);
#1100=VECTOR('',#1103,1.0);
#1101=VECTOR('',#1104,1.0);
#1102=VECTOR('',#1105,1.0);
#1103=DIRECTION('',(-0.9998389750681588,0,0.017945025345590043));
#1104=DIRECTION('',(1,0,0));
#1105=DIRECTION('',(0,0,-1));
#1106=FACE_SURFACE('',(#1111),#1107,.T.);
#1107=PLANE('',#1108);
#1108=AXIS2_PLACEMENT_3D('',#66,#1109,#1110);
#1109=DIRECTION('',(0,-0,-1));
#1110=DIRECTION('',(0.7702315507068865,-0.6377643438572472,0));
#1111=FACE_BOUND('',#1112,.T.);
#1112=EDGE_LOOP('',(#1113,#1114,#1115));
#1113=ORIENTED_EDGE('',*,*,#1116,.T.);
#1114=ORIENTED_EDGE('',*,*,#1117,.T.);
#1115=ORIENTED_EDGE('',*,*,#1118,.T.);
#1116=EDGE_CURVE('',#67,#87,#1119,.F.);
#1117=EDGE_CURVE('',#87,#93,#1120,.T.);
#1118=EDGE_CURVE('',#93,#67,#1121,.T.);
#1119=LINE('',#66,#1122);
#1120=LINE('',#86,#1123);
#1121=LINE('',#92,#1124);
#1122=VECTOR('',#1125,1.0);
#1123=VECTOR('',#1126,1.0);
#1124=VECTOR('',#1127,1.0);
#1125=DIRECTION('',(0.7702315507068865,-0.6377643438572472,0));
#1126=DIRECTION('',(-1,0,0));
#1127=DIRECTION('',(0.9981794266208176,0.06031444496085258,0));
#1128=FACE_SURFACE('',(#1133),#1129,.T.);
#1129=PLANE('',#1130);
#1130=AXIS2_PLACEMENT_3D('',#66,#1131,#1132);
#1131=DIRECTION('',(8.514781046832983E-09,-1.4091614817389194E-07,-0.9999999999999901));
#1132=DIRECTION('',(-0.9981794266208176,-0.06031444496085258,0));
#1133=FACE_BOUND('',#1134,.T.);
#1134=EDGE_LOOP('',(#1135,#1136,#1137));
#1135=ORIENTED_EDGE('',*,*,#1138,.T.);
#1136=ORIENTED_EDGE('',*,*,#1139,.T.);
#1137=ORIENTED_EDGE('',*,*,#1140,.T.);
#1138=EDGE_CURVE('',#67,#93,#1141,.F.);
#1139=EDGE_CURVE('',#93,#69,#1142,.T.);
#1140=EDGE_CURVE('',#69,#67,#1143,.T.);
#1141=LINE('',#66,#1144);
#1142=LINE('',#92,#1145);
#1143=LINE('',#68,#1146);
#1144=VECTOR('',#1147,1.0);
#1145=VECTOR('',#1148,1.0);
#1146=VECTOR('',#1149,1.0);
#1147=DIRECTION('',(-0.9981794266208176,-0.06031444496085258,0));
#1148=DIRECTION('',(0.9294388797990676,0.36897610860034347,-4.40807234342497E-08));
#1149=DIRECTION('',(1,0,8.514781046833067E-09));
#1150=FACE_SURFACE('',(#1155),#1151,.T.);
#1151=PLANE('',#1152);
#1152=AXIS2_PLACEMENT_3D('',#74,#1153,#1154);
#1153=DIRECTION('',(0,0,-1));
#1154=DIRECTION('',(-0.665127005181311,0.7467302504777347,0));
#1155=FACE_BOUND('',#1156,.T.);
#1156=EDGE_LOOP('',(#1157,#1158,#1159));
#1157=ORIENTED_EDGE('',*,*,#1160,.T.);
#1158=ORIENTED_EDGE('',*,*,#1161,.T.);
#1159=ORIENTED_EDGE('',*,*,#1162,.T.);
#1160=EDGE_CURVE('',#75,#91,#1163,.F.);
#1161=EDGE_CURVE('',#91,#89,#1164,.T.);
#1162=EDGE_CURVE('',#89,#75,#1165,.T.);
#1163=LINE('',#74,#1166);
#1164=LINE('',#90,#1167);
#1165=LINE('',#88,#1168);
#1166=VECTOR('',#1169,1.0);
#1167=VECTOR('',#1170,1.0);
#1168=VECTOR('',#1171,1.0);
#1169=DIRECTION('',(-0.665127005181311,0.7467302504777347,0));
#1170=DIRECTION('',(1,0,0));
#1171=DIRECTION('',(-0.9982470468206794,-0.059184740548492154,0));
#1172=FACE_SURFACE('',(#1177),#1173,.T.);
#1173=PLANE('',#1174);
#1174=AXIS2_PLACEMENT_3D('',#74,#1175,#1176);
#1175=DIRECTION('',(8.51478104683298E-09,-1.4361565085110888E-07,-0.9999999999999897));
#1176=DIRECTION('',(0.9982470468206794,0.059184740548492154,0));
#1177=FACE_BOUND('',#1178,.T.);
#1178=EDGE_LOOP('',(#1179,#1180,#1181));
#1179=ORIENTED_EDGE('',*,*,#1182,.T.);
#1180=ORIENTED_EDGE('',*,*,#1183,.T.);
#1181=ORIENTED_EDGE('',*,*,#1184,.T.);
#1182=EDGE_CURVE('',#75,#89,#1185,.F.);
#1183=EDGE_CURVE('',#89,#77,#1186,.T.);
#1184=EDGE_CURVE('',#77,#75,#1187,.T.);
#1185=LINE('',#74,#1188);
#1186=LINE('',#88,#1189);
#1187=LINE('',#76,#1190);
#1188=VECTOR('',#1191,1.0);
#1189=VECTOR('',#1192,1.0);
#1190=VECTOR('',#1193,1.0);
#1191=DIRECTION('',(0.9982470468206794,0.059184740548492154,0));
#1192=DIRECTION('',(-0.9430872205077419,-0.3325454773635934,3.972855397847585E-08));
#1193=DIRECTION('',(-1,0,-8.514781046833067E-09));
#1194=FACE_SURFACE('',(#1199),#1195,.T.);
#1195=PLANE('',#1196);
#1196=AXIS2_PLACEMENT_3D('',#76,#1197,#1198);
#1197=DIRECTION('',(NaN,NaN,NaN));
#1198=DIRECTION('',(0.9430872205077419,0.3325454773635934,-3.972855397847585E-08));
#1199=FACE_BOUND('',#1200,.T.);
#1200=EDGE_LOOP('',(#1201,#1202,#1203));
#1201=ORIENTED_EDGE('',*,*,#1204,.T.);
#1202=ORIENTED_EDGE('',*,*,#1205,.T.);
#1203=ORIENTED_EDGE('',*,*,#1206,.T.);
#1204=EDGE_CURVE('',#77,#89,#1207,.F.);
#1205=EDGE_CURVE('',#89,#89,#1208,.T.);
#1206=EDGE_CURVE('',#89,#77,#1209,.T.);
#1207=LINE('',#76,#1210);
#1208=LINE('',#88,#1211);
#1209=LINE('',#88,#1212);
#1210=VECTOR('',#1213,1.0);
#1211=VECTOR('',#1214,1.0);
#1212=VECTOR('',#1215,1.0);
#1213=DIRECTION('',(0.9430872205077419,0.3325454773635934,-3.972855397847585E-08));
#1214=DIRECTION('',(NaN,NaN,NaN));
#1215=DIRECTION('',(-0.9430872205077419,-0.3325454773635934,3.972855397847585E-08));
#1216=FACE_SURFACE('',(#1221),#1217,.T.);
#1217=PLANE('',#1218);
#1218=AXIS2_PLACEMENT_3D('',#76,#1219,#1220);
#1219=DIRECTION('',(0,-1.1946803274379756E-07,-0.9999999999999929));
#1220=DIRECTION('',(0.9430872205077419,0.3325454773635934,-3.972855397847585E-08));
#1221=FACE_BOUND('',#1222,.T.);
#1222=EDGE_LOOP('',(#1223,#1224,#1225));
#1223=ORIENTED_EDGE('',*,*,#1226,.T.);
#1224=ORIENTED_EDGE('',*,*,#1227,.T.);
#1225=ORIENTED_EDGE('',*,*,#1228,.T.);
#1226=EDGE_CURVE('',#77,#89,#1229,.F.);
#1227=EDGE_CURVE('',#89,#79,#1230,.T.);
#1228=EDGE_CURVE('',#79,#77,#1231,.T.);
#1229=LINE('',#76,#1232);
#1230=LINE('',#88,#1233);
#1231=LINE('',#78,#1234);
#1232=VECTOR('',#1235,1.0);
#1233=VECTOR('',#1236,1.0);
#1234=VECTOR('',#1237,1.0);
#1235=DIRECTION('',(0.9430872205077419,0.3325454773635934,-3.972855397847585E-08));
#1236=DIRECTION('',(-0.7702324489701102,-0.6377632590181882,7.61923219111765E-08));
#1237=DIRECTION('',(-1,0,0));
#1238=FACE_SURFACE('',(#1243),#1239,.T.);
#1239=PLANE('',#1240);
#1240=AXIS2_PLACEMENT_3D('',#92,#1241,#1242);
#1241=DIRECTION('',(NaN,NaN,NaN));
#1242=DIRECTION('',(0,0,-1));
#1243=FACE_BOUND('',#1244,.T.);
#1244=EDGE_LOOP('',(#1245,#1246,#1247));
#1245=ORIENTED_EDGE('',*,*,#1248,.T.);
#1246=ORIENTED_EDGE('',*,*,#1249,.T.);
#1247=ORIENTED_EDGE('',*,*,#1250,.T.);
#1248=EDGE_CURVE('',#93,#51,#1251,.F.);
#1249=EDGE_CURVE('',#51,#85,#1252,.T.);
#1250=EDGE_CURVE('',#85,#93,#1253,.T.);
#1251=LINE('',#92,#1254);
#1252=LINE('',#50,#1255);
#1253=LINE('',#84,#1256);
#1254=VECTOR('',#1257,1.0);
#1255=VECTOR('',#1258,1.0);
#1256=VECTOR('',#1259,1.0);
#1257=DIRECTION('',(0,0,-1));
#1258=DIRECTION('',(0,0,1));
#1259=DIRECTION('',(0,0,1));
#1260=FACE_SURFACE('',(#1265),#1261,.T.);
#1261=PLANE('',#1262);
#1262=AXIS2_PLACEMENT_3D('',#68,#1263,#1264);
#1263=DIRECTION('',(0.36897610860034386,-0.9294388797990686,0));
#1264=DIRECTION('',(-0.9294388797990676,-0.36897610860034347,4.40807234342497E-08));
#1265=FACE_BOUND('',#1266,.T.);
#1266=EDGE_LOOP('',(#1267,#1268,#1269));
#1267=ORIENTED_EDGE('',*,*,#1270,.T.);
#1268=ORIENTED_EDGE('',*,*,#1271,.T.);
#1269=ORIENTED_EDGE('',*,*,#1272,.T.);
#1270=EDGE_CURVE('',#69,#93,#1273,.F.);
#1271=EDGE_CURVE('',#93,#85,#1274,.T.);
#1272=EDGE_CURVE('',#85,#69,#1275,.T.);
#1273=LINE('',#68,#1276);
#1274=LINE('',#92,#1277);
#1275=LINE('',#84,#1278);
#1276=VECTOR('',#1279,1.0);
#1277=VECTOR('',#1280,1.0);
#1278=VECTOR('',#1281,1.0);
#1279=DIRECTION('',(-0.9294388797990676,-0.36897610860034347,4.40807234342497E-08));
#1280=DIRECTION('',(0,0,-1));
#1281=DIRECTION('',(0.9294388797990676,0.36897610860034347,4.40807234342497E-08));
#1282=FACE_SURFACE('',(#1287),#1283,.T.);
#1283=PLANE('',#1284);
#1284=AXIS2_PLACEMENT_3D('',#68,#1285,#1286);
#1285=DIRECTION('',(0,1.1946769020211935E-07,-0.9999999999999929));
#1286=DIRECTION('',(-0.9294388797990676,-0.36897610860034347,-4.40807234342497E-08));
#1287=FACE_BOUND('',#1288,.T.);
#1288=EDGE_LOOP('',(#1289,#1290,#1291));
#1289=ORIENTED_EDGE('',*,*,#1292,.T.);
#1290=ORIENTED_EDGE('',*,*,#1293,.T.);
#1291=ORIENTED_EDGE('',*,*,#1294,.T.);
#1292=EDGE_CURVE('',#69,#85,#1295,.F.);
#1293=EDGE_CURVE('',#85,#65,#1296,.T.);
#1294=EDGE_CURVE('',#65,#69,#1297,.T.);
#1295=LINE('',#68,#1298);
#1296=LINE('',#84,#1299);
#1297=LINE('',#64,#1300);
#1298=VECTOR('',#1301,1.0);
#1299=VECTOR('',#1302,1.0);
#1300=VECTOR('',#1303,1.0);
#1301=DIRECTION('',(-0.9294388797990676,-0.36897610860034347,-4.40807234342497E-08));
#1302=DIRECTION('',(0.665125941786326,0.74673119766275,8.921025138663162E-08));
#1303=DIRECTION('',(1,0,0));
ENDSEC;
END-ISO-10303-21;
