ISO-10303-21;
HEADER;
FILE_DESCRIPTION((''),'2;1');
FILE_NAME('support of the memory', '2026-07-30T23:49:37', (''), (''), 'ImageToStl.com STEP Converter','', '');
FILE_SCHEMA(('AUTOMOTIVE_DESIGN_CC2'));
ENDSEC;
DATA;
#1=PRODUCT_DEFINITION_CONTEXT('',#4,'design');
#2=APPLICATION_PROTOCOL_DEFINITION('INTERNATIONAL STANDARD','automotive_design',1994,#4);
#3=(GEOMETRIC_REPRESENTATION_CONTEXT(3)GLOBAL_UNCERTAINTY_ASSIGNED_CONTEXT((#5))GLOBAL_UNIT_ASSIGNED_CONTEXT((#6,#7,#8))REPRESENTATION_CONTEXT('NONE','WORKSPACE'));
#4=APPLICATION_CONTEXT(' ');
#5=UNCERTAINTY_MEASURE_WITH_UNIT(LENGTH_MEASURE(1.0E-006),#6,'','');
#6=(CONVERSION_BASED_UNIT('METRE',#10)LENGTH_UNIT()NAMED_UNIT(#11));
#7=(NAMED_UNIT(#12)PLANE_ANGLE_UNIT()SI_UNIT($,.RADIAN.));
#8=(NAMED_UNIT(#12)SOLID_ANGLE_UNIT()SI_UNIT($,.STERADIAN.));
#9=AXIS2_PLACEMENT_3D('',#14,#15,#16);
#10=LENGTH_MEASURE_WITH_UNIT(LENGTH_MEASURE(1.0),#17);
#11=DIMENSIONAL_EXPONENTS(1.0,0.0,0.0,0.0,0.0,0.0,0.0);
#12=DIMENSIONAL_EXPONENTS(0.0,0.0,0.0,0.0,0.0,0.0,0.0);
#13=PRODUCT_CONTEXT('',#4,'mechanical');
#14=CARTESIAN_POINT('',(0.0,0.0,0.0));
#15=DIRECTION('',(0.0,0.0,1.0));
#16=DIRECTION('',(1.0,0.0,0.0));
#17=(NAMED_UNIT(#11)LENGTH_UNIT()SI_UNIT(.MILLI.,.METRE.));
#18=PRESENTATION_STYLE_ASSIGNMENT((#19));
#19=SURFACE_STYLE_USAGE(.BOTH.,#20);
#20=SURFACE_SIDE_STYLE('',(#21));
#21=SURFACE_STYLE_FILL_AREA(#22);
#22=FILL_AREA_STYLE('',(#23));
#23=FILL_AREA_STYLE_COLOUR('',#24);
#24=COLOUR_RGB('',0.9,0.9,0.9);
#25=SHAPE_DEFINITION_REPRESENTATION(#26,#27);
#26=PRODUCT_DEFINITION_SHAPE('productshape0','',#30);
#27=MANIFOLD_SURFACE_SHAPE_REPRESENTATION('',(#28,#9),#3);
#28=SHELL_BASED_SURFACE_MODEL('shell0',(#33));
#29=PRODUCT('product0','','',(#13));
#30=PRODUCT_DEFINITION('mesh0','',#31,#2);
#31=PRODUCT_DEFINITION_FORMATION_WITH_SPECIFIED_SOURCE('prodsource0','',#29,.NOT_KNOWN.);
#32=STYLED_ITEM('',(#18),#33);
#33=CLOSED_SHELL('',(#126,#148,#170,#192,#214,#236,#258,#280,#302,#324,#346,#368,#390,#412,#434,#456,#478,#500,#522,#544,#566,#588,#610,#632,#654,#676,#698,#720,#742,#764,#786,#808,#830,#852,#874,#896,#918,#940,#962,#984,#1006,#1028,#1050,#1072,#1094,#1116,#1138,#1160,#1182,#1204,#1226,#1248,#1270,#1292,#1314,#1336,#1358,#1380,#1402,#1424,#1446,#1468,#1490,#1512,#1534,#1556,#1578,#1600,#1622,#1644,#1666,#1688,#1710,#1732,#1754,#1776,#1798,#1820,#1842,#1864,#1886,#1908,#1930,#1952,#1974,#1996,#2018,#2040,#2062,#2084,#2106,#2128,#2150,#2172,#2194,#2216,#2238,#2260,#2282,#2304));
#34=CARTESIAN_POINT('',(96.8781509399414,-158.58270263671875,33.197410583496094));
#35=VERTEX_POINT('',#34);
#36=CARTESIAN_POINT('',(96.8781509399414,-92.61734008789062,33.197410583496094));
#37=VERTEX_POINT('',#36);
#38=CARTESIAN_POINT('',(96.8781509399414,-92.61734008789062,43.21709442138672));
#39=VERTEX_POINT('',#38);
#40=CARTESIAN_POINT('',(96.8781509399414,-158.58270263671875,43.21709442138672));
#41=VERTEX_POINT('',#40);
#42=CARTESIAN_POINT('',(96.8781509399414,-158.58270263671875,13.59343147277832));
#43=VERTEX_POINT('',#42);
#44=CARTESIAN_POINT('',(96.8781509399414,-92.61734008789062,13.59343147277832));
#45=VERTEX_POINT('',#44);
#46=CARTESIAN_POINT('',(-44.872947692871094,-137.5338592529297,29.85991859436035));
#47=VERTEX_POINT('',#46);
#48=CARTESIAN_POINT('',(-44.872947692871094,-137.5338592529297,13.59343147277832));
#49=VERTEX_POINT('',#48);
#50=CARTESIAN_POINT('',(-44.872947692871094,-158.58270263671875,13.59343147277832));
#51=VERTEX_POINT('',#50);
#52=CARTESIAN_POINT('',(-44.872947692871094,-92.61734008789062,33.197410583496094));
#53=VERTEX_POINT('',#52);
#54=CARTESIAN_POINT('',(-44.872947692871094,-92.61734008789062,13.59343147277832));
#55=VERTEX_POINT('',#54);
#56=CARTESIAN_POINT('',(-44.872947692871094,-113.66618347167969,13.59343147277832));
#57=VERTEX_POINT('',#56);
#58=CARTESIAN_POINT('',(-44.872947692871094,-113.66618347167969,29.85991859436035));
#59=VERTEX_POINT('',#58);
#60=CARTESIAN_POINT('',(-44.872947692871094,-158.58270263671875,33.197410583496094));
#61=VERTEX_POINT('',#60);
#62=CARTESIAN_POINT('',(-31.430269241333008,-137.5338592529297,29.85991668701172));
#63=VERTEX_POINT('',#62);
#64=CARTESIAN_POINT('',(-31.430269241333008,-137.5338592529297,29.85991859436035));
#65=VERTEX_POINT('',#64);
#66=CARTESIAN_POINT('',(-31.430269241333008,-113.66618347167969,29.85991859436035));
#67=VERTEX_POINT('',#66);
#68=CARTESIAN_POINT('',(-31.430269241333008,-113.66618347167969,29.85991668701172));
#69=VERTEX_POINT('',#68);
#70=CARTESIAN_POINT('',(-37.76262664794922,-137.5338592529297,13.59343147277832));
#71=VERTEX_POINT('',#70);
#72=CARTESIAN_POINT('',(-37.76262664794922,-137.5338592529297,25.115800857543945));
#73=VERTEX_POINT('',#72);
#74=CARTESIAN_POINT('',(-37.76262664794922,-137.5338592529297,29.85991668701172));
#75=VERTEX_POINT('',#74);
#76=CARTESIAN_POINT('',(-37.76262664794922,-113.66618347167969,13.59343147277832));
#77=VERTEX_POINT('',#76);
#78=CARTESIAN_POINT('',(-37.76262664794922,-113.66618347167969,16.449827194213867));
#79=VERTEX_POINT('',#78);
#80=CARTESIAN_POINT('',(-37.76262664794922,-113.66617584228516,29.85991668701172));
#81=VERTEX_POINT('',#80);
#82=CARTESIAN_POINT('',(-37.76262664794922,-113.66618347167969,29.85991668701172));
#83=VERTEX_POINT('',#82);
#84=CARTESIAN_POINT('',(74.23957061767578,-100.60001373291016,13.59343147277832));
#85=VERTEX_POINT('',#84);
#86=CARTESIAN_POINT('',(-37.76262664794922,-100.60001373291016,13.59343147277832));
#87=VERTEX_POINT('',#86);
#88=CARTESIAN_POINT('',(-37.76263427734375,-100.60001373291016,13.59343147277832));
#89=VERTEX_POINT('',#88);
#90=CARTESIAN_POINT('',(-37.76263427734375,-150.6000213623047,13.59343147277832));
#91=VERTEX_POINT('',#90);
#92=CARTESIAN_POINT('',(-24.764802932739258,-150.6000213623047,13.59343147277832));
#93=VERTEX_POINT('',#92);
#94=CARTESIAN_POINT('',(87.23739624023438,-150.6000213623047,13.59343147277832));
#95=VERTEX_POINT('',#94);
#96=CARTESIAN_POINT('',(87.23739624023438,-145.40090942382812,13.593429565429688));
#97=VERTEX_POINT('',#96);
#98=CARTESIAN_POINT('',(87.23739624023438,-100.60001373291016,13.59343147277832));
#99=VERTEX_POINT('',#98);
#100=CARTESIAN_POINT('',(87.23739624023438,-150.6000213623047,29.85991668701172));
#101=VERTEX_POINT('',#100);
#102=CARTESIAN_POINT('',(87.23739624023438,-145.40090942382812,29.859914779663086));
#103=VERTEX_POINT('',#102);
#104=CARTESIAN_POINT('',(87.23739624023438,-100.60001373291016,29.85991668701172));
#105=VERTEX_POINT('',#104);
#106=CARTESIAN_POINT('',(74.23957061767578,-100.60001373291016,29.85991859436035));
#107=VERTEX_POINT('',#106);
#108=CARTESIAN_POINT('',(-37.76262664794922,-100.60001373291016,29.85991668701172));
#109=VERTEX_POINT('',#108);
#110=CARTESIAN_POINT('',(-24.764802932739258,-150.6000213623047,29.85991859436035));
#111=VERTEX_POINT('',#110);
#112=CARTESIAN_POINT('',(-37.76263427734375,-150.6000213623047,29.85991859436035));
#113=VERTEX_POINT('',#112);
#114=CARTESIAN_POINT('',(-44.872947692871094,-158.58270263671875,43.21709442138672));
#115=VERTEX_POINT('',#114);
#116=CARTESIAN_POINT('',(-44.872947692871094,-92.61734008789062,43.21709442138672));
#117=VERTEX_POINT('',#116);
#118=CARTESIAN_POINT('',(-44.872947692871094,-71.38481140136719,43.21709442138672));
#119=VERTEX_POINT('',#118);
#120=CARTESIAN_POINT('',(-44.872947692871094,-71.38481140136719,33.197410583496094));
#121=VERTEX_POINT('',#120);
#122=CARTESIAN_POINT('',(96.8781509399414,-71.38481140136719,33.197410583496094));
#123=VERTEX_POINT('',#122);
#124=CARTESIAN_POINT('',(96.8781509399414,-71.38481140136719,43.21709442138672));
#125=VERTEX_POINT('',#124);
#126=FACE_SURFACE('',(#131),#127,.T.);
#127=PLANE('',#128);
#128=AXIS2_PLACEMENT_3D('',#34,#129,#130);
#129=DIRECTION('',(1,0,0));
#130=DIRECTION('',(0,1,0));
#131=FACE_BOUND('',#132,.T.);
#132=EDGE_LOOP('',(#133,#134,#135));
#133=ORIENTED_EDGE('',*,*,#136,.T.);
#134=ORIENTED_EDGE('',*,*,#137,.T.);
#135=ORIENTED_EDGE('',*,*,#138,.T.);
#136=EDGE_CURVE('',#35,#37,#139,.F.);
#137=EDGE_CURVE('',#37,#39,#140,.T.);
#138=EDGE_CURVE('',#39,#35,#141,.T.);
#139=LINE('',#34,#142);
#140=LINE('',#36,#143);
#141=LINE('',#38,#144);
#142=VECTOR('',#145,1.0);
#143=VECTOR('',#146,1.0);
#144=VECTOR('',#147,1.0);
#145=DIRECTION('',(0,1,0));
#146=DIRECTION('',(0,0,1));
#147=DIRECTION('',(0,-0.9886600908012566,-0.15017065244864344));
#148=FACE_SURFACE('',(#153),#149,.T.);
#149=PLANE('',#150);
#150=AXIS2_PLACEMENT_3D('',#34,#151,#152);
#151=DIRECTION('',(1,0,0));
#152=DIRECTION('',(0,0.9886600908012566,0.15017065244864344));
#153=FACE_BOUND('',#154,.T.);
#154=EDGE_LOOP('',(#155,#156,#157));
#155=ORIENTED_EDGE('',*,*,#158,.T.);
#156=ORIENTED_EDGE('',*,*,#159,.T.);
#157=ORIENTED_EDGE('',*,*,#160,.T.);
#158=EDGE_CURVE('',#35,#39,#161,.F.);
#159=EDGE_CURVE('',#39,#41,#162,.T.);
#160=EDGE_CURVE('',#41,#35,#163,.T.);
#161=LINE('',#34,#164);
#162=LINE('',#38,#165);
#163=LINE('',#40,#166);
#164=VECTOR('',#167,1.0);
#165=VECTOR('',#168,1.0);
#166=VECTOR('',#169,1.0);
#167=DIRECTION('',(0,0.9886600908012566,0.15017065244864344));
#168=DIRECTION('',(0,-1,0));
#169=DIRECTION('',(0,0,-1));
#170=FACE_SURFACE('',(#175),#171,.T.);
#171=PLANE('',#172);
#172=AXIS2_PLACEMENT_3D('',#34,#173,#174);
#173=DIRECTION('',(1,0,0));
#174=DIRECTION('',(0,0,-1));
#175=FACE_BOUND('',#176,.T.);
#176=EDGE_LOOP('',(#177,#178,#179));
#177=ORIENTED_EDGE('',*,*,#180,.T.);
#178=ORIENTED_EDGE('',*,*,#181,.T.);
#179=ORIENTED_EDGE('',*,*,#182,.T.);
#180=EDGE_CURVE('',#35,#43,#183,.F.);
#181=EDGE_CURVE('',#43,#45,#184,.T.);
#182=EDGE_CURVE('',#45,#35,#185,.T.);
#183=LINE('',#34,#186);
#184=LINE('',#42,#187);
#185=LINE('',#44,#188);
#186=VECTOR('',#189,1.0);
#187=VECTOR('',#190,1.0);
#188=VECTOR('',#191,1.0);
#189=DIRECTION('',(0,0,-1));
#190=DIRECTION('',(0,1,0));
#191=DIRECTION('',(0,-0.9585655053398202,0.28487220287808906));
#192=FACE_SURFACE('',(#197),#193,.T.);
#193=PLANE('',#194);
#194=AXIS2_PLACEMENT_3D('',#34,#195,#196);
#195=DIRECTION('',(1,-0,0));
#196=DIRECTION('',(0,0.9585655053398202,-0.28487220287808906));
#197=FACE_BOUND('',#198,.T.);
#198=EDGE_LOOP('',(#199,#200,#201));
#199=ORIENTED_EDGE('',*,*,#202,.T.);
#200=ORIENTED_EDGE('',*,*,#203,.T.);
#201=ORIENTED_EDGE('',*,*,#204,.T.);
#202=EDGE_CURVE('',#35,#45,#205,.F.);
#203=EDGE_CURVE('',#45,#37,#206,.T.);
#204=EDGE_CURVE('',#37,#35,#207,.T.);
#205=LINE('',#34,#208);
#206=LINE('',#44,#209);
#207=LINE('',#36,#210);
#208=VECTOR('',#211,1.0);
#209=VECTOR('',#212,1.0);
#210=VECTOR('',#213,1.0);
#211=DIRECTION('',(0,0.9585655053398202,-0.28487220287808906));
#212=DIRECTION('',(0,0,1));
#213=DIRECTION('',(0,-1,0));
#214=FACE_SURFACE('',(#219),#215,.T.);
#215=PLANE('',#216);
#216=AXIS2_PLACEMENT_3D('',#46,#217,#218);
#217=DIRECTION('',(-1,0,-0));
#218=DIRECTION('',(0,0,-1));
#219=FACE_BOUND('',#220,.T.);
#220=EDGE_LOOP('',(#221,#222,#223));
#221=ORIENTED_EDGE('',*,*,#224,.T.);
#222=ORIENTED_EDGE('',*,*,#225,.T.);
#223=ORIENTED_EDGE('',*,*,#226,.T.);
#224=EDGE_CURVE('',#47,#49,#227,.F.);
#225=EDGE_CURVE('',#49,#51,#228,.T.);
#226=EDGE_CURVE('',#51,#47,#229,.T.);
#227=LINE('',#46,#230);
#228=LINE('',#48,#231);
#229=LINE('',#50,#232);
#230=VECTOR('',#233,1.0);
#231=VECTOR('',#234,1.0);
#232=VECTOR('',#235,1.0);
#233=DIRECTION('',(0,0,-1));
#234=DIRECTION('',(0,-1,0));
#235=DIRECTION('',(0,0.7912582320817767,0.611482142145477));
#236=FACE_SURFACE('',(#241),#237,.T.);
#237=PLANE('',#238);
#238=AXIS2_PLACEMENT_3D('',#52,#239,#240);
#239=DIRECTION('',(-1,0,-0));
#240=DIRECTION('',(0,0,-1));
#241=FACE_BOUND('',#242,.T.);
#242=EDGE_LOOP('',(#243,#244,#245));
#243=ORIENTED_EDGE('',*,*,#246,.T.);
#244=ORIENTED_EDGE('',*,*,#247,.T.);
#245=ORIENTED_EDGE('',*,*,#248,.T.);
#246=EDGE_CURVE('',#53,#55,#249,.F.);
#247=EDGE_CURVE('',#55,#57,#250,.T.);
#248=EDGE_CURVE('',#57,#53,#251,.T.);
#249=LINE('',#52,#252);
#250=LINE('',#54,#253);
#251=LINE('',#56,#254);
#252=VECTOR('',#255,1.0);
#253=VECTOR('',#256,1.0);
#254=VECTOR('',#257,1.0);
#255=DIRECTION('',(0,0,-1));
#256=DIRECTION('',(0,-1,0));
#257=DIRECTION('',(0,0.7317764066028932,0.6815447826367369));
#258=FACE_SURFACE('',(#263),#259,.T.);
#259=PLANE('',#260);
#260=AXIS2_PLACEMENT_3D('',#52,#261,#262);
#261=DIRECTION('',(-1,0,0));
#262=DIRECTION('',(0,-0.7317764066028932,-0.6815447826367369));
#263=FACE_BOUND('',#264,.T.);
#264=EDGE_LOOP('',(#265,#266,#267));
#265=ORIENTED_EDGE('',*,*,#268,.T.);
#266=ORIENTED_EDGE('',*,*,#269,.T.);
#267=ORIENTED_EDGE('',*,*,#270,.T.);
#268=EDGE_CURVE('',#53,#57,#271,.F.);
#269=EDGE_CURVE('',#57,#59,#272,.T.);
#270=EDGE_CURVE('',#59,#53,#273,.T.);
#271=LINE('',#52,#274);
#272=LINE('',#56,#275);
#273=LINE('',#58,#276);
#274=VECTOR('',#277,1.0);
#275=VECTOR('',#278,1.0);
#276=VECTOR('',#279,1.0);
#277=DIRECTION('',(0,-0.7317764066028932,-0.6815447826367369));
#278=DIRECTION('',(0,0,1));
#279=DIRECTION('',(0,0.9876616269099215,0.15660303550585203));
#280=FACE_SURFACE('',(#285),#281,.T.);
#281=PLANE('',#282);
#282=AXIS2_PLACEMENT_3D('',#46,#283,#284);
#283=DIRECTION('',(-1,-0,0));
#284=DIRECTION('',(0,-0.7912582320817767,-0.611482142145477));
#285=FACE_BOUND('',#286,.T.);
#286=EDGE_LOOP('',(#287,#288,#289));
#287=ORIENTED_EDGE('',*,*,#290,.T.);
#288=ORIENTED_EDGE('',*,*,#291,.T.);
#289=ORIENTED_EDGE('',*,*,#292,.T.);
#290=EDGE_CURVE('',#47,#51,#293,.F.);
#291=EDGE_CURVE('',#51,#61,#294,.T.);
#292=EDGE_CURVE('',#61,#47,#295,.T.);
#293=LINE('',#46,#296);
#294=LINE('',#50,#297);
#295=LINE('',#60,#298);
#296=VECTOR('',#299,1.0);
#297=VECTOR('',#300,1.0);
#298=VECTOR('',#301,1.0);
#299=DIRECTION('',(0,-0.7912582320817767,-0.611482142145477));
#300=DIRECTION('',(0,0,1));
#301=DIRECTION('',(0,0.9876616269099215,-0.15660303550585203));
#302=FACE_SURFACE('',(#307),#303,.T.);
#303=PLANE('',#304);
#304=AXIS2_PLACEMENT_3D('',#52,#305,#306);
#305=DIRECTION('',(-1,0,0));
#306=DIRECTION('',(0,-0.9876616269099215,-0.15660303550585203));
#307=FACE_BOUND('',#308,.T.);
#308=EDGE_LOOP('',(#309,#310,#311));
#309=ORIENTED_EDGE('',*,*,#312,.T.);
#310=ORIENTED_EDGE('',*,*,#313,.T.);
#311=ORIENTED_EDGE('',*,*,#314,.T.);
#312=EDGE_CURVE('',#53,#59,#315,.F.);
#313=EDGE_CURVE('',#59,#47,#316,.T.);
#314=EDGE_CURVE('',#47,#53,#317,.T.);
#315=LINE('',#52,#318);
#316=LINE('',#58,#319);
#317=LINE('',#46,#320);
#318=VECTOR('',#321,1.0);
#319=VECTOR('',#322,1.0);
#320=VECTOR('',#323,1.0);
#321=DIRECTION('',(0,-0.9876616269099215,-0.15660303550585203));
#322=DIRECTION('',(0,-1,0));
#323=DIRECTION('',(0,0.9972508118158342,0.07410005622575201));
#324=FACE_SURFACE('',(#329),#325,.T.);
#325=PLANE('',#326);
#326=AXIS2_PLACEMENT_3D('',#60,#327,#328);
#327=DIRECTION('',(-1,0,0));
#328=DIRECTION('',(0,1,0));
#329=FACE_BOUND('',#330,.T.);
#330=EDGE_LOOP('',(#331,#332,#333));
#331=ORIENTED_EDGE('',*,*,#334,.T.);
#332=ORIENTED_EDGE('',*,*,#335,.T.);
#333=ORIENTED_EDGE('',*,*,#336,.T.);
#334=EDGE_CURVE('',#61,#53,#337,.F.);
#335=EDGE_CURVE('',#53,#47,#338,.T.);
#336=EDGE_CURVE('',#47,#61,#339,.T.);
#337=LINE('',#60,#340);
#338=LINE('',#52,#341);
#339=LINE('',#46,#342);
#340=VECTOR('',#343,1.0);
#341=VECTOR('',#344,1.0);
#342=VECTOR('',#345,1.0);
#343=DIRECTION('',(0,1,0));
#344=DIRECTION('',(0,-0.9972508118158342,-0.07410005622575201));
#345=DIRECTION('',(0,-0.9876616269099215,0.15660303550585203));
#346=FACE_SURFACE('',(#351),#347,.T.);
#347=PLANE('',#348);
#348=AXIS2_PLACEMENT_3D('',#36,#349,#350);
#349=DIRECTION('',(0,1,0));
#350=DIRECTION('',(0,0,-1));
#351=FACE_BOUND('',#352,.T.);
#352=EDGE_LOOP('',(#353,#354,#355));
#353=ORIENTED_EDGE('',*,*,#356,.T.);
#354=ORIENTED_EDGE('',*,*,#357,.T.);
#355=ORIENTED_EDGE('',*,*,#358,.T.);
#356=EDGE_CURVE('',#37,#45,#359,.F.);
#357=EDGE_CURVE('',#45,#55,#360,.T.);
#358=EDGE_CURVE('',#55,#37,#361,.T.);
#359=LINE('',#36,#362);
#360=LINE('',#44,#363);
#361=LINE('',#54,#364);
#362=VECTOR('',#365,1.0);
#363=VECTOR('',#366,1.0);
#364=VECTOR('',#367,1.0);
#365=DIRECTION('',(0,0,-1));
#366=DIRECTION('',(-1,0,0));
#367=DIRECTION('',(0.9905717811329383,0,0.13699469487216717));
#368=FACE_SURFACE('',(#373),#369,.T.);
#369=PLANE('',#370);
#370=AXIS2_PLACEMENT_3D('',#36,#371,#372);
#371=DIRECTION('',(0,1,0));
#372=DIRECTION('',(-0.9905717811329383,0,-0.13699469487216717));
#373=FACE_BOUND('',#374,.T.);
#374=EDGE_LOOP('',(#375,#376,#377));
#375=ORIENTED_EDGE('',*,*,#378,.T.);
#376=ORIENTED_EDGE('',*,*,#379,.T.);
#377=ORIENTED_EDGE('',*,*,#380,.T.);
#378=EDGE_CURVE('',#37,#55,#381,.F.);
#379=EDGE_CURVE('',#55,#53,#382,.T.);
#380=EDGE_CURVE('',#53,#37,#383,.T.);
#381=LINE('',#36,#384);
#382=LINE('',#54,#385);
#383=LINE('',#52,#386);
#384=VECTOR('',#387,1.0);
#385=VECTOR('',#388,1.0);
#386=VECTOR('',#389,1.0);
#387=DIRECTION('',(-0.9905717811329383,0,-0.13699469487216717));
#388=DIRECTION('',(0,0,1));
#389=DIRECTION('',(1,0,0));
#390=FACE_SURFACE('',(#395),#391,.T.);
#391=PLANE('',#392);
#392=AXIS2_PLACEMENT_3D('',#60,#393,#394);
#393=DIRECTION('',(0,-1,0));
#394=DIRECTION('',(0,0,-1));
#395=FACE_BOUND('',#396,.T.);
#396=EDGE_LOOP('',(#397,#398,#399));
#397=ORIENTED_EDGE('',*,*,#400,.T.);
#398=ORIENTED_EDGE('',*,*,#401,.T.);
#399=ORIENTED_EDGE('',*,*,#402,.T.);
#400=EDGE_CURVE('',#61,#51,#403,.F.);
#401=EDGE_CURVE('',#51,#43,#404,.T.);
#402=EDGE_CURVE('',#43,#61,#405,.T.);
#403=LINE('',#60,#406);
#404=LINE('',#50,#407);
#405=LINE('',#42,#408);
#406=VECTOR('',#409,1.0);
#407=VECTOR('',#410,1.0);
#408=VECTOR('',#411,1.0);
#409=DIRECTION('',(0,0,-1));
#410=DIRECTION('',(1,0,0));
#411=DIRECTION('',(-0.9905717811329383,0,0.13699469487216717));
#412=FACE_SURFACE('',(#417),#413,.T.);
#413=PLANE('',#414);
#414=AXIS2_PLACEMENT_3D('',#60,#415,#416);
#415=DIRECTION('',(0,-1,0));
#416=DIRECTION('',(0.9905717811329383,0,-0.13699469487216717));
#417=FACE_BOUND('',#418,.T.);
#418=EDGE_LOOP('',(#419,#420,#421));
#419=ORIENTED_EDGE('',*,*,#422,.T.);
#420=ORIENTED_EDGE('',*,*,#423,.T.);
#421=ORIENTED_EDGE('',*,*,#424,.T.);
#422=EDGE_CURVE('',#61,#43,#425,.F.);
#423=EDGE_CURVE('',#43,#35,#426,.T.);
#424=EDGE_CURVE('',#35,#61,#427,.T.);
#425=LINE('',#60,#428);
#426=LINE('',#42,#429);
#427=LINE('',#34,#430);
#428=VECTOR('',#431,1.0);
#429=VECTOR('',#432,1.0);
#430=VECTOR('',#433,1.0);
#431=DIRECTION('',(0.9905717811329383,0,-0.13699469487216717));
#432=DIRECTION('',(0,0,1));
#433=DIRECTION('',(-1,0,0));
#434=FACE_SURFACE('',(#439),#435,.T.);
#435=PLANE('',#436);
#436=AXIS2_PLACEMENT_3D('',#62,#437,#438);
#437=DIRECTION('',(-1,0,0));
#438=DIRECTION('',(0,0,1));
#439=FACE_BOUND('',#440,.T.);
#440=EDGE_LOOP('',(#441,#442,#443));
#441=ORIENTED_EDGE('',*,*,#444,.T.);
#442=ORIENTED_EDGE('',*,*,#445,.T.);
#443=ORIENTED_EDGE('',*,*,#446,.T.);
#444=EDGE_CURVE('',#63,#65,#447,.F.);
#445=EDGE_CURVE('',#65,#67,#448,.T.);
#446=EDGE_CURVE('',#67,#63,#449,.T.);
#447=LINE('',#62,#450);
#448=LINE('',#64,#451);
#449=LINE('',#66,#452);
#450=VECTOR('',#453,1.0);
#451=VECTOR('',#454,1.0);
#452=VECTOR('',#455,1.0);
#453=DIRECTION('',(0,0,1));
#454=DIRECTION('',(0,1,0));
#455=DIRECTION('',(0,-0.9999999999999969,-7.991346330885186E-08));
#456=FACE_SURFACE('',(#461),#457,.T.);
#457=PLANE('',#458);
#458=AXIS2_PLACEMENT_3D('',#62,#459,#460);
#459=DIRECTION('',(-1,0,0));
#460=DIRECTION('',(0,0.9999999999999969,7.991346330885186E-08));
#461=FACE_BOUND('',#462,.T.);
#462=EDGE_LOOP('',(#463,#464,#465));
#463=ORIENTED_EDGE('',*,*,#466,.T.);
#464=ORIENTED_EDGE('',*,*,#467,.T.);
#465=ORIENTED_EDGE('',*,*,#468,.T.);
#466=EDGE_CURVE('',#63,#67,#469,.F.);
#467=EDGE_CURVE('',#67,#69,#470,.T.);
#468=EDGE_CURVE('',#69,#63,#471,.T.);
#469=LINE('',#62,#472);
#470=LINE('',#66,#473);
#471=LINE('',#68,#474);
#472=VECTOR('',#475,1.0);
#473=VECTOR('',#476,1.0);
#474=VECTOR('',#477,1.0);
#475=DIRECTION('',(0,0.9999999999999969,7.991346330885186E-08));
#476=DIRECTION('',(0,0,-1));
#477=DIRECTION('',(0,-1,0));
#478=FACE_SURFACE('',(#483),#479,.T.);
#479=PLANE('',#480);
#480=AXIS2_PLACEMENT_3D('',#70,#481,#482);
#481=DIRECTION('',(0,1,0));
#482=DIRECTION('',(-1,0,0));
#483=FACE_BOUND('',#484,.T.);
#484=EDGE_LOOP('',(#485,#486,#487));
#485=ORIENTED_EDGE('',*,*,#488,.T.);
#486=ORIENTED_EDGE('',*,*,#489,.T.);
#487=ORIENTED_EDGE('',*,*,#490,.T.);
#488=EDGE_CURVE('',#71,#49,#491,.F.);
#489=EDGE_CURVE('',#49,#47,#492,.T.);
#490=EDGE_CURVE('',#47,#71,#493,.T.);
#491=LINE('',#70,#494);
#492=LINE('',#48,#495);
#493=LINE('',#46,#496);
#494=VECTOR('',#497,1.0);
#495=VECTOR('',#498,1.0);
#496=VECTOR('',#499,1.0);
#497=DIRECTION('',(-1,0,0));
#498=DIRECTION('',(0,0,1));
#499=DIRECTION('',(0.400522505696325,0,-0.9162869214556854));
#500=FACE_SURFACE('',(#505),#501,.T.);
#501=PLANE('',#502);
#502=AXIS2_PLACEMENT_3D('',#72,#503,#504);
#503=DIRECTION('',(0,1,0));
#504=DIRECTION('',(0,0,-1));
#505=FACE_BOUND('',#506,.T.);
#506=EDGE_LOOP('',(#507,#508,#509));
#507=ORIENTED_EDGE('',*,*,#510,.T.);
#508=ORIENTED_EDGE('',*,*,#511,.T.);
#509=ORIENTED_EDGE('',*,*,#512,.T.);
#510=EDGE_CURVE('',#73,#71,#513,.F.);
#511=EDGE_CURVE('',#71,#47,#514,.T.);
#512=EDGE_CURVE('',#47,#73,#515,.T.);
#513=LINE('',#72,#516);
#514=LINE('',#70,#517);
#515=LINE('',#46,#518);
#516=VECTOR('',#519,1.0);
#517=VECTOR('',#520,1.0);
#518=VECTOR('',#521,1.0);
#519=DIRECTION('',(0,0,-1));
#520=DIRECTION('',(-0.400522505696325,0,0.9162869214556854));
#521=DIRECTION('',(0.8318394513535909,0,-0.5550163305451082));
#522=FACE_SURFACE('',(#527),#523,.T.);
#523=PLANE('',#524);
#524=AXIS2_PLACEMENT_3D('',#64,#525,#526);
#525=DIRECTION('',(0,1,0));
#526=DIRECTION('',(0,0,-1));
#527=FACE_BOUND('',#528,.T.);
#528=EDGE_LOOP('',(#529,#530,#531));
#529=ORIENTED_EDGE('',*,*,#532,.T.);
#530=ORIENTED_EDGE('',*,*,#533,.T.);
#531=ORIENTED_EDGE('',*,*,#534,.T.);
#532=EDGE_CURVE('',#65,#63,#535,.F.);
#533=EDGE_CURVE('',#63,#75,#536,.T.);
#534=EDGE_CURVE('',#75,#65,#537,.T.);
#535=LINE('',#64,#538);
#536=LINE('',#62,#539);
#537=LINE('',#74,#540);
#538=VECTOR('',#541,1.0);
#539=VECTOR('',#542,1.0);
#540=VECTOR('',#543,1.0);
#541=DIRECTION('',(0,0,-1));
#542=DIRECTION('',(-1,0,0));
#543=DIRECTION('',(0.9999999999999547,0,3.0120672450035217E-07));
#544=FACE_SURFACE('',(#549),#545,.T.);
#545=PLANE('',#546);
#546=AXIS2_PLACEMENT_3D('',#74,#547,#548);
#547=DIRECTION('',(NaN,NaN,NaN));
#548=DIRECTION('',(0.9999999999999547,0,3.0120672450035217E-07));
#549=FACE_BOUND('',#550,.T.);
#550=EDGE_LOOP('',(#551,#552,#553));
#551=ORIENTED_EDGE('',*,*,#554,.T.);
#552=ORIENTED_EDGE('',*,*,#555,.T.);
#553=ORIENTED_EDGE('',*,*,#556,.T.);
#554=EDGE_CURVE('',#75,#65,#557,.F.);
#555=EDGE_CURVE('',#65,#75,#558,.T.);
#556=EDGE_CURVE('',#75,#75,#559,.T.);
#557=LINE('',#74,#560);
#558=LINE('',#64,#561);
#559=LINE('',#74,#562);
#560=VECTOR('',#563,1.0);
#561=VECTOR('',#564,1.0);
#562=VECTOR('',#565,1.0);
#563=DIRECTION('',(0.9999999999999547,0,3.0120672450035217E-07));
#564=DIRECTION('',(-0.9999999999999547,0,-3.0120672450035217E-07));
#565=DIRECTION('',(NaN,NaN,NaN));
#566=FACE_SURFACE('',(#571),#567,.T.);
#567=PLANE('',#568);
#568=AXIS2_PLACEMENT_3D('',#46,#569,#570);
#569=DIRECTION('',(NaN,NaN,NaN));
#570=DIRECTION('',(0.999999999999964,0,-2.68250704962843E-07));
#571=FACE_BOUND('',#572,.T.);
#572=EDGE_LOOP('',(#573,#574,#575));
#573=ORIENTED_EDGE('',*,*,#576,.T.);
#574=ORIENTED_EDGE('',*,*,#577,.T.);
#575=ORIENTED_EDGE('',*,*,#578,.T.);
#576=EDGE_CURVE('',#47,#75,#579,.F.);
#577=EDGE_CURVE('',#75,#75,#580,.T.);
#578=EDGE_CURVE('',#75,#47,#581,.T.);
#579=LINE('',#46,#582);
#580=LINE('',#74,#583);
#581=LINE('',#74,#584);
#582=VECTOR('',#585,1.0);
#583=VECTOR('',#586,1.0);
#584=VECTOR('',#587,1.0);
#585=DIRECTION('',(0.999999999999964,0,-2.68250704962843E-07));
#586=DIRECTION('',(NaN,NaN,NaN));
#587=DIRECTION('',(-0.999999999999964,0,2.68250704962843E-07));
#588=FACE_SURFACE('',(#593),#589,.T.);
#589=PLANE('',#590);
#590=AXIS2_PLACEMENT_3D('',#46,#591,#592);
#591=DIRECTION('',(0,1,0));
#592=DIRECTION('',(0.999999999999964,0,-2.68250704962843E-07));
#593=FACE_BOUND('',#594,.T.);
#594=EDGE_LOOP('',(#595,#596,#597));
#595=ORIENTED_EDGE('',*,*,#598,.T.);
#596=ORIENTED_EDGE('',*,*,#599,.T.);
#597=ORIENTED_EDGE('',*,*,#600,.T.);
#598=EDGE_CURVE('',#47,#75,#601,.F.);
#599=EDGE_CURVE('',#75,#73,#602,.T.);
#600=EDGE_CURVE('',#73,#47,#603,.T.);
#601=LINE('',#46,#604);
#602=LINE('',#74,#605);
#603=LINE('',#72,#606);
#604=VECTOR('',#607,1.0);
#605=VECTOR('',#608,1.0);
#606=VECTOR('',#609,1.0);
#607=DIRECTION('',(0.999999999999964,0,-2.68250704962843E-07));
#608=DIRECTION('',(0,0,-1));
#609=DIRECTION('',(-0.8318394513535909,0,0.5550163305451082));
#610=FACE_SURFACE('',(#615),#611,.T.);
#611=PLANE('',#612);
#612=AXIS2_PLACEMENT_3D('',#58,#613,#614);
#613=DIRECTION('',(0,-1,0));
#614=DIRECTION('',(0,0,-1));
#615=FACE_BOUND('',#616,.T.);
#616=EDGE_LOOP('',(#617,#618,#619));
#617=ORIENTED_EDGE('',*,*,#620,.T.);
#618=ORIENTED_EDGE('',*,*,#621,.T.);
#619=ORIENTED_EDGE('',*,*,#622,.T.);
#620=EDGE_CURVE('',#59,#57,#623,.F.);
#621=EDGE_CURVE('',#57,#77,#624,.T.);
#622=EDGE_CURVE('',#77,#59,#625,.T.);
#623=LINE('',#58,#626);
#624=LINE('',#56,#627);
#625=LINE('',#76,#628);
#626=VECTOR('',#629,1.0);
#627=VECTOR('',#630,1.0);
#628=VECTOR('',#631,1.0);
#629=DIRECTION('',(0,0,-1));
#630=DIRECTION('',(1,0,0));
#631=DIRECTION('',(-0.400522505696325,0,0.9162869214556854));
#632=FACE_SURFACE('',(#637),#633,.T.);
#633=PLANE('',#634);
#634=AXIS2_PLACEMENT_3D('',#58,#635,#636);
#635=DIRECTION('',(0,-1,0));
#636=DIRECTION('',(0.400522505696325,0,-0.9162869214556854));
#637=FACE_BOUND('',#638,.T.);
#638=EDGE_LOOP('',(#639,#640,#641));
#639=ORIENTED_EDGE('',*,*,#642,.T.);
#640=ORIENTED_EDGE('',*,*,#643,.T.);
#641=ORIENTED_EDGE('',*,*,#644,.T.);
#642=EDGE_CURVE('',#59,#77,#645,.F.);
#643=EDGE_CURVE('',#77,#79,#646,.T.);
#644=EDGE_CURVE('',#79,#59,#647,.T.);
#645=LINE('',#58,#648);
#646=LINE('',#76,#649);
#647=LINE('',#78,#650);
#648=VECTOR('',#651,1.0);
#649=VECTOR('',#652,1.0);
#650=VECTOR('',#653,1.0);
#651=DIRECTION('',(0.400522505696325,0,-0.9162869214556854));
#652=DIRECTION('',(0,0,1));
#653=DIRECTION('',(-0.46844652468787723,0,0.8834918525418612));
#654=FACE_SURFACE('',(#659),#655,.T.);
#655=PLANE('',#656);
#656=AXIS2_PLACEMENT_3D('',#68,#657,#658);
#657=DIRECTION('',(-1.2048268980005887E-06,-0.9999999999992741,0));
#658=DIRECTION('',(0,0,1));
#659=FACE_BOUND('',#660,.T.);
#660=EDGE_LOOP('',(#661,#662,#663));
#661=ORIENTED_EDGE('',*,*,#664,.T.);
#662=ORIENTED_EDGE('',*,*,#665,.T.);
#663=ORIENTED_EDGE('',*,*,#666,.T.);
#664=EDGE_CURVE('',#69,#67,#667,.F.);
#665=EDGE_CURVE('',#67,#81,#668,.T.);
#666=EDGE_CURVE('',#81,#69,#669,.T.);
#667=LINE('',#68,#670);
#668=LINE('',#66,#671);
#669=LINE('',#80,#672);
#670=VECTOR('',#673,1.0);
#671=VECTOR('',#674,1.0);
#672=VECTOR('',#675,1.0);
#673=DIRECTION('',(0,0,1));
#674=DIRECTION('',(-0.9999999999992288,1.204826898000534E-06,-3.012067245001335E-07));
#675=DIRECTION('',(0.9999999999992741,-1.2048268980005887E-06,0));
#676=FACE_SURFACE('',(#681),#677,.T.);
#677=PLANE('',#678);
#678=AXIS2_PLACEMENT_3D('',#82,#679,#680);
#679=DIRECTION('',(0,0,1));
#680=DIRECTION('',(1,0,0));
#681=FACE_BOUND('',#682,.T.);
#682=EDGE_LOOP('',(#683,#684,#685));
#683=ORIENTED_EDGE('',*,*,#686,.T.);
#684=ORIENTED_EDGE('',*,*,#687,.T.);
#685=ORIENTED_EDGE('',*,*,#688,.T.);
#686=EDGE_CURVE('',#83,#69,#689,.F.);
#687=EDGE_CURVE('',#69,#81,#690,.T.);
#688=EDGE_CURVE('',#81,#83,#691,.T.);
#689=LINE('',#82,#692);
#690=LINE('',#68,#693);
#691=LINE('',#80,#694);
#692=VECTOR('',#695,1.0);
#693=VECTOR('',#696,1.0);
#694=VECTOR('',#697,1.0);
#695=DIRECTION('',(1,0,0));
#696=DIRECTION('',(-0.9999999999992741,1.2048268980005887E-06,0));
#697=DIRECTION('',(0,-1,0));
#698=FACE_SURFACE('',(#703),#699,.T.);
#699=PLANE('',#700);
#700=AXIS2_PLACEMENT_3D('',#78,#701,#702);
#701=DIRECTION('',(-1,0,0));
#702=DIRECTION('',(0,0,1));
#703=FACE_BOUND('',#704,.T.);
#704=EDGE_LOOP('',(#705,#706,#707));
#705=ORIENTED_EDGE('',*,*,#708,.T.);
#706=ORIENTED_EDGE('',*,*,#709,.T.);
#707=ORIENTED_EDGE('',*,*,#710,.T.);
#708=EDGE_CURVE('',#79,#83,#711,.F.);
#709=EDGE_CURVE('',#83,#81,#712,.T.);
#710=EDGE_CURVE('',#81,#79,#713,.T.);
#711=LINE('',#78,#714);
#712=LINE('',#82,#715);
#713=LINE('',#80,#716);
#714=VECTOR('',#717,1.0);
#715=VECTOR('',#718,1.0);
#716=VECTOR('',#719,1.0);
#717=DIRECTION('',(0,0,1));
#718=DIRECTION('',(0,1,0));
#719=DIRECTION('',(0,-5.689294270069025E-07,-0.9999999999998381));
#720=FACE_SURFACE('',(#725),#721,.T.);
#721=PLANE('',#722);
#722=AXIS2_PLACEMENT_3D('',#80,#723,#724);
#723=DIRECTION('',(1.073002972466339E-06,-0.9999999999992624,5.68929427006575E-07));
#724=DIRECTION('',(-0.9999999999993883,-1.0730028198507543E-06,2.6825070496268857E-07));
#725=FACE_BOUND('',#726,.T.);
#726=EDGE_LOOP('',(#727,#728,#729));
#727=ORIENTED_EDGE('',*,*,#730,.T.);
#728=ORIENTED_EDGE('',*,*,#731,.T.);
#729=ORIENTED_EDGE('',*,*,#732,.T.);
#730=EDGE_CURVE('',#81,#59,#733,.F.);
#731=EDGE_CURVE('',#59,#79,#734,.T.);
#732=EDGE_CURVE('',#79,#81,#735,.T.);
#733=LINE('',#80,#736);
#734=LINE('',#58,#737);
#735=LINE('',#78,#738);
#736=VECTOR('',#739,1.0);
#737=VECTOR('',#740,1.0);
#738=VECTOR('',#741,1.0);
#739=DIRECTION('',(-0.9999999999993883,-1.0730028198507543E-06,2.6825070496268857E-07));
#740=DIRECTION('',(0.46844652468787723,0,-0.8834918525418612));
#741=DIRECTION('',(0,5.689294270069025E-07,0.9999999999998381));
#742=FACE_SURFACE('',(#747),#743,.T.);
#743=PLANE('',#744);
#744=AXIS2_PLACEMENT_3D('',#46,#745,#746);
#745=DIRECTION('',(-2.68250704962843E-07,0,-0.999999999999964));
#746=DIRECTION('',(0,1,0));
#747=FACE_BOUND('',#748,.T.);
#748=EDGE_LOOP('',(#749,#750,#751));
#749=ORIENTED_EDGE('',*,*,#752,.T.);
#750=ORIENTED_EDGE('',*,*,#753,.T.);
#751=ORIENTED_EDGE('',*,*,#754,.T.);
#752=EDGE_CURVE('',#47,#59,#755,.F.);
#753=EDGE_CURVE('',#59,#81,#756,.T.);
#754=EDGE_CURVE('',#81,#47,#757,.T.);
#755=LINE('',#46,#758);
#756=LINE('',#58,#759);
#757=LINE('',#80,#760);
#758=VECTOR('',#761,1.0);
#759=VECTOR('',#762,1.0);
#760=VECTOR('',#763,1.0);
#761=DIRECTION('',(0,1,0));
#762=DIRECTION('',(0.9999999999993883,1.0730028198507543E-06,-2.6825070496268857E-07));
#763=DIRECTION('',(-0.28550602983091844,-0.9583769127698042,7.65871937732891E-08));
#764=FACE_SURFACE('',(#769),#765,.T.);
#765=PLANE('',#766);
#766=AXIS2_PLACEMENT_3D('',#80,#767,#768);
#767=DIRECTION('',(3.012067245003521E-07,0,-0.9999999999999545));
#768=DIRECTION('',(0.9999999999992288,-1.204826898000534E-06,3.012067245001335E-07));
#769=FACE_BOUND('',#770,.T.);
#770=EDGE_LOOP('',(#771,#772,#773));
#771=ORIENTED_EDGE('',*,*,#774,.T.);
#772=ORIENTED_EDGE('',*,*,#775,.T.);
#773=ORIENTED_EDGE('',*,*,#776,.T.);
#774=EDGE_CURVE('',#81,#67,#777,.F.);
#775=EDGE_CURVE('',#67,#65,#778,.T.);
#776=EDGE_CURVE('',#65,#81,#779,.T.);
#777=LINE('',#80,#780);
#778=LINE('',#66,#781);
#779=LINE('',#64,#782);
#780=VECTOR('',#783,1.0);
#781=VECTOR('',#784,1.0);
#782=VECTOR('',#785,1.0);
#783=DIRECTION('',(0.9999999999992288,-1.204826898000534E-06,3.012067245001335E-07));
#784=DIRECTION('',(0,-1,0));
#785=DIRECTION('',(-0.256439044934483,0.9665604048548049,-7.724116475871774E-08));
#786=FACE_SURFACE('',(#791),#787,.T.);
#787=PLANE('',#788);
#788=AXIS2_PLACEMENT_3D('',#74,#789,#790);
#789=DIRECTION('',(-2.68250704962843E-07,0,-0.999999999999964));
#790=DIRECTION('',(-0.999999999999964,0,2.68250704962843E-07));
#791=FACE_BOUND('',#792,.T.);
#792=EDGE_LOOP('',(#793,#794,#795));
#793=ORIENTED_EDGE('',*,*,#796,.T.);
#794=ORIENTED_EDGE('',*,*,#797,.T.);
#795=ORIENTED_EDGE('',*,*,#798,.T.);
#796=EDGE_CURVE('',#75,#47,#799,.F.);
#797=EDGE_CURVE('',#47,#81,#800,.T.);
#798=EDGE_CURVE('',#81,#75,#801,.T.);
#799=LINE('',#74,#802);
#800=LINE('',#46,#803);
#801=LINE('',#80,#804);
#802=VECTOR('',#805,1.0);
#803=VECTOR('',#806,1.0);
#804=VECTOR('',#807,1.0);
#805=DIRECTION('',(-0.999999999999964,0,2.68250704962843E-07));
#806=DIRECTION('',(0.28550602983091844,0.9583769127698042,-7.65871937732891E-08));
#807=DIRECTION('',(0,-1,0));
#808=FACE_SURFACE('',(#813),#809,.T.);
#809=PLANE('',#810);
#810=AXIS2_PLACEMENT_3D('',#80,#811,#812);
#811=DIRECTION('',(3.0120672450035217E-07,0,-0.9999999999999547));
#812=DIRECTION('',(0.256439044934483,-0.9665604048548049,7.724116475871774E-08));
#813=FACE_BOUND('',#814,.T.);
#814=EDGE_LOOP('',(#815,#816,#817));
#815=ORIENTED_EDGE('',*,*,#818,.T.);
#816=ORIENTED_EDGE('',*,*,#819,.T.);
#817=ORIENTED_EDGE('',*,*,#820,.T.);
#818=EDGE_CURVE('',#81,#65,#821,.F.);
#819=EDGE_CURVE('',#65,#75,#822,.T.);
#820=EDGE_CURVE('',#75,#81,#823,.T.);
#821=LINE('',#80,#824);
#822=LINE('',#64,#825);
#823=LINE('',#74,#826);
#824=VECTOR('',#827,1.0);
#825=VECTOR('',#828,1.0);
#826=VECTOR('',#829,1.0);
#827=DIRECTION('',(0.256439044934483,-0.9665604048548049,7.724116475871774E-08));
#828=DIRECTION('',(-0.9999999999999547,0,-3.0120672450035217E-07));
#829=DIRECTION('',(0,1,0));
#830=FACE_SURFACE('',(#835),#831,.T.);
#831=PLANE('',#832);
#832=AXIS2_PLACEMENT_3D('',#44,#833,#834);
#833=DIRECTION('',(0,0,-1));
#834=DIRECTION('',(-0.9430872205077426,-0.33254547736359363,0));
#835=FACE_BOUND('',#836,.T.);
#836=EDGE_LOOP('',(#837,#838,#839));
#837=ORIENTED_EDGE('',*,*,#840,.T.);
#838=ORIENTED_EDGE('',*,*,#841,.T.);
#839=ORIENTED_EDGE('',*,*,#842,.T.);
#840=EDGE_CURVE('',#45,#85,#843,.F.);
#841=EDGE_CURVE('',#85,#87,#844,.T.);
#842=EDGE_CURVE('',#87,#45,#845,.T.);
#843=LINE('',#44,#846);
#844=LINE('',#84,#847);
#845=LINE('',#86,#848);
#846=VECTOR('',#849,1.0);
#847=VECTOR('',#850,1.0);
#848=VECTOR('',#851,1.0);
#849=DIRECTION('',(-0.9430872205077426,-0.33254547736359363,0));
#850=DIRECTION('',(-1,0,0));
#851=DIRECTION('',(0.9982470464244004,0.059184747232381846,0));
#852=FACE_SURFACE('',(#857),#853,.T.);
#853=PLANE('',#854);
#854=AXIS2_PLACEMENT_3D('',#44,#855,#856);
#855=DIRECTION('',(-0,0,-1));
#856=DIRECTION('',(-0.9982470464244004,-0.059184747232381846,0));
#857=FACE_BOUND('',#858,.T.);
#858=EDGE_LOOP('',(#859,#860,#861));
#859=ORIENTED_EDGE('',*,*,#862,.T.);
#860=ORIENTED_EDGE('',*,*,#863,.T.);
#861=ORIENTED_EDGE('',*,*,#864,.T.);
#862=EDGE_CURVE('',#45,#87,#865,.F.);
#863=EDGE_CURVE('',#87,#55,#866,.T.);
#864=EDGE_CURVE('',#55,#45,#867,.T.);
#865=LINE('',#44,#868);
#866=LINE('',#86,#869);
#867=LINE('',#54,#870);
#868=VECTOR('',#871,1.0);
#869=VECTOR('',#872,1.0);
#870=VECTOR('',#873,1.0);
#871=DIRECTION('',(-0.9982470464244004,-0.059184747232381846,0));
#872=DIRECTION('',(-0.665127005181311,0.7467302504777347,0));
#873=DIRECTION('',(1,0,0));
#874=FACE_SURFACE('',(#879),#875,.T.);
#875=PLANE('',#876);
#876=AXIS2_PLACEMENT_3D('',#76,#877,#878);
#877=DIRECTION('',(0,0,-1));
#878=DIRECTION('',(-1,0,0));
#879=FACE_BOUND('',#880,.T.);
#880=EDGE_LOOP('',(#881,#882,#883));
#881=ORIENTED_EDGE('',*,*,#884,.T.);
#882=ORIENTED_EDGE('',*,*,#885,.T.);
#883=ORIENTED_EDGE('',*,*,#886,.T.);
#884=EDGE_CURVE('',#77,#57,#887,.F.);
#885=EDGE_CURVE('',#57,#55,#888,.T.);
#886=EDGE_CURVE('',#55,#77,#889,.T.);
#887=LINE('',#76,#890);
#888=LINE('',#56,#891);
#889=LINE('',#54,#892);
#890=VECTOR('',#893,1.0);
#891=VECTOR('',#894,1.0);
#892=VECTOR('',#895,1.0);
#893=DIRECTION('',(-1,0,0));
#894=DIRECTION('',(0,1,0));
#895=DIRECTION('',(0.3200346690288714,-0.9474058320590921,0));
#896=FACE_SURFACE('',(#901),#897,.T.);
#897=PLANE('',#898);
#898=AXIS2_PLACEMENT_3D('',#76,#899,#900);
#899=DIRECTION('',(0,0,-1));
#900=DIRECTION('',(-0.3200346690288714,0.9474058320590921,0));
#901=FACE_BOUND('',#902,.T.);
#902=EDGE_LOOP('',(#903,#904,#905));
#903=ORIENTED_EDGE('',*,*,#906,.T.);
#904=ORIENTED_EDGE('',*,*,#907,.T.);
#905=ORIENTED_EDGE('',*,*,#908,.T.);
#906=EDGE_CURVE('',#77,#55,#909,.F.);
#907=EDGE_CURVE('',#55,#89,#910,.T.);
#908=EDGE_CURVE('',#89,#77,#911,.T.);
#909=LINE('',#76,#912);
#910=LINE('',#54,#913);
#911=LINE('',#88,#914);
#912=VECTOR('',#915,1.0);
#913=VECTOR('',#916,1.0);
#914=VECTOR('',#917,1.0);
#915=DIRECTION('',(-0.3200346690288714,0.9474058320590921,0));
#916=DIRECTION('',(0.665126607226972,-0.7467306049431329,0));
#917=DIRECTION('',(5.839044405347802E-07,-0.9999999999998295,0));
#918=FACE_SURFACE('',(#923),#919,.T.);
#919=PLANE('',#920);
#920=AXIS2_PLACEMENT_3D('',#42,#921,#922);
#921=DIRECTION('',(0,0,-1));
#922=DIRECTION('',(-1,0,0));
#923=FACE_BOUND('',#924,.T.);
#924=EDGE_LOOP('',(#925,#926,#927));
#925=ORIENTED_EDGE('',*,*,#928,.T.);
#926=ORIENTED_EDGE('',*,*,#929,.T.);
#927=ORIENTED_EDGE('',*,*,#930,.T.);
#928=EDGE_CURVE('',#43,#51,#931,.F.);
#929=EDGE_CURVE('',#51,#91,#932,.T.);
#930=EDGE_CURVE('',#91,#43,#933,.T.);
#931=LINE('',#42,#934);
#932=LINE('',#50,#935);
#933=LINE('',#90,#936);
#934=VECTOR('',#937,1.0);
#935=VECTOR('',#938,1.0);
#936=VECTOR('',#939,1.0);
#937=DIRECTION('',(-1,0,0));
#938=DIRECTION('',(0.6651262527616255,0.7467309206717492,0));
#939=DIRECTION('',(0.9982470432805935,-0.05918480025777642,0));
#940=FACE_SURFACE('',(#945),#941,.T.);
#941=PLANE('',#942);
#942=AXIS2_PLACEMENT_3D('',#92,#943,#944);
#943=DIRECTION('',(0,0,-1));
#944=DIRECTION('',(1,0,0));
#945=FACE_BOUND('',#946,.T.);
#946=EDGE_LOOP('',(#947,#948,#949));
#947=ORIENTED_EDGE('',*,*,#950,.T.);
#948=ORIENTED_EDGE('',*,*,#951,.T.);
#949=ORIENTED_EDGE('',*,*,#952,.T.);
#950=EDGE_CURVE('',#93,#95,#953,.F.);
#951=EDGE_CURVE('',#95,#43,#954,.T.);
#952=EDGE_CURVE('',#43,#93,#955,.T.);
#953=LINE('',#92,#956);
#954=LINE('',#94,#957);
#955=LINE('',#42,#958);
#956=VECTOR('',#959,1.0);
#957=VECTOR('',#960,1.0);
#958=VECTOR('',#961,1.0);
#959=DIRECTION('',(1,0,0));
#960=DIRECTION('',(0.770232397473908,-0.6377633212106163,0));
#961=DIRECTION('',(-0.9978536837443506,0.06548301946176327,0));
#962=FACE_SURFACE('',(#967),#963,.T.);
#963=PLANE('',#964);
#964=AXIS2_PLACEMENT_3D('',#90,#965,#966);
#965=DIRECTION('',(0,0,-1));
#966=DIRECTION('',(1,0,0));
#967=FACE_BOUND('',#968,.T.);
#968=EDGE_LOOP('',(#969,#970,#971));
#969=ORIENTED_EDGE('',*,*,#972,.T.);
#970=ORIENTED_EDGE('',*,*,#973,.T.);
#971=ORIENTED_EDGE('',*,*,#974,.T.);
#972=EDGE_CURVE('',#91,#93,#975,.F.);
#973=EDGE_CURVE('',#93,#43,#976,.T.);
#974=EDGE_CURVE('',#43,#91,#977,.T.);
#975=LINE('',#90,#978);
#976=LINE('',#92,#979);
#977=LINE('',#42,#980);
#978=VECTOR('',#981,1.0);
#979=VECTOR('',#982,1.0);
#980=VECTOR('',#983,1.0);
#981=DIRECTION('',(1,0,0));
#982=DIRECTION('',(0.9978536837443506,-0.06548301946176327,0));
#983=DIRECTION('',(-0.9982470432805935,0.05918480025777642,0));
#984=FACE_SURFACE('',(#989),#985,.T.);
#985=PLANE('',#986);
#986=AXIS2_PLACEMENT_3D('',#50,#987,#988);
#987=DIRECTION('',(0,0,-1));
#988=DIRECTION('',(0,1,0));
#989=FACE_BOUND('',#990,.T.);
#990=EDGE_LOOP('',(#991,#992,#993));
#991=ORIENTED_EDGE('',*,*,#994,.T.);
#992=ORIENTED_EDGE('',*,*,#995,.T.);
#993=ORIENTED_EDGE('',*,*,#996,.T.);
#994=EDGE_CURVE('',#51,#49,#997,.F.);
#995=EDGE_CURVE('',#49,#71,#998,.T.);
#996=EDGE_CURVE('',#71,#51,#999,.T.);
#997=LINE('',#50,#1000);
#998=LINE('',#48,#1001);
#999=LINE('',#70,#1002);
#1000=VECTOR('',#1003,1.0);
#1001=VECTOR('',#1004,1.0);
#1002=VECTOR('',#1005,1.0);
#1003=DIRECTION('',(0,1,0));
#1004=DIRECTION('',(1,0,0));
#1005=DIRECTION('',(-0.3200346690288714,-0.9474058320590921,0));
#1006=FACE_SURFACE('',(#1011),#1007,.T.);
#1007=PLANE('',#1008);
#1008=AXIS2_PLACEMENT_3D('',#50,#1009,#1010);
#1009=DIRECTION('',(0,0,-1));
#1010=DIRECTION('',(0.3200346690288714,0.9474058320590921,0));
#1011=FACE_BOUND('',#1012,.T.);
#1012=EDGE_LOOP('',(#1013,#1014,#1015));
#1013=ORIENTED_EDGE('',*,*,#1016,.T.);
#1014=ORIENTED_EDGE('',*,*,#1017,.T.);
#1015=ORIENTED_EDGE('',*,*,#1018,.T.);
#1016=EDGE_CURVE('',#51,#71,#1019,.F.);
#1017=EDGE_CURVE('',#71,#91,#1020,.T.);
#1018=EDGE_CURVE('',#91,#51,#1021,.T.);
#1019=LINE('',#50,#1022);
#1020=LINE('',#70,#1023);
#1021=LINE('',#90,#1024);
#1022=VECTOR('',#1025,1.0);
#1023=VECTOR('',#1026,1.0);
#1024=VECTOR('',#1027,1.0);
#1025=DIRECTION('',(0.3200346690288714,0.9474058320590921,0));
#1026=DIRECTION('',(-5.83904781479375E-07,-0.9999999999998295,0));
#1027=DIRECTION('',(-0.6651262527616255,-0.7467309206717492,0));
#1028=FACE_SURFACE('',(#1033),#1029,.T.);
#1029=PLANE('',#1030);
#1030=AXIS2_PLACEMENT_3D('',#44,#1031,#1032);
#1031=DIRECTION('',(0,-0,-1));
#1032=DIRECTION('',(0,-1,0));
#1033=FACE_BOUND('',#1034,.T.);
#1034=EDGE_LOOP('',(#1035,#1036,#1037));
#1035=ORIENTED_EDGE('',*,*,#1038,.T.);
#1036=ORIENTED_EDGE('',*,*,#1039,.T.);
#1037=ORIENTED_EDGE('',*,*,#1040,.T.);
#1038=EDGE_CURVE('',#45,#43,#1041,.F.);
#1039=EDGE_CURVE('',#43,#95,#1042,.T.);
#1040=EDGE_CURVE('',#95,#45,#1043,.T.);
#1041=LINE('',#44,#1044);
#1042=LINE('',#42,#1045);
#1043=LINE('',#94,#1046);
#1044=VECTOR('',#1047,1.0);
#1045=VECTOR('',#1048,1.0);
#1046=VECTOR('',#1049,1.0);
#1047=DIRECTION('',(0,-1,0));
#1048=DIRECTION('',(-0.770232397473908,0.6377633212106163,0));
#1049=DIRECTION('',(0.16401783013046212,0.9864573743448294,0));
#1050=FACE_SURFACE('',(#1055),#1051,.T.);
#1051=PLANE('',#1052);
#1052=AXIS2_PLACEMENT_3D('',#94,#1053,#1054);
#1053=DIRECTION('',(1,-0,0));
#1054=DIRECTION('',(0,0.9999999999999327,-3.668604668225821E-07));
#1055=FACE_BOUND('',#1056,.T.);
#1056=EDGE_LOOP('',(#1057,#1058,#1059));
#1057=ORIENTED_EDGE('',*,*,#1060,.T.);
#1058=ORIENTED_EDGE('',*,*,#1061,.T.);
#1059=ORIENTED_EDGE('',*,*,#1062,.T.);
#1060=EDGE_CURVE('',#95,#97,#1063,.F.);
#1061=EDGE_CURVE('',#97,#99,#1064,.T.);
#1062=EDGE_CURVE('',#99,#95,#1065,.T.);
#1063=LINE('',#94,#1066);
#1064=LINE('',#96,#1067);
#1065=LINE('',#98,#1068);
#1066=VECTOR('',#1069,1.0);
#1067=VECTOR('',#1070,1.0);
#1068=VECTOR('',#1071,1.0);
#1069=DIRECTION('',(0,0.9999999999999327,-3.668604668225821E-07));
#1070=DIRECTION('',(0,0.999999999999999,4.2573895083958234E-08));
#1071=DIRECTION('',(0,-1,0));
#1072=FACE_SURFACE('',(#1077),#1073,.T.);
#1073=PLANE('',#1074);
#1074=AXIS2_PLACEMENT_3D('',#94,#1075,#1076);
#1075=DIRECTION('',(0,0,-1));
#1076=DIRECTION('',(0,1,0));
#1077=FACE_BOUND('',#1078,.T.);
#1078=EDGE_LOOP('',(#1079,#1080,#1081));
#1079=ORIENTED_EDGE('',*,*,#1082,.T.);
#1080=ORIENTED_EDGE('',*,*,#1083,.T.);
#1081=ORIENTED_EDGE('',*,*,#1084,.T.);
#1082=EDGE_CURVE('',#95,#99,#1085,.F.);
#1083=EDGE_CURVE('',#99,#45,#1086,.T.);
#1084=EDGE_CURVE('',#45,#95,#1087,.T.);
#1085=LINE('',#94,#1088);
#1086=LINE('',#98,#1089);
#1087=LINE('',#44,#1090);
#1088=VECTOR('',#1091,1.0);
#1089=VECTOR('',#1092,1.0);
#1090=VECTOR('',#1093,1.0);
#1091=DIRECTION('',(0,1,0));
#1092=DIRECTION('',(0.7702326968948616,0.6377629595971126,0));
#1093=DIRECTION('',(-0.16401783013046212,-0.9864573743448294,0));
#1094=FACE_SURFACE('',(#1099),#1095,.T.);
#1095=PLANE('',#1096);
#1096=AXIS2_PLACEMENT_3D('',#84,#1097,#1098);
#1097=DIRECTION('',(NaN,NaN,NaN));
#1098=DIRECTION('',(0.9430872205077426,0.33254547736359363,0));
#1099=FACE_BOUND('',#1100,.T.);
#1100=EDGE_LOOP('',(#1101,#1102,#1103));
#1101=ORIENTED_EDGE('',*,*,#1104,.T.);
#1102=ORIENTED_EDGE('',*,*,#1105,.T.);
#1103=ORIENTED_EDGE('',*,*,#1106,.T.);
#1104=EDGE_CURVE('',#85,#45,#1107,.F.);
#1105=EDGE_CURVE('',#45,#45,#1108,.T.);
#1106=EDGE_CURVE('',#45,#85,#1109,.T.);
#1107=LINE('',#84,#1110);
#1108=LINE('',#44,#1111);
#1109=LINE('',#44,#1112);
#1110=VECTOR('',#1113,1.0);
#1111=VECTOR('',#1114,1.0);
#1112=VECTOR('',#1115,1.0);
#1113=DIRECTION('',(0.9430872205077426,0.33254547736359363,0));
#1114=DIRECTION('',(NaN,NaN,NaN));
#1115=DIRECTION('',(-0.9430872205077426,-0.33254547736359363,0));
#1116=FACE_SURFACE('',(#1121),#1117,.T.);
#1117=PLANE('',#1118);
#1118=AXIS2_PLACEMENT_3D('',#84,#1119,#1120);
#1119=DIRECTION('',(0,0,-1));
#1120=DIRECTION('',(0.9430872205077426,0.33254547736359363,0));
#1121=FACE_BOUND('',#1122,.T.);
#1122=EDGE_LOOP('',(#1123,#1124,#1125));
#1123=ORIENTED_EDGE('',*,*,#1126,.T.);
#1124=ORIENTED_EDGE('',*,*,#1127,.T.);
#1125=ORIENTED_EDGE('',*,*,#1128,.T.);
#1126=EDGE_CURVE('',#85,#45,#1129,.F.);
#1127=EDGE_CURVE('',#45,#99,#1130,.T.);
#1128=EDGE_CURVE('',#99,#85,#1131,.T.);
#1129=LINE('',#84,#1132);
#1130=LINE('',#44,#1133);
#1131=LINE('',#98,#1134);
#1132=VECTOR('',#1135,1.0);
#1133=VECTOR('',#1136,1.0);
#1134=VECTOR('',#1137,1.0);
#1135=DIRECTION('',(0.9430872205077426,0.33254547736359363,0));
#1136=DIRECTION('',(-0.7702326968948616,-0.6377629595971126,0));
#1137=DIRECTION('',(-1,0,0));
#1138=FACE_SURFACE('',(#1143),#1139,.T.);
#1139=PLANE('',#1140);
#1140=AXIS2_PLACEMENT_3D('',#96,#1141,#1142);
#1141=DIRECTION('',(NaN,NaN,NaN));
#1142=DIRECTION('',(0,-0.9999999999999327,3.668604668225821E-07));
#1143=FACE_BOUND('',#1144,.T.);
#1144=EDGE_LOOP('',(#1145,#1146,#1147));
#1145=ORIENTED_EDGE('',*,*,#1148,.T.);
#1146=ORIENTED_EDGE('',*,*,#1149,.T.);
#1147=ORIENTED_EDGE('',*,*,#1150,.T.);
#1148=EDGE_CURVE('',#97,#95,#1151,.F.);
#1149=EDGE_CURVE('',#95,#95,#1152,.T.);
#1150=EDGE_CURVE('',#95,#97,#1153,.T.);
#1151=LINE('',#96,#1154);
#1152=LINE('',#94,#1155);
#1153=LINE('',#94,#1156);
#1154=VECTOR('',#1157,1.0);
#1155=VECTOR('',#1158,1.0);
#1156=VECTOR('',#1159,1.0);
#1157=DIRECTION('',(0,-0.9999999999999327,3.668604668225821E-07));
#1158=DIRECTION('',(NaN,NaN,NaN));
#1159=DIRECTION('',(0,0.9999999999999327,-3.668604668225821E-07));
#1160=FACE_SURFACE('',(#1165),#1161,.T.);
#1161=PLANE('',#1162);
#1162=AXIS2_PLACEMENT_3D('',#96,#1163,#1164);
#1163=DIRECTION('',(NaN,NaN,NaN));
#1164=DIRECTION('',(0,-0.9999999999999327,3.668604668225821E-07));
#1165=FACE_BOUND('',#1166,.T.);
#1166=EDGE_LOOP('',(#1167,#1168,#1169));
#1167=ORIENTED_EDGE('',*,*,#1170,.T.);
#1168=ORIENTED_EDGE('',*,*,#1171,.T.);
#1169=ORIENTED_EDGE('',*,*,#1172,.T.);
#1170=EDGE_CURVE('',#97,#95,#1173,.F.);
#1171=EDGE_CURVE('',#95,#97,#1174,.T.);
#1172=EDGE_CURVE('',#97,#97,#1175,.T.);
#1173=LINE('',#96,#1176);
#1174=LINE('',#94,#1177);
#1175=LINE('',#96,#1178);
#1176=VECTOR('',#1179,1.0);
#1177=VECTOR('',#1180,1.0);
#1178=VECTOR('',#1181,1.0);
#1179=DIRECTION('',(0,-0.9999999999999327,3.668604668225821E-07));
#1180=DIRECTION('',(0,0.9999999999999327,-3.668604668225821E-07));
#1181=DIRECTION('',(NaN,NaN,NaN));
#1182=FACE_SURFACE('',(#1187),#1183,.T.);
#1183=PLANE('',#1184);
#1184=AXIS2_PLACEMENT_3D('',#98,#1185,#1186);
#1185=DIRECTION('',(NaN,NaN,NaN));
#1186=DIRECTION('',(0,-0.999999999999999,-4.2573895083958234E-08));
#1187=FACE_BOUND('',#1188,.T.);
#1188=EDGE_LOOP('',(#1189,#1190,#1191));
#1189=ORIENTED_EDGE('',*,*,#1192,.T.);
#1190=ORIENTED_EDGE('',*,*,#1193,.T.);
#1191=ORIENTED_EDGE('',*,*,#1194,.T.);
#1192=EDGE_CURVE('',#99,#97,#1195,.F.);
#1193=EDGE_CURVE('',#97,#97,#1196,.T.);
#1194=EDGE_CURVE('',#97,#99,#1197,.T.);
#1195=LINE('',#98,#1198);
#1196=LINE('',#96,#1199);
#1197=LINE('',#96,#1200);
#1198=VECTOR('',#1201,1.0);
#1199=VECTOR('',#1202,1.0);
#1200=VECTOR('',#1203,1.0);
#1201=DIRECTION('',(0,-0.999999999999999,-4.2573895083958234E-08));
#1202=DIRECTION('',(NaN,NaN,NaN));
#1203=DIRECTION('',(0,0.999999999999999,4.2573895083958234E-08));
#1204=FACE_SURFACE('',(#1209),#1205,.T.);
#1205=PLANE('',#1206);
#1206=AXIS2_PLACEMENT_3D('',#98,#1207,#1208);
#1207=DIRECTION('',(NaN,NaN,NaN));
#1208=DIRECTION('',(0,-0.999999999999999,-4.2573895083958234E-08));
#1209=FACE_BOUND('',#1210,.T.);
#1210=EDGE_LOOP('',(#1211,#1212,#1213));
#1211=ORIENTED_EDGE('',*,*,#1214,.T.);
#1212=ORIENTED_EDGE('',*,*,#1215,.T.);
#1213=ORIENTED_EDGE('',*,*,#1216,.T.);
#1214=EDGE_CURVE('',#99,#97,#1217,.F.);
#1215=EDGE_CURVE('',#97,#99,#1218,.T.);
#1216=EDGE_CURVE('',#99,#99,#1219,.T.);
#1217=LINE('',#98,#1220);
#1218=LINE('',#96,#1221);
#1219=LINE('',#98,#1222);
#1220=VECTOR('',#1223,1.0);
#1221=VECTOR('',#1224,1.0);
#1222=VECTOR('',#1225,1.0);
#1223=DIRECTION('',(0,-0.999999999999999,-4.2573895083958234E-08));
#1224=DIRECTION('',(0,0.999999999999999,4.2573895083958234E-08));
#1225=DIRECTION('',(NaN,NaN,NaN));
#1226=FACE_SURFACE('',(#1231),#1227,.T.);
#1227=PLANE('',#1228);
#1228=AXIS2_PLACEMENT_3D('',#96,#1229,#1230);
#1229=DIRECTION('',(-1,0,0));
#1230=DIRECTION('',(0,-0.9999999999999327,3.668604668225821E-07));
#1231=FACE_BOUND('',#1232,.T.);
#1232=EDGE_LOOP('',(#1233,#1234,#1235));
#1233=ORIENTED_EDGE('',*,*,#1236,.T.);
#1234=ORIENTED_EDGE('',*,*,#1237,.T.);
#1235=ORIENTED_EDGE('',*,*,#1238,.T.);
#1236=EDGE_CURVE('',#97,#95,#1239,.F.);
#1237=EDGE_CURVE('',#95,#101,#1240,.T.);
#1238=EDGE_CURVE('',#101,#97,#1241,.T.);
#1239=LINE('',#96,#1242);
#1240=LINE('',#94,#1243);
#1241=LINE('',#100,#1244);
#1242=VECTOR('',#1245,1.0);
#1243=VECTOR('',#1246,1.0);
#1244=VECTOR('',#1247,1.0);
#1245=DIRECTION('',(0,-0.9999999999999327,3.668604668225821E-07));
#1246=DIRECTION('',(0,0,1));
#1247=DIRECTION('',(0,0.30444829030400883,-0.9525288649332188));
#1248=FACE_SURFACE('',(#1253),#1249,.T.);
#1249=PLANE('',#1250);
#1250=AXIS2_PLACEMENT_3D('',#96,#1251,#1252);
#1251=DIRECTION('',(-1,0,0));
#1252=DIRECTION('',(0,-0.30444829030400883,0.9525288649332188));
#1253=FACE_BOUND('',#1254,.T.);
#1254=EDGE_LOOP('',(#1255,#1256,#1257));
#1255=ORIENTED_EDGE('',*,*,#1258,.T.);
#1256=ORIENTED_EDGE('',*,*,#1259,.T.);
#1257=ORIENTED_EDGE('',*,*,#1260,.T.);
#1258=EDGE_CURVE('',#97,#101,#1261,.F.);
#1259=EDGE_CURVE('',#101,#103,#1262,.T.);
#1260=EDGE_CURVE('',#103,#97,#1263,.T.);
#1261=LINE('',#96,#1264);
#1262=LINE('',#100,#1265);
#1263=LINE('',#102,#1266);
#1264=VECTOR('',#1267,1.0);
#1265=VECTOR('',#1268,1.0);
#1266=VECTOR('',#1269,1.0);
#1267=DIRECTION('',(0,-0.30444829030400883,0.9525288649332188));
#1268=DIRECTION('',(0,0.9999999999999327,-3.668604668225821E-07));
#1269=DIRECTION('',(0,0,-1));
#1270=FACE_SURFACE('',(#1275),#1271,.T.);
#1271=PLANE('',#1272);
#1272=AXIS2_PLACEMENT_3D('',#98,#1273,#1274);
#1273=DIRECTION('',(-1,-0,0));
#1274=DIRECTION('',(0,-0.999999999999999,-4.2573895083958234E-08));
#1275=FACE_BOUND('',#1276,.T.);
#1276=EDGE_LOOP('',(#1277,#1278,#1279));
#1277=ORIENTED_EDGE('',*,*,#1280,.T.);
#1278=ORIENTED_EDGE('',*,*,#1281,.T.);
#1279=ORIENTED_EDGE('',*,*,#1282,.T.);
#1280=EDGE_CURVE('',#99,#97,#1283,.F.);
#1281=EDGE_CURVE('',#97,#103,#1284,.T.);
#1282=EDGE_CURVE('',#103,#99,#1285,.T.);
#1283=LINE('',#98,#1286);
#1284=LINE('',#96,#1287);
#1285=LINE('',#102,#1288);
#1286=VECTOR('',#1289,1.0);
#1287=VECTOR('',#1290,1.0);
#1288=VECTOR('',#1291,1.0);
#1289=DIRECTION('',(0,-0.999999999999999,-4.2573895083958234E-08));
#1290=DIRECTION('',(0,0,1));
#1291=DIRECTION('',(0,0.9399600962534351,-0.34128436449862887));
#1292=FACE_SURFACE('',(#1297),#1293,.T.);
#1293=PLANE('',#1294);
#1294=AXIS2_PLACEMENT_3D('',#98,#1295,#1296);
#1295=DIRECTION('',(-1,0,0));
#1296=DIRECTION('',(0,-0.9399600962534351,0.34128436449862887));
#1297=FACE_BOUND('',#1298,.T.);
#1298=EDGE_LOOP('',(#1299,#1300,#1301));
#1299=ORIENTED_EDGE('',*,*,#1302,.T.);
#1300=ORIENTED_EDGE('',*,*,#1303,.T.);
#1301=ORIENTED_EDGE('',*,*,#1304,.T.);
#1302=EDGE_CURVE('',#99,#103,#1305,.F.);
#1303=EDGE_CURVE('',#103,#105,#1306,.T.);
#1304=EDGE_CURVE('',#105,#99,#1307,.T.);
#1305=LINE('',#98,#1308);
#1306=LINE('',#102,#1309);
#1307=LINE('',#104,#1310);
#1308=VECTOR('',#1311,1.0);
#1309=VECTOR('',#1312,1.0);
#1310=VECTOR('',#1313,1.0);
#1311=DIRECTION('',(0,-0.9399600962534351,0.34128436449862887));
#1312=DIRECTION('',(0,0.999999999999999,4.2573895083958234E-08));
#1313=DIRECTION('',(0,0,-1));
#1314=FACE_SURFACE('',(#1319),#1315,.T.);
#1315=PLANE('',#1316);
#1316=AXIS2_PLACEMENT_3D('',#64,#1317,#1318);
#1317=DIRECTION('',(-1.6073027349718678E-08,0,-0.9999999999999999));
#1318=DIRECTION('',(0,1,0));
#1319=FACE_BOUND('',#1320,.T.);
#1320=EDGE_LOOP('',(#1321,#1322,#1323));
#1321=ORIENTED_EDGE('',*,*,#1324,.T.);
#1322=ORIENTED_EDGE('',*,*,#1325,.T.);
#1323=ORIENTED_EDGE('',*,*,#1326,.T.);
#1324=EDGE_CURVE('',#65,#67,#1327,.F.);
#1325=EDGE_CURVE('',#67,#105,#1328,.T.);
#1326=EDGE_CURVE('',#105,#65,#1329,.T.);
#1327=LINE('',#64,#1330);
#1328=LINE('',#66,#1331);
#1329=LINE('',#104,#1332);
#1330=VECTOR('',#1333,1.0);
#1331=VECTOR('',#1334,1.0);
#1332=VECTOR('',#1335,1.0);
#1333=DIRECTION('',(0,1,0));
#1334=DIRECTION('',(0.9939927644414716,0.10944580502696752,-1.597647288829025E-08));
#1335=DIRECTION('',(-0.9548224976179588,-0.2971767118106714,1.5346888118340153E-08));
#1336=FACE_SURFACE('',(#1341),#1337,.T.);
#1337=PLANE('',#1338);
#1338=AXIS2_PLACEMENT_3D('',#102,#1339,#1340);
#1339=DIRECTION('',(-5.646699913278434E-08,-3.6686046682258153E-07,-0.999999999999931));
#1340=DIRECTION('',(0,-0.9999999999999327,3.668604668225821E-07));
#1341=FACE_BOUND('',#1342,.T.);
#1342=EDGE_LOOP('',(#1343,#1344,#1345));
#1343=ORIENTED_EDGE('',*,*,#1346,.T.);
#1344=ORIENTED_EDGE('',*,*,#1347,.T.);
#1345=ORIENTED_EDGE('',*,*,#1348,.T.);
#1346=EDGE_CURVE('',#103,#101,#1349,.F.);
#1347=EDGE_CURVE('',#101,#65,#1350,.T.);
#1348=EDGE_CURVE('',#65,#103,#1351,.T.);
#1349=LINE('',#102,#1352);
#1350=LINE('',#100,#1353);
#1351=LINE('',#64,#1354);
#1352=VECTOR('',#1355,1.0);
#1353=VECTOR('',#1356,1.0);
#1354=VECTOR('',#1357,1.0);
#1355=DIRECTION('',(0,-0.9999999999999327,3.668604668225821E-07));
#1356=DIRECTION('',(-0.9939927713936854,0.10944574188656463,1.5976473000033374E-08));
#1357=DIRECTION('',(0.9978097162629485,-0.06614960416550758,-3.207564571861881E-08));
#1358=FACE_SURFACE('',(#1363),#1359,.T.);
#1359=PLANE('',#1360);
#1360=AXIS2_PLACEMENT_3D('',#104,#1361,#1362);
#1361=DIRECTION('',(-2.9323626473206723E-08,4.2573895083958214E-08,-0.9999999999999987));
#1362=DIRECTION('',(0,-0.999999999999999,-4.2573895083958234E-08));
#1363=FACE_BOUND('',#1364,.T.);
#1364=EDGE_LOOP('',(#1365,#1366,#1367));
#1365=ORIENTED_EDGE('',*,*,#1368,.T.);
#1366=ORIENTED_EDGE('',*,*,#1369,.T.);
#1367=ORIENTED_EDGE('',*,*,#1370,.T.);
#1368=EDGE_CURVE('',#105,#103,#1371,.F.);
#1369=EDGE_CURVE('',#103,#65,#1372,.T.);
#1370=EDGE_CURVE('',#65,#105,#1373,.T.);
#1371=LINE('',#104,#1374);
#1372=LINE('',#102,#1375);
#1373=LINE('',#64,#1376);
#1374=VECTOR('',#1377,1.0);
#1375=VECTOR('',#1378,1.0);
#1376=VECTOR('',#1379,1.0);
#1377=DIRECTION('',(0,-0.999999999999999,-4.2573895083958234E-08));
#1378=DIRECTION('',(-0.9978097162629485,0.06614960416550758,3.207564571861881E-08));
#1379=DIRECTION('',(0.9548224976179588,0.2971767118106714,-1.5346888118340153E-08));
#1380=FACE_SURFACE('',(#1385),#1381,.T.);
#1381=PLANE('',#1382);
#1382=AXIS2_PLACEMENT_3D('',#86,#1383,#1384);
#1383=DIRECTION('',(0,-1,0));
#1384=DIRECTION('',(1,0,0));
#1385=FACE_BOUND('',#1386,.T.);
#1386=EDGE_LOOP('',(#1387,#1388,#1389));
#1387=ORIENTED_EDGE('',*,*,#1390,.T.);
#1388=ORIENTED_EDGE('',*,*,#1391,.T.);
#1389=ORIENTED_EDGE('',*,*,#1392,.T.);
#1390=EDGE_CURVE('',#87,#85,#1393,.F.);
#1391=EDGE_CURVE('',#85,#107,#1394,.T.);
#1392=EDGE_CURVE('',#107,#87,#1395,.T.);
#1393=LINE('',#86,#1396);
#1394=LINE('',#84,#1397);
#1395=LINE('',#106,#1398);
#1396=VECTOR('',#1399,1.0);
#1397=VECTOR('',#1400,1.0);
#1398=VECTOR('',#1401,1.0);
#1399=DIRECTION('',(1,0,0));
#1400=DIRECTION('',(0,0,1));
#1401=DIRECTION('',(-0.9896175550019275,0,-0.143725762589757));
#1402=FACE_SURFACE('',(#1407),#1403,.T.);
#1403=PLANE('',#1404);
#1404=AXIS2_PLACEMENT_3D('',#86,#1405,#1406);
#1405=DIRECTION('',(0,-1,0));
#1406=DIRECTION('',(0.9896175550019275,0,0.143725762589757));
#1407=FACE_BOUND('',#1408,.T.);
#1408=EDGE_LOOP('',(#1409,#1410,#1411));
#1409=ORIENTED_EDGE('',*,*,#1412,.T.);
#1410=ORIENTED_EDGE('',*,*,#1413,.T.);
#1411=ORIENTED_EDGE('',*,*,#1414,.T.);
#1412=EDGE_CURVE('',#87,#107,#1415,.F.);
#1413=EDGE_CURVE('',#107,#109,#1416,.T.);
#1414=EDGE_CURVE('',#109,#87,#1417,.T.);
#1415=LINE('',#86,#1418);
#1416=LINE('',#106,#1419);
#1417=LINE('',#108,#1420);
#1418=VECTOR('',#1421,1.0);
#1419=VECTOR('',#1422,1.0);
#1420=VECTOR('',#1423,1.0);
#1421=DIRECTION('',(0.9896175550019275,0,0.143725762589757));
#1422=DIRECTION('',(-0.9999999999999999,0,-1.7029564413714328E-08));
#1423=DIRECTION('',(0,0,-1));
#1424=FACE_SURFACE('',(#1429),#1425,.T.);
#1425=PLANE('',#1426);
#1426=AXIS2_PLACEMENT_3D('',#66,#1427,#1428);
#1427=DIRECTION('',(3.0120672450035217E-07,0,-0.9999999999999547));
#1428=DIRECTION('',(-0.9999999999992288,1.204826898000534E-06,-3.012067245001335E-07));
#1429=FACE_BOUND('',#1430,.T.);
#1430=EDGE_LOOP('',(#1431,#1432,#1433));
#1431=ORIENTED_EDGE('',*,*,#1434,.T.);
#1432=ORIENTED_EDGE('',*,*,#1435,.T.);
#1433=ORIENTED_EDGE('',*,*,#1436,.T.);
#1434=EDGE_CURVE('',#67,#81,#1437,.F.);
#1435=EDGE_CURVE('',#81,#109,#1438,.T.);
#1436=EDGE_CURVE('',#109,#67,#1439,.T.);
#1437=LINE('',#66,#1440);
#1438=LINE('',#80,#1441);
#1439=LINE('',#108,#1442);
#1440=VECTOR('',#1443,1.0);
#1441=VECTOR('',#1444,1.0);
#1442=VECTOR('',#1445,1.0);
#1443=DIRECTION('',(-0.9999999999992288,1.204826898000534E-06,-3.012067245001335E-07));
#1444=DIRECTION('',(0,1,0));
#1445=DIRECTION('',(0.43611986230795385,-0.8998885851595597,1.3136223521532932E-07));
#1446=FACE_SURFACE('',(#1451),#1447,.T.);
#1447=PLANE('',#1448);
#1448=AXIS2_PLACEMENT_3D('',#106,#1449,#1450);
#1449=DIRECTION('',(-1.4674366991820581E-07,1.1867578954351103E-06,-0.999999999999285));
#1450=DIRECTION('',(0.9999999999999892,0,-1.4674366991830915E-07));
#1451=FACE_BOUND('',#1452,.T.);
#1452=EDGE_LOOP('',(#1453,#1454,#1455));
#1453=ORIENTED_EDGE('',*,*,#1456,.T.);
#1454=ORIENTED_EDGE('',*,*,#1457,.T.);
#1455=ORIENTED_EDGE('',*,*,#1458,.T.);
#1456=EDGE_CURVE('',#107,#105,#1459,.F.);
#1457=EDGE_CURVE('',#105,#67,#1460,.T.);
#1458=EDGE_CURVE('',#67,#107,#1461,.T.);
#1459=LINE('',#106,#1462);
#1460=LINE('',#104,#1463);
#1461=LINE('',#66,#1464);
#1462=VECTOR('',#1465,1.0);
#1463=VECTOR('',#1466,1.0);
#1464=VECTOR('',#1467,1.0);
#1465=DIRECTION('',(0.9999999999999892,0,-1.4674366991830915E-07));
#1466=DIRECTION('',(-0.9939927644414716,-0.10944580502696752,1.597647288829025E-08));
#1467=DIRECTION('',(0.9924417902909853,0.12271631058675068,0));
#1468=FACE_SURFACE('',(#1473),#1469,.T.);
#1469=PLANE('',#1470);
#1470=AXIS2_PLACEMENT_3D('',#108,#1471,#1472);
#1471=DIRECTION('',(1.7029564413714166E-08,-1.3772294256413927E-07,-0.9999999999999903));
#1472=DIRECTION('',(0.9999999999999999,0,1.7029564413714328E-08));
#1473=FACE_BOUND('',#1474,.T.);
#1474=EDGE_LOOP('',(#1475,#1476,#1477));
#1475=ORIENTED_EDGE('',*,*,#1478,.T.);
#1476=ORIENTED_EDGE('',*,*,#1479,.T.);
#1477=ORIENTED_EDGE('',*,*,#1480,.T.);
#1478=EDGE_CURVE('',#109,#107,#1481,.F.);
#1479=EDGE_CURVE('',#107,#67,#1482,.T.);
#1480=EDGE_CURVE('',#67,#109,#1483,.T.);
#1481=LINE('',#108,#1484);
#1482=LINE('',#106,#1485);
#1483=LINE('',#66,#1486);
#1484=VECTOR('',#1487,1.0);
#1485=VECTOR('',#1488,1.0);
#1486=VECTOR('',#1489,1.0);
#1487=DIRECTION('',(0.9999999999999999,0,1.7029564413714328E-08));
#1488=DIRECTION('',(-0.9924417902909853,-0.12271631058675068,0));
#1489=DIRECTION('',(-0.43611986230795385,0.8998885851595597,-1.3136223521532932E-07));
#1490=FACE_SURFACE('',(#1495),#1491,.T.);
#1491=PLANE('',#1492);
#1492=AXIS2_PLACEMENT_3D('',#104,#1493,#1494);
#1493=DIRECTION('',(-0,-1,0));
#1494=DIRECTION('',(-0.9999999999999892,0,1.4674366991830915E-07));
#1495=FACE_BOUND('',#1496,.T.);
#1496=EDGE_LOOP('',(#1497,#1498,#1499));
#1497=ORIENTED_EDGE('',*,*,#1500,.T.);
#1498=ORIENTED_EDGE('',*,*,#1501,.T.);
#1499=ORIENTED_EDGE('',*,*,#1502,.T.);
#1500=EDGE_CURVE('',#105,#107,#1503,.F.);
#1501=EDGE_CURVE('',#107,#85,#1504,.T.);
#1502=EDGE_CURVE('',#85,#105,#1505,.T.);
#1503=LINE('',#104,#1506);
#1504=LINE('',#106,#1507);
#1505=LINE('',#84,#1508);
#1506=VECTOR('',#1509,1.0);
#1507=VECTOR('',#1510,1.0);
#1508=VECTOR('',#1511,1.0);
#1509=DIRECTION('',(-0.9999999999999892,0,1.4674366991830915E-07));
#1510=DIRECTION('',(0,0,-1));
#1511=DIRECTION('',(0.6242450564718693,0,0.7812285897677022));
#1512=FACE_SURFACE('',(#1517),#1513,.T.);
#1513=PLANE('',#1514);
#1514=AXIS2_PLACEMENT_3D('',#98,#1515,#1516);
#1515=DIRECTION('',(NaN,NaN,NaN));
#1516=DIRECTION('',(NaN,NaN,NaN));
#1517=FACE_BOUND('',#1518,.T.);
#1518=EDGE_LOOP('',(#1519,#1520,#1521));
#1519=ORIENTED_EDGE('',*,*,#1522,.T.);
#1520=ORIENTED_EDGE('',*,*,#1523,.T.);
#1521=ORIENTED_EDGE('',*,*,#1524,.T.);
#1522=EDGE_CURVE('',#99,#99,#1525,.F.);
#1523=EDGE_CURVE('',#99,#105,#1526,.T.);
#1524=EDGE_CURVE('',#105,#99,#1527,.T.);
#1525=LINE('',#98,#1528);
#1526=LINE('',#98,#1529);
#1527=LINE('',#104,#1530);
#1528=VECTOR('',#1531,1.0);
#1529=VECTOR('',#1532,1.0);
#1530=VECTOR('',#1533,1.0);
#1531=DIRECTION('',(NaN,NaN,NaN));
#1532=DIRECTION('',(0,0,1));
#1533=DIRECTION('',(0,0,-1));
#1534=FACE_SURFACE('',(#1539),#1535,.T.);
#1535=PLANE('',#1536);
#1536=AXIS2_PLACEMENT_3D('',#98,#1537,#1538);
#1537=DIRECTION('',(0,-1,0));
#1538=DIRECTION('',(0,0,1));
#1539=FACE_BOUND('',#1540,.T.);
#1540=EDGE_LOOP('',(#1541,#1542,#1543));
#1541=ORIENTED_EDGE('',*,*,#1544,.T.);
#1542=ORIENTED_EDGE('',*,*,#1545,.T.);
#1543=ORIENTED_EDGE('',*,*,#1546,.T.);
#1544=EDGE_CURVE('',#99,#105,#1547,.F.);
#1545=EDGE_CURVE('',#105,#85,#1548,.T.);
#1546=EDGE_CURVE('',#85,#99,#1549,.T.);
#1547=LINE('',#98,#1550);
#1548=LINE('',#104,#1551);
#1549=LINE('',#84,#1552);
#1550=VECTOR('',#1553,1.0);
#1551=VECTOR('',#1554,1.0);
#1552=VECTOR('',#1555,1.0);
#1553=DIRECTION('',(0,0,1));
#1554=DIRECTION('',(-0.6242450564718693,0,-0.7812285897677022));
#1555=DIRECTION('',(1,0,0));
#1556=FACE_SURFACE('',(#1561),#1557,.T.);
#1557=PLANE('',#1558);
#1558=AXIS2_PLACEMENT_3D('',#94,#1559,#1560);
#1559=DIRECTION('',(0,1,0));
#1560=DIRECTION('',(-1,0,0));
#1561=FACE_BOUND('',#1562,.T.);
#1562=EDGE_LOOP('',(#1563,#1564,#1565));
#1563=ORIENTED_EDGE('',*,*,#1566,.T.);
#1564=ORIENTED_EDGE('',*,*,#1567,.T.);
#1565=ORIENTED_EDGE('',*,*,#1568,.T.);
#1566=EDGE_CURVE('',#95,#93,#1569,.F.);
#1567=EDGE_CURVE('',#93,#111,#1570,.T.);
#1568=EDGE_CURVE('',#111,#95,#1571,.T.);
#1569=LINE('',#94,#1572);
#1570=LINE('',#92,#1573);
#1571=LINE('',#110,#1574);
#1572=VECTOR('',#1575,1.0);
#1573=VECTOR('',#1576,1.0);
#1574=VECTOR('',#1577,1.0);
#1575=DIRECTION('',(-1,0,0));
#1576=DIRECTION('',(0,0,1));
#1577=DIRECTION('',(0.9896175553500564,0,-0.14372576019272995));
#1578=FACE_SURFACE('',(#1583),#1579,.T.);
#1579=PLANE('',#1580);
#1580=AXIS2_PLACEMENT_3D('',#94,#1581,#1582);
#1581=DIRECTION('',(0,1,-0));
#1582=DIRECTION('',(-0.9896175553500564,0,0.14372576019272995));
#1583=FACE_BOUND('',#1584,.T.);
#1584=EDGE_LOOP('',(#1585,#1586,#1587));
#1585=ORIENTED_EDGE('',*,*,#1588,.T.);
#1586=ORIENTED_EDGE('',*,*,#1589,.T.);
#1587=ORIENTED_EDGE('',*,*,#1590,.T.);
#1588=EDGE_CURVE('',#95,#111,#1591,.F.);
#1589=EDGE_CURVE('',#111,#101,#1592,.T.);
#1590=EDGE_CURVE('',#101,#95,#1593,.T.);
#1591=LINE('',#94,#1594);
#1592=LINE('',#110,#1595);
#1593=LINE('',#100,#1596);
#1594=VECTOR('',#1597,1.0);
#1595=VECTOR('',#1598,1.0);
#1596=VECTOR('',#1599,1.0);
#1597=DIRECTION('',(-0.9896175553500564,0,0.14372576019272995));
#1598=DIRECTION('',(0.9999999999999999,0,-1.702956412370827E-08));
#1599=DIRECTION('',(0,0,-1));
#1600=FACE_SURFACE('',(#1605),#1601,.T.);
#1601=PLANE('',#1602);
#1602=AXIS2_PLACEMENT_3D('',#64,#1603,#1604);
#1603=DIRECTION('',(-1.702956412370827E-08,-8.68732417112525E-09,-0.9999999999999999));
#1604=DIRECTION('',(0.9939927713936854,-0.10944574188656463,-1.5976473000033374E-08));
#1605=FACE_BOUND('',#1606,.T.);
#1606=EDGE_LOOP('',(#1607,#1608,#1609));
#1607=ORIENTED_EDGE('',*,*,#1610,.T.);
#1608=ORIENTED_EDGE('',*,*,#1611,.T.);
#1609=ORIENTED_EDGE('',*,*,#1612,.T.);
#1610=EDGE_CURVE('',#65,#101,#1613,.F.);
#1611=EDGE_CURVE('',#101,#111,#1614,.T.);
#1612=EDGE_CURVE('',#111,#65,#1615,.T.);
#1613=LINE('',#64,#1616);
#1614=LINE('',#100,#1617);
#1615=LINE('',#110,#1618);
#1616=VECTOR('',#1619,1.0);
#1617=VECTOR('',#1620,1.0);
#1618=VECTOR('',#1621,1.0);
#1619=DIRECTION('',(0.9939927713936854,-0.10944574188656463,-1.5976473000033374E-08));
#1620=DIRECTION('',(-0.9999999999999999,0,1.702956412370827E-08));
#1621=DIRECTION('',(-0.4544193339922531,0.8907878922021993,0));
#1622=FACE_SURFACE('',(#1627),#1623,.T.);
#1623=PLANE('',#1624);
#1624=AXIS2_PLACEMENT_3D('',#100,#1625,#1626);
#1625=DIRECTION('',(NaN,NaN,NaN));
#1626=DIRECTION('',(NaN,NaN,NaN));
#1627=FACE_BOUND('',#1628,.T.);
#1628=EDGE_LOOP('',(#1629,#1630,#1631));
#1629=ORIENTED_EDGE('',*,*,#1632,.T.);
#1630=ORIENTED_EDGE('',*,*,#1633,.T.);
#1631=ORIENTED_EDGE('',*,*,#1634,.T.);
#1632=EDGE_CURVE('',#101,#101,#1635,.F.);
#1633=EDGE_CURVE('',#101,#111,#1636,.T.);
#1634=EDGE_CURVE('',#111,#101,#1637,.T.);
#1635=LINE('',#100,#1638);
#1636=LINE('',#100,#1639);
#1637=LINE('',#110,#1640);
#1638=VECTOR('',#1641,1.0);
#1639=VECTOR('',#1642,1.0);
#1640=VECTOR('',#1643,1.0);
#1641=DIRECTION('',(NaN,NaN,NaN));
#1642=DIRECTION('',(-0.9999999999999999,0,1.702956412370827E-08));
#1643=DIRECTION('',(0.9999999999999999,0,-1.702956412370827E-08));
#1644=FACE_SURFACE('',(#1649),#1645,.T.);
#1645=PLANE('',#1646);
#1646=AXIS2_PLACEMENT_3D('',#92,#1647,#1648);
#1647=DIRECTION('',(0,1,0));
#1648=DIRECTION('',(-1,0,0));
#1649=FACE_BOUND('',#1650,.T.);
#1650=EDGE_LOOP('',(#1651,#1652,#1653));
#1651=ORIENTED_EDGE('',*,*,#1654,.T.);
#1652=ORIENTED_EDGE('',*,*,#1655,.T.);
#1653=ORIENTED_EDGE('',*,*,#1656,.T.);
#1654=EDGE_CURVE('',#93,#91,#1657,.F.);
#1655=EDGE_CURVE('',#91,#113,#1658,.T.);
#1656=EDGE_CURVE('',#113,#93,#1659,.T.);
#1657=LINE('',#92,#1660);
#1658=LINE('',#90,#1661);
#1659=LINE('',#112,#1662);
#1660=VECTOR('',#1663,1.0);
#1661=VECTOR('',#1664,1.0);
#1662=VECTOR('',#1665,1.0);
#1663=DIRECTION('',(-1,0,0));
#1664=DIRECTION('',(0,0,1));
#1665=DIRECTION('',(0.6242451795213229,0,-0.781228491444335));
#1666=FACE_SURFACE('',(#1671),#1667,.T.);
#1667=PLANE('',#1668);
#1668=AXIS2_PLACEMENT_3D('',#92,#1669,#1670);
#1669=DIRECTION('',(0,1,-0));
#1670=DIRECTION('',(-0.6242451795213229,0,0.781228491444335));
#1671=FACE_BOUND('',#1672,.T.);
#1672=EDGE_LOOP('',(#1673,#1674,#1675));
#1673=ORIENTED_EDGE('',*,*,#1676,.T.);
#1674=ORIENTED_EDGE('',*,*,#1677,.T.);
#1675=ORIENTED_EDGE('',*,*,#1678,.T.);
#1676=EDGE_CURVE('',#93,#113,#1679,.F.);
#1677=EDGE_CURVE('',#113,#111,#1680,.T.);
#1678=EDGE_CURVE('',#111,#93,#1681,.T.);
#1679=LINE('',#92,#1682);
#1680=LINE('',#112,#1683);
#1681=LINE('',#110,#1684);
#1682=VECTOR('',#1685,1.0);
#1683=VECTOR('',#1686,1.0);
#1684=VECTOR('',#1687,1.0);
#1685=DIRECTION('',(-0.6242451795213229,0,0.781228491444335));
#1686=DIRECTION('',(1,0,0));
#1687=DIRECTION('',(0,0,-1));
#1688=FACE_SURFACE('',(#1693),#1689,.T.);
#1689=PLANE('',#1690);
#1690=AXIS2_PLACEMENT_3D('',#74,#1691,#1692);
#1691=DIRECTION('',(3.0120672450034857E-07,1.5365516341163683E-07,-0.9999999999999428));
#1692=DIRECTION('',(0.9999999999999547,0,3.0120672450035217E-07));
#1693=FACE_BOUND('',#1694,.T.);
#1694=EDGE_LOOP('',(#1695,#1696,#1697));
#1695=ORIENTED_EDGE('',*,*,#1698,.T.);
#1696=ORIENTED_EDGE('',*,*,#1699,.T.);
#1697=ORIENTED_EDGE('',*,*,#1700,.T.);
#1698=EDGE_CURVE('',#75,#65,#1701,.F.);
#1699=EDGE_CURVE('',#65,#111,#1702,.T.);
#1700=EDGE_CURVE('',#111,#75,#1703,.T.);
#1701=LINE('',#74,#1704);
#1702=LINE('',#64,#1705);
#1703=LINE('',#110,#1706);
#1704=VECTOR('',#1707,1.0);
#1705=VECTOR('',#1708,1.0);
#1706=VECTOR('',#1709,1.0);
#1707=DIRECTION('',(0.9999999999999547,0,3.0120672450035217E-07));
#1708=DIRECTION('',(0.4544193339922531,-0.8907878922021993,0));
#1709=DIRECTION('',(-0.705250360399392,0.7089583409175162,-1.0349104128287327E-07));
#1710=FACE_SURFACE('',(#1715),#1711,.T.);
#1711=PLANE('',#1712);
#1712=AXIS2_PLACEMENT_3D('',#74,#1713,#1714);
#1713=DIRECTION('',(0,-1.4597619536986708E-07,-0.9999999999999893));
#1714=DIRECTION('',(0.705250360399392,-0.7089583409175162,1.0349104128287327E-07));
#1715=FACE_BOUND('',#1716,.T.);
#1716=EDGE_LOOP('',(#1717,#1718,#1719));
#1717=ORIENTED_EDGE('',*,*,#1720,.T.);
#1718=ORIENTED_EDGE('',*,*,#1721,.T.);
#1719=ORIENTED_EDGE('',*,*,#1722,.T.);
#1720=EDGE_CURVE('',#75,#111,#1723,.F.);
#1721=EDGE_CURVE('',#111,#113,#1724,.T.);
#1722=EDGE_CURVE('',#113,#75,#1725,.T.);
#1723=LINE('',#74,#1726);
#1724=LINE('',#110,#1727);
#1725=LINE('',#112,#1728);
#1726=VECTOR('',#1729,1.0);
#1727=VECTOR('',#1730,1.0);
#1728=VECTOR('',#1731,1.0);
#1729=DIRECTION('',(0.705250360399392,-0.7089583409175162,1.0349104128287327E-07));
#1730=DIRECTION('',(-1,0,0));
#1731=DIRECTION('',(5.839047814793689E-07,0.9999999999998189,-1.4597619536984222E-07));
#1732=FACE_SURFACE('',(#1737),#1733,.T.);
#1733=PLANE('',#1734);
#1734=AXIS2_PLACEMENT_3D('',#74,#1735,#1736);
#1735=DIRECTION('',(NaN,NaN,NaN));
#1736=DIRECTION('',(0,0,-1));
#1737=FACE_BOUND('',#1738,.T.);
#1738=EDGE_LOOP('',(#1739,#1740,#1741));
#1739=ORIENTED_EDGE('',*,*,#1742,.T.);
#1740=ORIENTED_EDGE('',*,*,#1743,.T.);
#1741=ORIENTED_EDGE('',*,*,#1744,.T.);
#1742=EDGE_CURVE('',#75,#73,#1745,.F.);
#1743=EDGE_CURVE('',#73,#71,#1746,.T.);
#1744=EDGE_CURVE('',#71,#75,#1747,.T.);
#1745=LINE('',#74,#1748);
#1746=LINE('',#72,#1749);
#1747=LINE('',#70,#1750);
#1748=VECTOR('',#1751,1.0);
#1749=VECTOR('',#1752,1.0);
#1750=VECTOR('',#1753,1.0);
#1751=DIRECTION('',(0,0,-1));
#1752=DIRECTION('',(0,0,-1));
#1753=DIRECTION('',(0,0,1));
#1754=FACE_SURFACE('',(#1759),#1755,.T.);
#1755=PLANE('',#1756);
#1756=AXIS2_PLACEMENT_3D('',#74,#1757,#1758);
#1757=DIRECTION('',(NaN,NaN,NaN));
#1758=DIRECTION('',(0,0,-1));
#1759=FACE_BOUND('',#1760,.T.);
#1760=EDGE_LOOP('',(#1761,#1762,#1763));
#1761=ORIENTED_EDGE('',*,*,#1764,.T.);
#1762=ORIENTED_EDGE('',*,*,#1765,.T.);
#1763=ORIENTED_EDGE('',*,*,#1766,.T.);
#1764=EDGE_CURVE('',#75,#71,#1767,.F.);
#1765=EDGE_CURVE('',#71,#73,#1768,.T.);
#1766=EDGE_CURVE('',#73,#75,#1769,.T.);
#1767=LINE('',#74,#1770);
#1768=LINE('',#70,#1771);
#1769=LINE('',#72,#1772);
#1770=VECTOR('',#1773,1.0);
#1771=VECTOR('',#1774,1.0);
#1772=VECTOR('',#1775,1.0);
#1773=DIRECTION('',(0,0,-1));
#1774=DIRECTION('',(0,0,1));
#1775=DIRECTION('',(0,0,1));
#1776=FACE_SURFACE('',(#1781),#1777,.T.);
#1777=PLANE('',#1778);
#1778=AXIS2_PLACEMENT_3D('',#74,#1779,#1780);
#1779=DIRECTION('',(0.9999999999998295,-5.83904781479375E-07,0));
#1780=DIRECTION('',(-5.839047814793689E-07,-0.9999999999998189,1.4597619536984222E-07));
#1781=FACE_BOUND('',#1782,.T.);
#1782=EDGE_LOOP('',(#1783,#1784,#1785));
#1783=ORIENTED_EDGE('',*,*,#1786,.T.);
#1784=ORIENTED_EDGE('',*,*,#1787,.T.);
#1785=ORIENTED_EDGE('',*,*,#1788,.T.);
#1786=EDGE_CURVE('',#75,#113,#1789,.F.);
#1787=EDGE_CURVE('',#113,#91,#1790,.T.);
#1788=EDGE_CURVE('',#91,#75,#1791,.T.);
#1789=LINE('',#74,#1792);
#1790=LINE('',#112,#1793);
#1791=LINE('',#90,#1794);
#1792=VECTOR('',#1795,1.0);
#1793=VECTOR('',#1796,1.0);
#1794=VECTOR('',#1797,1.0);
#1795=DIRECTION('',(-5.839047814793689E-07,-0.9999999999998189,1.4597619536984222E-07));
#1796=DIRECTION('',(0,0,-1));
#1797=DIRECTION('',(3.6566567949608625E-07,0.6262419680304333,0.7796287561892752));
#1798=FACE_SURFACE('',(#1803),#1799,.T.);
#1799=PLANE('',#1800);
#1800=AXIS2_PLACEMENT_3D('',#70,#1801,#1802);
#1801=DIRECTION('',(NaN,NaN,NaN));
#1802=DIRECTION('',(0,0,1));
#1803=FACE_BOUND('',#1804,.T.);
#1804=EDGE_LOOP('',(#1805,#1806,#1807));
#1805=ORIENTED_EDGE('',*,*,#1808,.T.);
#1806=ORIENTED_EDGE('',*,*,#1809,.T.);
#1807=ORIENTED_EDGE('',*,*,#1810,.T.);
#1808=EDGE_CURVE('',#71,#73,#1811,.F.);
#1809=EDGE_CURVE('',#73,#73,#1812,.T.);
#1810=EDGE_CURVE('',#73,#71,#1813,.T.);
#1811=LINE('',#70,#1814);
#1812=LINE('',#72,#1815);
#1813=LINE('',#72,#1816);
#1814=VECTOR('',#1817,1.0);
#1815=VECTOR('',#1818,1.0);
#1816=VECTOR('',#1819,1.0);
#1817=DIRECTION('',(0,0,1));
#1818=DIRECTION('',(NaN,NaN,NaN));
#1819=DIRECTION('',(0,0,-1));
#1820=FACE_SURFACE('',(#1825),#1821,.T.);
#1821=PLANE('',#1822);
#1822=AXIS2_PLACEMENT_3D('',#72,#1823,#1824);
#1823=DIRECTION('',(0.9999999999998296,-5.83904781479375E-07,0));
#1824=DIRECTION('',(0,0,1));
#1825=FACE_BOUND('',#1826,.T.);
#1826=EDGE_LOOP('',(#1827,#1828,#1829));
#1827=ORIENTED_EDGE('',*,*,#1830,.T.);
#1828=ORIENTED_EDGE('',*,*,#1831,.T.);
#1829=ORIENTED_EDGE('',*,*,#1832,.T.);
#1830=EDGE_CURVE('',#73,#75,#1833,.F.);
#1831=EDGE_CURVE('',#75,#91,#1834,.T.);
#1832=EDGE_CURVE('',#91,#73,#1835,.T.);
#1833=LINE('',#72,#1836);
#1834=LINE('',#74,#1837);
#1835=LINE('',#90,#1838);
#1836=VECTOR('',#1839,1.0);
#1837=VECTOR('',#1840,1.0);
#1838=VECTOR('',#1841,1.0);
#1839=DIRECTION('',(0,0,1));
#1840=DIRECTION('',(-3.6566567949608625E-07,-0.6262419680304333,-0.7796287561892752));
#1841=DIRECTION('',(4.379435911913079E-07,0.7500256978229635,0.6614086880325847));
#1842=FACE_SURFACE('',(#1847),#1843,.T.);
#1843=PLANE('',#1844);
#1844=AXIS2_PLACEMENT_3D('',#90,#1845,#1846);
#1845=DIRECTION('',(0.9999999999998296,-5.83904781479375E-07,0));
#1846=DIRECTION('',(5.83904781479375E-07,0.9999999999998295,0));
#1847=FACE_BOUND('',#1848,.T.);
#1848=EDGE_LOOP('',(#1849,#1850,#1851));
#1849=ORIENTED_EDGE('',*,*,#1852,.T.);
#1850=ORIENTED_EDGE('',*,*,#1853,.T.);
#1851=ORIENTED_EDGE('',*,*,#1854,.T.);
#1852=EDGE_CURVE('',#91,#71,#1855,.F.);
#1853=EDGE_CURVE('',#71,#73,#1856,.T.);
#1854=EDGE_CURVE('',#73,#91,#1857,.T.);
#1855=LINE('',#90,#1858);
#1856=LINE('',#70,#1859);
#1857=LINE('',#72,#1860);
#1858=VECTOR('',#1861,1.0);
#1859=VECTOR('',#1862,1.0);
#1860=VECTOR('',#1863,1.0);
#1861=DIRECTION('',(5.83904781479375E-07,0.9999999999998295,0));
#1862=DIRECTION('',(0,0,1));
#1863=DIRECTION('',(-4.379435911913079E-07,-0.7500256978229635,-0.6614086880325847));
#1864=FACE_SURFACE('',(#1869),#1865,.T.);
#1865=PLANE('',#1866);
#1866=AXIS2_PLACEMENT_3D('',#82,#1867,#1868);
#1867=DIRECTION('',(NaN,NaN,NaN));
#1868=DIRECTION('',(0,0,-1));
#1869=FACE_BOUND('',#1870,.T.);
#1870=EDGE_LOOP('',(#1871,#1872,#1873));
#1871=ORIENTED_EDGE('',*,*,#1874,.T.);
#1872=ORIENTED_EDGE('',*,*,#1875,.T.);
#1873=ORIENTED_EDGE('',*,*,#1876,.T.);
#1874=EDGE_CURVE('',#83,#79,#1877,.F.);
#1875=EDGE_CURVE('',#79,#79,#1878,.T.);
#1876=EDGE_CURVE('',#79,#83,#1879,.T.);
#1877=LINE('',#82,#1880);
#1878=LINE('',#78,#1881);
#1879=LINE('',#78,#1882);
#1880=VECTOR('',#1883,1.0);
#1881=VECTOR('',#1884,1.0);
#1882=VECTOR('',#1885,1.0);
#1883=DIRECTION('',(0,0,-1));
#1884=DIRECTION('',(NaN,NaN,NaN));
#1885=DIRECTION('',(0,0,1));
#1886=FACE_SURFACE('',(#1891),#1887,.T.);
#1887=PLANE('',#1888);
#1888=AXIS2_PLACEMENT_3D('',#78,#1889,#1890);
#1889=DIRECTION('',(0.9999999999998296,5.839044405347803E-07,0));
#1890=DIRECTION('',(0,0,-1));
#1891=FACE_BOUND('',#1892,.T.);
#1892=EDGE_LOOP('',(#1893,#1894,#1895));
#1893=ORIENTED_EDGE('',*,*,#1896,.T.);
#1894=ORIENTED_EDGE('',*,*,#1897,.T.);
#1895=ORIENTED_EDGE('',*,*,#1898,.T.);
#1896=EDGE_CURVE('',#79,#77,#1899,.F.);
#1897=EDGE_CURVE('',#77,#89,#1900,.T.);
#1898=EDGE_CURVE('',#89,#79,#1901,.T.);
#1899=LINE('',#78,#1902);
#1900=LINE('',#76,#1903);
#1901=LINE('',#88,#1904);
#1902=VECTOR('',#1905,1.0);
#1903=VECTOR('',#1906,1.0);
#1904=VECTOR('',#1907,1.0);
#1905=DIRECTION('',(0,0,-1));
#1906=DIRECTION('',(-5.839044405347802E-07,0.9999999999998295,0));
#1907=DIRECTION('',(5.704329215321163E-07,-0.9769285553121962,0.2135663780076344));
#1908=FACE_SURFACE('',(#1913),#1909,.T.);
#1909=PLANE('',#1910);
#1910=AXIS2_PLACEMENT_3D('',#82,#1911,#1912);
#1911=DIRECTION('',(0.9999999999998295,5.839044405347803E-07,0));
#1912=DIRECTION('',(0,0,-1));
#1913=FACE_BOUND('',#1914,.T.);
#1914=EDGE_LOOP('',(#1915,#1916,#1917));
#1915=ORIENTED_EDGE('',*,*,#1918,.T.);
#1916=ORIENTED_EDGE('',*,*,#1919,.T.);
#1917=ORIENTED_EDGE('',*,*,#1920,.T.);
#1918=EDGE_CURVE('',#83,#79,#1921,.F.);
#1919=EDGE_CURVE('',#79,#89,#1922,.T.);
#1920=EDGE_CURVE('',#89,#83,#1923,.T.);
#1921=LINE('',#82,#1924);
#1922=LINE('',#78,#1925);
#1923=LINE('',#88,#1926);
#1924=VECTOR('',#1927,1.0);
#1925=VECTOR('',#1928,1.0);
#1926=VECTOR('',#1929,1.0);
#1927=DIRECTION('',(0,0,-1));
#1928=DIRECTION('',(-5.704329215321163E-07,0.9769285553121962,-0.2135663780076344));
#1929=DIRECTION('',(3.65665595760407E-07,-0.6262421902896349,0.7796285776580455));
#1930=FACE_SURFACE('',(#1935),#1931,.T.);
#1931=PLANE('',#1932);
#1932=AXIS2_PLACEMENT_3D('',#108,#1933,#1934);
#1933=DIRECTION('',(NaN,NaN,NaN));
#1934=DIRECTION('',(0,-1,0));
#1935=FACE_BOUND('',#1936,.T.);
#1936=EDGE_LOOP('',(#1937,#1938,#1939));
#1937=ORIENTED_EDGE('',*,*,#1940,.T.);
#1938=ORIENTED_EDGE('',*,*,#1941,.T.);
#1939=ORIENTED_EDGE('',*,*,#1942,.T.);
#1940=EDGE_CURVE('',#109,#81,#1943,.F.);
#1941=EDGE_CURVE('',#81,#83,#1944,.T.);
#1942=EDGE_CURVE('',#83,#109,#1945,.T.);
#1943=LINE('',#108,#1946);
#1944=LINE('',#80,#1947);
#1945=LINE('',#82,#1948);
#1946=VECTOR('',#1949,1.0);
#1947=VECTOR('',#1950,1.0);
#1948=VECTOR('',#1951,1.0);
#1949=DIRECTION('',(0,-1,0));
#1950=DIRECTION('',(0,-1,0));
#1951=DIRECTION('',(0,1,0));
#1952=FACE_SURFACE('',(#1957),#1953,.T.);
#1953=PLANE('',#1954);
#1954=AXIS2_PLACEMENT_3D('',#108,#1955,#1956);
#1955=DIRECTION('',(0.99999999999989,0,-4.690253875233806E-07));
#1956=DIRECTION('',(0,-1,0));
#1957=FACE_BOUND('',#1958,.T.);
#1958=EDGE_LOOP('',(#1959,#1960,#1961));
#1959=ORIENTED_EDGE('',*,*,#1962,.T.);
#1960=ORIENTED_EDGE('',*,*,#1963,.T.);
#1961=ORIENTED_EDGE('',*,*,#1964,.T.);
#1962=EDGE_CURVE('',#109,#83,#1965,.F.);
#1963=EDGE_CURVE('',#83,#89,#1966,.T.);
#1964=EDGE_CURVE('',#89,#109,#1967,.T.);
#1965=LINE('',#108,#1968);
#1966=LINE('',#82,#1969);
#1967=LINE('',#88,#1970);
#1968=VECTOR('',#1971,1.0);
#1969=VECTOR('',#1972,1.0);
#1970=VECTOR('',#1973,1.0);
#1971=DIRECTION('',(0,-1,0));
#1972=DIRECTION('',(-3.65665595760407E-07,0.6262421902896349,-0.7796285776580455));
#1973=DIRECTION('',(4.690253875233806E-07,0,0.99999999999989));
#1974=FACE_SURFACE('',(#1979),#1975,.T.);
#1975=PLANE('',#1976);
#1976=AXIS2_PLACEMENT_3D('',#114,#1977,#1978);
#1977=DIRECTION('',(0,0,1));
#1978=DIRECTION('',(1,0,0));
#1979=FACE_BOUND('',#1980,.T.);
#1980=EDGE_LOOP('',(#1981,#1982,#1983));
#1981=ORIENTED_EDGE('',*,*,#1984,.T.);
#1982=ORIENTED_EDGE('',*,*,#1985,.T.);
#1983=ORIENTED_EDGE('',*,*,#1986,.T.);
#1984=EDGE_CURVE('',#115,#41,#1987,.F.);
#1985=EDGE_CURVE('',#41,#39,#1988,.T.);
#1986=EDGE_CURVE('',#39,#115,#1989,.T.);
#1987=LINE('',#114,#1990);
#1988=LINE('',#40,#1991);
#1989=LINE('',#38,#1992);
#1990=VECTOR('',#1993,1.0);
#1991=VECTOR('',#1994,1.0);
#1992=VECTOR('',#1995,1.0);
#1993=DIRECTION('',(1,0,0));
#1994=DIRECTION('',(0,1,0));
#1995=DIRECTION('',(-0.9066364234844171,-0.4219127819957399,0));
#1996=FACE_SURFACE('',(#2001),#1997,.T.);
#1997=PLANE('',#1998);
#1998=AXIS2_PLACEMENT_3D('',#114,#1999,#2000);
#1999=DIRECTION('',(0,0,1));
#2000=DIRECTION('',(0.9066364234844171,0.4219127819957399,0));
#2001=FACE_BOUND('',#2002,.T.);
#2002=EDGE_LOOP('',(#2003,#2004,#2005));
#2003=ORIENTED_EDGE('',*,*,#2006,.T.);
#2004=ORIENTED_EDGE('',*,*,#2007,.T.);
#2005=ORIENTED_EDGE('',*,*,#2008,.T.);
#2006=EDGE_CURVE('',#115,#39,#2009,.F.);
#2007=EDGE_CURVE('',#39,#117,#2010,.T.);
#2008=EDGE_CURVE('',#117,#115,#2011,.T.);
#2009=LINE('',#114,#2012);
#2010=LINE('',#38,#2013);
#2011=LINE('',#116,#2014);
#2012=VECTOR('',#2015,1.0);
#2013=VECTOR('',#2016,1.0);
#2014=VECTOR('',#2017,1.0);
#2015=DIRECTION('',(0.9066364234844171,0.4219127819957399,0));
#2016=DIRECTION('',(-1,0,0));
#2017=DIRECTION('',(0,-1,0));
#2018=FACE_SURFACE('',(#2023),#2019,.T.);
#2019=PLANE('',#2020);
#2020=AXIS2_PLACEMENT_3D('',#52,#2021,#2022);
#2021=DIRECTION('',(-1,0,0));
#2022=DIRECTION('',(0,-1,0));
#2023=FACE_BOUND('',#2024,.T.);
#2024=EDGE_LOOP('',(#2025,#2026,#2027));
#2025=ORIENTED_EDGE('',*,*,#2028,.T.);
#2026=ORIENTED_EDGE('',*,*,#2029,.T.);
#2027=ORIENTED_EDGE('',*,*,#2030,.T.);
#2028=EDGE_CURVE('',#53,#61,#2031,.F.);
#2029=EDGE_CURVE('',#61,#115,#2032,.T.);
#2030=EDGE_CURVE('',#115,#53,#2033,.T.);
#2031=LINE('',#52,#2034);
#2032=LINE('',#60,#2035);
#2033=LINE('',#114,#2036);
#2034=VECTOR('',#2037,1.0);
#2035=VECTOR('',#2038,1.0);
#2036=VECTOR('',#2039,1.0);
#2037=DIRECTION('',(0,-1,0));
#2038=DIRECTION('',(0,0,1));
#2039=DIRECTION('',(0,0.9886600908012566,-0.15017065244864344));
#2040=FACE_SURFACE('',(#2045),#2041,.T.);
#2041=PLANE('',#2042);
#2042=AXIS2_PLACEMENT_3D('',#52,#2043,#2044);
#2043=DIRECTION('',(-1,0,0));
#2044=DIRECTION('',(0,-0.9886600908012566,0.15017065244864344));
#2045=FACE_BOUND('',#2046,.T.);
#2046=EDGE_LOOP('',(#2047,#2048,#2049));
#2047=ORIENTED_EDGE('',*,*,#2050,.T.);
#2048=ORIENTED_EDGE('',*,*,#2051,.T.);
#2049=ORIENTED_EDGE('',*,*,#2052,.T.);
#2050=EDGE_CURVE('',#53,#115,#2053,.F.);
#2051=EDGE_CURVE('',#115,#117,#2054,.T.);
#2052=EDGE_CURVE('',#117,#53,#2055,.T.);
#2053=LINE('',#52,#2056);
#2054=LINE('',#114,#2057);
#2055=LINE('',#116,#2058);
#2056=VECTOR('',#2059,1.0);
#2057=VECTOR('',#2060,1.0);
#2058=VECTOR('',#2061,1.0);
#2059=DIRECTION('',(0,-0.9886600908012566,0.15017065244864344));
#2060=DIRECTION('',(0,1,0));
#2061=DIRECTION('',(0,0,-1));
#2062=FACE_SURFACE('',(#2067),#2063,.T.);
#2063=PLANE('',#2064);
#2064=AXIS2_PLACEMENT_3D('',#52,#2065,#2066);
#2065=DIRECTION('',(-1,0,0));
#2066=DIRECTION('',(0,0,1));
#2067=FACE_BOUND('',#2068,.T.);
#2068=EDGE_LOOP('',(#2069,#2070,#2071));
#2069=ORIENTED_EDGE('',*,*,#2072,.T.);
#2070=ORIENTED_EDGE('',*,*,#2073,.T.);
#2071=ORIENTED_EDGE('',*,*,#2074,.T.);
#2072=EDGE_CURVE('',#53,#117,#2075,.F.);
#2073=EDGE_CURVE('',#117,#119,#2076,.T.);
#2074=EDGE_CURVE('',#119,#53,#2077,.T.);
#2075=LINE('',#52,#2078);
#2076=LINE('',#116,#2079);
#2077=LINE('',#118,#2080);
#2078=VECTOR('',#2081,1.0);
#2079=VECTOR('',#2082,1.0);
#2080=VECTOR('',#2083,1.0);
#2081=DIRECTION('',(0,0,1));
#2082=DIRECTION('',(0,1,0));
#2083=DIRECTION('',(0,-0.9043602523947916,-0.4267698839988932));
#2084=FACE_SURFACE('',(#2089),#2085,.T.);
#2085=PLANE('',#2086);
#2086=AXIS2_PLACEMENT_3D('',#52,#2087,#2088);
#2087=DIRECTION('',(-1,0,0));
#2088=DIRECTION('',(0,0.9043602523947916,0.4267698839988932));
#2089=FACE_BOUND('',#2090,.T.);
#2090=EDGE_LOOP('',(#2091,#2092,#2093));
#2091=ORIENTED_EDGE('',*,*,#2094,.T.);
#2092=ORIENTED_EDGE('',*,*,#2095,.T.);
#2093=ORIENTED_EDGE('',*,*,#2096,.T.);
#2094=EDGE_CURVE('',#53,#119,#2097,.F.);
#2095=EDGE_CURVE('',#119,#121,#2098,.T.);
#2096=EDGE_CURVE('',#121,#53,#2099,.T.);
#2097=LINE('',#52,#2100);
#2098=LINE('',#118,#2101);
#2099=LINE('',#120,#2102);
#2100=VECTOR('',#2103,1.0);
#2101=VECTOR('',#2104,1.0);
#2102=VECTOR('',#2105,1.0);
#2103=DIRECTION('',(0,0.9043602523947916,0.4267698839988932));
#2104=DIRECTION('',(0,0,-1));
#2105=DIRECTION('',(0,-1,0));
#2106=FACE_SURFACE('',(#2111),#2107,.T.);
#2107=PLANE('',#2108);
#2108=AXIS2_PLACEMENT_3D('',#60,#2109,#2110);
#2109=DIRECTION('',(0,-1,0));
#2110=DIRECTION('',(1,0,0));
#2111=FACE_BOUND('',#2112,.T.);
#2112=EDGE_LOOP('',(#2113,#2114,#2115));
#2113=ORIENTED_EDGE('',*,*,#2116,.T.);
#2114=ORIENTED_EDGE('',*,*,#2117,.T.);
#2115=ORIENTED_EDGE('',*,*,#2118,.T.);
#2116=EDGE_CURVE('',#61,#35,#2119,.F.);
#2117=EDGE_CURVE('',#35,#41,#2120,.T.);
#2118=EDGE_CURVE('',#41,#61,#2121,.T.);
#2119=LINE('',#60,#2122);
#2120=LINE('',#34,#2123);
#2121=LINE('',#40,#2124);
#2122=VECTOR('',#2125,1.0);
#2123=VECTOR('',#2126,1.0);
#2124=VECTOR('',#2127,1.0);
#2125=DIRECTION('',(1,0,0));
#2126=DIRECTION('',(0,0,1));
#2127=DIRECTION('',(-0.9975111342912831,0,-0.07050912681999301));
#2128=FACE_SURFACE('',(#2133),#2129,.T.);
#2129=PLANE('',#2130);
#2130=AXIS2_PLACEMENT_3D('',#60,#2131,#2132);
#2131=DIRECTION('',(0,-1,0));
#2132=DIRECTION('',(0.9975111342912831,0,0.07050912681999301));
#2133=FACE_BOUND('',#2134,.T.);
#2134=EDGE_LOOP('',(#2135,#2136,#2137));
#2135=ORIENTED_EDGE('',*,*,#2138,.T.);
#2136=ORIENTED_EDGE('',*,*,#2139,.T.);
#2137=ORIENTED_EDGE('',*,*,#2140,.T.);
#2138=EDGE_CURVE('',#61,#41,#2141,.F.);
#2139=EDGE_CURVE('',#41,#115,#2142,.T.);
#2140=EDGE_CURVE('',#115,#61,#2143,.T.);
#2141=LINE('',#60,#2144);
#2142=LINE('',#40,#2145);
#2143=LINE('',#114,#2146);
#2144=VECTOR('',#2147,1.0);
#2145=VECTOR('',#2148,1.0);
#2146=VECTOR('',#2149,1.0);
#2147=DIRECTION('',(0.9975111342912831,0,0.07050912681999301));
#2148=DIRECTION('',(-1,0,0));
#2149=DIRECTION('',(0,0,-1));
#2150=FACE_SURFACE('',(#2155),#2151,.T.);
#2151=PLANE('',#2152);
#2152=AXIS2_PLACEMENT_3D('',#122,#2153,#2154);
#2153=DIRECTION('',(0,1,0));
#2154=DIRECTION('',(-1,0,0));
#2155=FACE_BOUND('',#2156,.T.);
#2156=EDGE_LOOP('',(#2157,#2158,#2159));
#2157=ORIENTED_EDGE('',*,*,#2160,.T.);
#2158=ORIENTED_EDGE('',*,*,#2161,.T.);
#2159=ORIENTED_EDGE('',*,*,#2162,.T.);
#2160=EDGE_CURVE('',#123,#121,#2163,.F.);
#2161=EDGE_CURVE('',#121,#119,#2164,.T.);
#2162=EDGE_CURVE('',#119,#123,#2165,.T.);
#2163=LINE('',#122,#2166);
#2164=LINE('',#120,#2167);
#2165=LINE('',#118,#2168);
#2166=VECTOR('',#2169,1.0);
#2167=VECTOR('',#2170,1.0);
#2168=VECTOR('',#2171,1.0);
#2169=DIRECTION('',(-1,0,0));
#2170=DIRECTION('',(0,0,1));
#2171=DIRECTION('',(0.9975111342912831,0,-0.07050912681999301));
#2172=FACE_SURFACE('',(#2177),#2173,.T.);
#2173=PLANE('',#2174);
#2174=AXIS2_PLACEMENT_3D('',#122,#2175,#2176);
#2175=DIRECTION('',(0,1,-0));
#2176=DIRECTION('',(-0.9975111342912831,0,0.07050912681999301));
#2177=FACE_BOUND('',#2178,.T.);
#2178=EDGE_LOOP('',(#2179,#2180,#2181));
#2179=ORIENTED_EDGE('',*,*,#2182,.T.);
#2180=ORIENTED_EDGE('',*,*,#2183,.T.);
#2181=ORIENTED_EDGE('',*,*,#2184,.T.);
#2182=EDGE_CURVE('',#123,#119,#2185,.F.);
#2183=EDGE_CURVE('',#119,#125,#2186,.T.);
#2184=EDGE_CURVE('',#125,#123,#2187,.T.);
#2185=LINE('',#122,#2188);
#2186=LINE('',#118,#2189);
#2187=LINE('',#124,#2190);
#2188=VECTOR('',#2191,1.0);
#2189=VECTOR('',#2192,1.0);
#2190=VECTOR('',#2193,1.0);
#2191=DIRECTION('',(-0.9975111342912831,0,0.07050912681999301));
#2192=DIRECTION('',(1,0,0));
#2193=DIRECTION('',(0,0,-1));
#2194=FACE_SURFACE('',(#2199),#2195,.T.);
#2195=PLANE('',#2196);
#2196=AXIS2_PLACEMENT_3D('',#116,#2197,#2198);
#2197=DIRECTION('',(0,0,1));
#2198=DIRECTION('',(1,0,0));
#2199=FACE_BOUND('',#2200,.T.);
#2200=EDGE_LOOP('',(#2201,#2202,#2203));
#2201=ORIENTED_EDGE('',*,*,#2204,.T.);
#2202=ORIENTED_EDGE('',*,*,#2205,.T.);
#2203=ORIENTED_EDGE('',*,*,#2206,.T.);
#2204=EDGE_CURVE('',#117,#39,#2207,.F.);
#2205=EDGE_CURVE('',#39,#125,#2208,.T.);
#2206=EDGE_CURVE('',#125,#117,#2209,.T.);
#2207=LINE('',#116,#2210);
#2208=LINE('',#38,#2211);
#2209=LINE('',#124,#2212);
#2210=VECTOR('',#2213,1.0);
#2211=VECTOR('',#2214,1.0);
#2212=VECTOR('',#2215,1.0);
#2213=DIRECTION('',(1,0,0));
#2214=DIRECTION('',(0,1,0));
#2215=DIRECTION('',(-0.9889671754807615,-0.148134823122737,0));
#2216=FACE_SURFACE('',(#2221),#2217,.T.);
#2217=PLANE('',#2218);
#2218=AXIS2_PLACEMENT_3D('',#116,#2219,#2220);
#2219=DIRECTION('',(0,0,1));
#2220=DIRECTION('',(0.9889671754807615,0.148134823122737,0));
#2221=FACE_BOUND('',#2222,.T.);
#2222=EDGE_LOOP('',(#2223,#2224,#2225));
#2223=ORIENTED_EDGE('',*,*,#2226,.T.);
#2224=ORIENTED_EDGE('',*,*,#2227,.T.);
#2225=ORIENTED_EDGE('',*,*,#2228,.T.);
#2226=EDGE_CURVE('',#117,#125,#2229,.F.);
#2227=EDGE_CURVE('',#125,#119,#2230,.T.);
#2228=EDGE_CURVE('',#119,#117,#2231,.T.);
#2229=LINE('',#116,#2232);
#2230=LINE('',#124,#2233);
#2231=LINE('',#118,#2234);
#2232=VECTOR('',#2235,1.0);
#2233=VECTOR('',#2236,1.0);
#2234=VECTOR('',#2237,1.0);
#2235=DIRECTION('',(0.9889671754807615,0.148134823122737,0));
#2236=DIRECTION('',(-1,0,0));
#2237=DIRECTION('',(0,-1,0));
#2238=FACE_SURFACE('',(#2243),#2239,.T.);
#2239=PLANE('',#2240);
#2240=AXIS2_PLACEMENT_3D('',#36,#2241,#2242);
#2241=DIRECTION('',(0,0,-1));
#2242=DIRECTION('',(-1,0,0));
#2243=FACE_BOUND('',#2244,.T.);
#2244=EDGE_LOOP('',(#2245,#2246,#2247));
#2245=ORIENTED_EDGE('',*,*,#2248,.T.);
#2246=ORIENTED_EDGE('',*,*,#2249,.T.);
#2247=ORIENTED_EDGE('',*,*,#2250,.T.);
#2248=EDGE_CURVE('',#37,#53,#2251,.F.);
#2249=EDGE_CURVE('',#53,#121,#2252,.T.);
#2250=EDGE_CURVE('',#121,#37,#2253,.T.);
#2251=LINE('',#36,#2254);
#2252=LINE('',#52,#2255);
#2253=LINE('',#120,#2256);
#2254=VECTOR('',#2257,1.0);
#2255=VECTOR('',#2258,1.0);
#2256=VECTOR('',#2259,1.0);
#2257=DIRECTION('',(-1,0,0));
#2258=DIRECTION('',(0,1,0));
#2259=DIRECTION('',(0.9889671754807615,-0.148134823122737,0));
#2260=FACE_SURFACE('',(#2265),#2261,.T.);
#2261=PLANE('',#2262);
#2262=AXIS2_PLACEMENT_3D('',#36,#2263,#2264);
#2263=DIRECTION('',(0,0,-1));
#2264=DIRECTION('',(-0.9889671754807615,0.148134823122737,0));
#2265=FACE_BOUND('',#2266,.T.);
#2266=EDGE_LOOP('',(#2267,#2268,#2269));
#2267=ORIENTED_EDGE('',*,*,#2270,.T.);
#2268=ORIENTED_EDGE('',*,*,#2271,.T.);
#2269=ORIENTED_EDGE('',*,*,#2272,.T.);
#2270=EDGE_CURVE('',#37,#121,#2273,.F.);
#2271=EDGE_CURVE('',#121,#123,#2274,.T.);
#2272=EDGE_CURVE('',#123,#37,#2275,.T.);
#2273=LINE('',#36,#2276);
#2274=LINE('',#120,#2277);
#2275=LINE('',#122,#2278);
#2276=VECTOR('',#2279,1.0);
#2277=VECTOR('',#2280,1.0);
#2278=VECTOR('',#2281,1.0);
#2279=DIRECTION('',(-0.9889671754807615,0.148134823122737,0));
#2280=DIRECTION('',(1,0,0));
#2281=DIRECTION('',(0,-1,0));
#2282=FACE_SURFACE('',(#2287),#2283,.T.);
#2283=PLANE('',#2284);
#2284=AXIS2_PLACEMENT_3D('',#38,#2285,#2286);
#2285=DIRECTION('',(1,0,0));
#2286=DIRECTION('',(0,0,-1));
#2287=FACE_BOUND('',#2288,.T.);
#2288=EDGE_LOOP('',(#2289,#2290,#2291));
#2289=ORIENTED_EDGE('',*,*,#2292,.T.);
#2290=ORIENTED_EDGE('',*,*,#2293,.T.);
#2291=ORIENTED_EDGE('',*,*,#2294,.T.);
#2292=EDGE_CURVE('',#39,#37,#2295,.F.);
#2293=EDGE_CURVE('',#37,#123,#2296,.T.);
#2294=EDGE_CURVE('',#123,#39,#2297,.T.);
#2295=LINE('',#38,#2298);
#2296=LINE('',#36,#2299);
#2297=LINE('',#122,#2300);
#2298=VECTOR('',#2301,1.0);
#2299=VECTOR('',#2302,1.0);
#2300=VECTOR('',#2303,1.0);
#2301=DIRECTION('',(0,0,-1));
#2302=DIRECTION('',(0,1,0));
#2303=DIRECTION('',(0,-0.9043602523947916,0.4267698839988932));
#2304=FACE_SURFACE('',(#2309),#2305,.T.);
#2305=PLANE('',#2306);
#2306=AXIS2_PLACEMENT_3D('',#38,#2307,#2308);
#2307=DIRECTION('',(1,-0,0));
#2308=DIRECTION('',(0,0.9043602523947916,-0.4267698839988932));
#2309=FACE_BOUND('',#2310,.T.);
#2310=EDGE_LOOP('',(#2311,#2312,#2313));
#2311=ORIENTED_EDGE('',*,*,#2314,.T.);
#2312=ORIENTED_EDGE('',*,*,#2315,.T.);
#2313=ORIENTED_EDGE('',*,*,#2316,.T.);
#2314=EDGE_CURVE('',#39,#123,#2317,.F.);
#2315=EDGE_CURVE('',#123,#125,#2318,.T.);
#2316=EDGE_CURVE('',#125,#39,#2319,.T.);
#2317=LINE('',#38,#2320);
#2318=LINE('',#122,#2321);
#2319=LINE('',#124,#2322);
#2320=VECTOR('',#2323,1.0);
#2321=VECTOR('',#2324,1.0);
#2322=VECTOR('',#2325,1.0);
#2323=DIRECTION('',(0,0.9043602523947916,-0.4267698839988932));
#2324=DIRECTION('',(0,0,1));
#2325=DIRECTION('',(0,-1,0));
ENDSEC;
END-ISO-10303-21;
