ISO-10303-21;
HEADER;
FILE_DESCRIPTION((''),'2;1');
FILE_NAME('support of the raspberry pi', '2026-07-30T23:49:37', (''), (''), 'ImageToStl.com STEP Converter','', '');
FILE_SCHEMA(('AUTOMOTIVE_DESIGN_CC2'));
ENDSEC;
DATA;
#1=PRODUCT_DEFINITION_CONTEXT('',#4,'design');
#2=APPLICATION_PROTOCOL_DEFINITION('INTERNATIONAL STANDARD','automotive_design',1994,#4);
#3=(GEOMETRIC_REPRESENTATION_CONTEXT(3)GLOBAL_UNCERTAINTY_ASSIGNED_CONTEXT((#5))GLOBAL_UNIT_ASSIGNED_CONTEXT((#6,#7,#8))REPRESENTATION_CONTEXT('NONE','WORKSPACE'));
#4=APPLICATION_CONTEXT(' ');
#5=UNCERTAINTY_MEASURE_WITH_UNIT(LENGTH_MEASURE(1.0E-006),#6,'','');
#6=(CONVERSION_BASED_UNIT('METRE',#10)LENGTH_UNIT()NAMED_UNIT(#11));
#7=(NAMED_UNIT(#12)PLANE_ANGLE_UNIT()SI_UNIT($,.RADIAN.));
#8=(NAMED_UNIT(#12)SOLID_ANGLE_UNIT()SI_UNIT($,.STERADIAN.));
#9=AXIS2_PLACEMENT_3D('',#14,#15,#16);
#10=LENGTH_MEASURE_WITH_UNIT(LENGTH_MEASURE(1.0),#17);
#11=DIMENSIONAL_EXPONENTS(1.0,0.0,0.0,0.0,0.0,0.0,0.0);
#12=DIMENSIONAL_EXPONENTS(0.0,0.0,0.0,0.0,0.0,0.0,0.0);
#13=PRODUCT_CONTEXT('',#4,'mechanical');
#14=CARTESIAN_POINT('',(0.0,0.0,0.0));
#15=DIRECTION('',(0.0,0.0,1.0));
#16=DIRECTION('',(1.0,0.0,0.0));
#17=(NAMED_UNIT(#11)LENGTH_UNIT()SI_UNIT(.MILLI.,.METRE.));
#18=PRESENTATION_STYLE_ASSIGNMENT((#19));
#19=SURFACE_STYLE_USAGE(.BOTH.,#20);
#20=SURFACE_SIDE_STYLE('',(#21));
#21=SURFACE_STYLE_FILL_AREA(#22);
#22=FILL_AREA_STYLE('',(#23));
#23=FILL_AREA_STYLE_COLOUR('',#24);
#24=COLOUR_RGB('',0.9,0.9,0.9);
#25=SHAPE_DEFINITION_REPRESENTATION(#26,#27);
#26=PRODUCT_DEFINITION_SHAPE('productshape0','',#30);
#27=MANIFOLD_SURFACE_SHAPE_REPRESENTATION('',(#28,#9),#3);
#28=SHELL_BASED_SURFACE_MODEL('shell0',(#33));
#29=PRODUCT('product0','','',(#13));
#30=PRODUCT_DEFINITION('mesh0','',#31,#2);
#31=PRODUCT_DEFINITION_FORMATION_WITH_SPECIFIED_SOURCE('prodsource0','',#29,.NOT_KNOWN.);
#32=STYLED_ITEM('',(#18),#33);
#33=CLOSED_SHELL('',(#110,#132,#154,#176,#198,#220,#242,#264,#286,#308,#330,#352,#374,#396,#418,#440,#462,#484,#506,#528,#550,#572,#594,#616,#638,#660,#682,#704,#726,#748,#770,#792,#814,#836,#858,#880,#902,#924,#946,#968,#990,#1012,#1034,#1056,#1078,#1100,#1122,#1144,#1166,#1188,#1210,#1232,#1254,#1276,#1298,#1320,#1342,#1364,#1386,#1408,#1430,#1452,#1474,#1496,#1518,#1540,#1562,#1584,#1606,#1628,#1650,#1672,#1694,#1716,#1738,#1760,#1782,#1804,#1826,#1848));
#34=CARTESIAN_POINT('',(19.014789581298828,118.78459167480469,22.32617950439453));
#35=VERTEX_POINT('',#34);
#36=CARTESIAN_POINT('',(19.014789581298828,118.78459167480469,32.94314956665039));
#37=VERTEX_POINT('',#36);
#38=CARTESIAN_POINT('',(45.67716979980469,118.78459167480469,39.669986724853516));
#39=VERTEX_POINT('',#38);
#40=CARTESIAN_POINT('',(45.67716979980469,118.78459167480469,-11.601375579833984));
#41=VERTEX_POINT('',#40);
#42=CARTESIAN_POINT('',(-33.32281494140625,118.78459167480469,-13.44322395324707));
#43=VERTEX_POINT('',#42);
#44=CARTESIAN_POINT('',(-33.32281494140625,118.78459167480469,41.79998779296875));
#45=VERTEX_POINT('',#44);
#46=CARTESIAN_POINT('',(-22.512409210205078,118.78459167480469,32.94314956665039));
#47=VERTEX_POINT('',#46);
#48=CARTESIAN_POINT('',(-22.512409210205078,118.78459167480469,22.32617950439453));
#49=VERTEX_POINT('',#48);
#50=CARTESIAN_POINT('',(45.67716979980469,109.73037719726562,-7.874261856079102));
#51=VERTEX_POINT('',#50);
#52=CARTESIAN_POINT('',(45.67716979980469,109.73037719726562,36.12574005126953));
#53=VERTEX_POINT('',#52);
#54=CARTESIAN_POINT('',(45.67719650268555,44.73038101196289,-7.874261856079102));
#55=VERTEX_POINT('',#54);
#56=CARTESIAN_POINT('',(45.67719650268555,44.73038101196289,21.132301330566406));
#57=VERTEX_POINT('',#56);
#58=CARTESIAN_POINT('',(45.67720031738281,38.67391586303711,33.380615234375));
#59=VERTEX_POINT('',#58);
#60=CARTESIAN_POINT('',(45.67720031738281,38.67391586303711,-11.601375579833984));
#61=VERTEX_POINT('',#60);
#62=CARTESIAN_POINT('',(-33.32279968261719,37.279170989990234,41.838775634765625));
#63=VERTEX_POINT('',#62);
#64=CARTESIAN_POINT('',(-33.32279968261719,37.279170989990234,34.15716552734375));
#65=VERTEX_POINT('',#64);
#66=CARTESIAN_POINT('',(-32.741432189941406,21.359539031982422,34.15716552734375));
#67=VERTEX_POINT('',#66);
#68=CARTESIAN_POINT('',(-32.741432189941406,21.359539031982422,41.838775634765625));
#69=VERTEX_POINT('',#68);
#70=CARTESIAN_POINT('',(-33.32279968261719,44.73037338256836,21.132301330566406));
#71=VERTEX_POINT('',#70);
#72=CARTESIAN_POINT('',(-33.32279968261719,44.73037338256836,36.12574005126953));
#73=VERTEX_POINT('',#72);
#74=CARTESIAN_POINT('',(-33.32281494140625,109.73037719726562,36.12574005126953));
#75=VERTEX_POINT('',#74);
#76=CARTESIAN_POINT('',(-33.32279968261719,37.279170989990234,-13.44322395324707));
#77=VERTEX_POINT('',#76);
#78=CARTESIAN_POINT('',(-33.32279968261719,44.73037338256836,-7.874261856079102));
#79=VERTEX_POINT('',#78);
#80=CARTESIAN_POINT('',(-33.32281494140625,109.73037719726562,-7.874261856079102));
#81=VERTEX_POINT('',#80);
#82=CARTESIAN_POINT('',(-22.512407302856445,109.73037719726562,22.32617950439453));
#83=VERTEX_POINT('',#82);
#84=CARTESIAN_POINT('',(-22.512407302856445,109.73037719726562,32.94314956665039));
#85=VERTEX_POINT('',#84);
#86=CARTESIAN_POINT('',(19.014789581298828,109.73037719726562,32.94314956665039));
#87=VERTEX_POINT('',#86);
#88=CARTESIAN_POINT('',(19.014789581298828,109.73037719726562,22.32617950439453));
#89=VERTEX_POINT('',#88);
#90=CARTESIAN_POINT('',(45.67719650268555,44.73038101196289,36.12574005126953));
#91=VERTEX_POINT('',#90);
#92=CARTESIAN_POINT('',(45.67720031738281,38.67391586303711,39.70877456665039));
#93=VERTEX_POINT('',#92);
#94=CARTESIAN_POINT('',(46.258567810058594,22.75428009033203,33.380615234375));
#95=VERTEX_POINT('',#94);
#96=CARTESIAN_POINT('',(46.258567810058594,22.75428009033203,39.70877456665039));
#97=VERTEX_POINT('',#96);
#98=CARTESIAN_POINT('',(-33.20541763305664,118.78781127929688,46.154701232910156));
#99=VERTEX_POINT('',#98);
#100=CARTESIAN_POINT('',(45.79456329345703,118.78781127929688,44.02469253540039));
#101=VERTEX_POINT('',#100);
#102=CARTESIAN_POINT('',(46.37596130371094,22.757495880126953,44.063480377197266));
#103=VERTEX_POINT('',#102);
#104=CARTESIAN_POINT('',(-32.62403869628906,21.362754821777344,46.1934814453125));
#105=VERTEX_POINT('',#104);
#106=CARTESIAN_POINT('',(45.794593811035156,38.6771354675293,44.063480377197266));
#107=VERTEX_POINT('',#106);
#108=CARTESIAN_POINT('',(-33.205406188964844,37.28239059448242,46.1934814453125));
#109=VERTEX_POINT('',#108);
#110=FACE_SURFACE('',(#115),#111,.T.);
#111=PLANE('',#112);
#112=AXIS2_PLACEMENT_3D('',#34,#113,#114);
#113=DIRECTION('',(0,1,0));
#114=DIRECTION('',(0,0,1));
#115=FACE_BOUND('',#116,.T.);
#116=EDGE_LOOP('',(#117,#118,#119));
#117=ORIENTED_EDGE('',*,*,#120,.T.);
#118=ORIENTED_EDGE('',*,*,#121,.T.);
#119=ORIENTED_EDGE('',*,*,#122,.T.);
#120=EDGE_CURVE('',#35,#37,#123,.F.);
#121=EDGE_CURVE('',#37,#39,#124,.T.);
#122=EDGE_CURVE('',#39,#35,#125,.T.);
#123=LINE('',#34,#126);
#124=LINE('',#36,#127);
#125=LINE('',#38,#128);
#126=VECTOR('',#129,1.0);
#127=VECTOR('',#130,1.0);
#128=VECTOR('',#131,1.0);
#129=DIRECTION('',(0,0,1));
#130=DIRECTION('',(0.9696161984131972,0,0.24463120768769317));
#131=DIRECTION('',(-0.8382530701561668,0,-0.5452813864178389));
#132=FACE_SURFACE('',(#137),#133,.T.);
#133=PLANE('',#134);
#134=AXIS2_PLACEMENT_3D('',#38,#135,#136);
#135=DIRECTION('',(0,1,0));
#136=DIRECTION('',(0,0,-1));
#137=FACE_BOUND('',#138,.T.);
#138=EDGE_LOOP('',(#139,#140,#141));
#139=ORIENTED_EDGE('',*,*,#142,.T.);
#140=ORIENTED_EDGE('',*,*,#143,.T.);
#141=ORIENTED_EDGE('',*,*,#144,.T.);
#142=EDGE_CURVE('',#39,#41,#145,.F.);
#143=EDGE_CURVE('',#41,#43,#146,.T.);
#144=EDGE_CURVE('',#43,#39,#147,.T.);
#145=LINE('',#38,#148);
#146=LINE('',#40,#149);
#147=LINE('',#42,#150);
#148=VECTOR('',#151,1.0);
#149=VECTOR('',#152,1.0);
#150=VECTOR('',#153,1.0);
#151=DIRECTION('',(0,0,-1));
#152=DIRECTION('',(-0.999728326841456,0,-0.023308206940543478));
#153=DIRECTION('',(0.829878897262117,0,0.5579435597612115));
#154=FACE_SURFACE('',(#159),#155,.T.);
#155=PLANE('',#156);
#156=AXIS2_PLACEMENT_3D('',#42,#157,#158);
#157=DIRECTION('',(0,1,0));
#158=DIRECTION('',(0,0,1));
#159=FACE_BOUND('',#160,.T.);
#160=EDGE_LOOP('',(#161,#162,#163));
#161=ORIENTED_EDGE('',*,*,#164,.T.);
#162=ORIENTED_EDGE('',*,*,#165,.T.);
#163=ORIENTED_EDGE('',*,*,#166,.T.);
#164=EDGE_CURVE('',#43,#45,#167,.F.);
#165=EDGE_CURVE('',#45,#47,#168,.T.);
#166=EDGE_CURVE('',#47,#43,#169,.T.);
#167=LINE('',#42,#170);
#168=LINE('',#44,#171);
#169=LINE('',#46,#172);
#170=VECTOR('',#173,1.0);
#171=VECTOR('',#174,1.0);
#172=VECTOR('',#175,1.0);
#173=DIRECTION('',(0,0,1));
#174=DIRECTION('',(0.7735376758449898,0,-0.6337503168033382));
#175=DIRECTION('',(-0.226969138434705,0,-0.9739019510187911));
#176=FACE_SURFACE('',(#181),#177,.T.);
#177=PLANE('',#178);
#178=AXIS2_PLACEMENT_3D('',#42,#179,#180);
#179=DIRECTION('',(0,1,0));
#180=DIRECTION('',(0.226969138434705,0,0.9739019510187911));
#181=FACE_BOUND('',#182,.T.);
#182=EDGE_LOOP('',(#183,#184,#185));
#183=ORIENTED_EDGE('',*,*,#186,.T.);
#184=ORIENTED_EDGE('',*,*,#187,.T.);
#185=ORIENTED_EDGE('',*,*,#188,.T.);
#186=EDGE_CURVE('',#43,#47,#189,.F.);
#187=EDGE_CURVE('',#47,#49,#190,.T.);
#188=EDGE_CURVE('',#49,#43,#191,.T.);
#189=LINE('',#42,#192);
#190=LINE('',#46,#193);
#191=LINE('',#48,#194);
#192=VECTOR('',#195,1.0);
#193=VECTOR('',#196,1.0);
#194=VECTOR('',#197,1.0);
#195=DIRECTION('',(0.226969138434705,0,0.9739019510187911));
#196=DIRECTION('',(0,0,-1));
#197=DIRECTION('',(-0.28930122817183035,0,-0.9572381100741187));
#198=FACE_SURFACE('',(#203),#199,.T.);
#199=PLANE('',#200);
#200=AXIS2_PLACEMENT_3D('',#34,#201,#202);
#201=DIRECTION('',(-0,1,0));
#202=DIRECTION('',(0.8382530701561668,0,0.5452813864178389));
#203=FACE_BOUND('',#204,.T.);
#204=EDGE_LOOP('',(#205,#206,#207));
#205=ORIENTED_EDGE('',*,*,#208,.T.);
#206=ORIENTED_EDGE('',*,*,#209,.T.);
#207=ORIENTED_EDGE('',*,*,#210,.T.);
#208=EDGE_CURVE('',#35,#39,#211,.F.);
#209=EDGE_CURVE('',#39,#43,#212,.T.);
#210=EDGE_CURVE('',#43,#35,#213,.T.);
#211=LINE('',#34,#214);
#212=LINE('',#38,#215);
#213=LINE('',#42,#216);
#214=VECTOR('',#217,1.0);
#215=VECTOR('',#218,1.0);
#216=VECTOR('',#219,1.0);
#217=DIRECTION('',(0.8382530701561668,0,0.5452813864178389));
#218=DIRECTION('',(-0.829878897262117,0,-0.5579435597612115));
#219=DIRECTION('',(0.8256051527689003,0,0.5642482890726748));
#220=FACE_SURFACE('',(#225),#221,.T.);
#221=PLANE('',#222);
#222=AXIS2_PLACEMENT_3D('',#42,#223,#224);
#223=DIRECTION('',(0,1,0));
#224=DIRECTION('',(0.28930122817183035,0,0.9572381100741187));
#225=FACE_BOUND('',#226,.T.);
#226=EDGE_LOOP('',(#227,#228,#229));
#227=ORIENTED_EDGE('',*,*,#230,.T.);
#228=ORIENTED_EDGE('',*,*,#231,.T.);
#229=ORIENTED_EDGE('',*,*,#232,.T.);
#230=EDGE_CURVE('',#43,#49,#233,.F.);
#231=EDGE_CURVE('',#49,#35,#234,.T.);
#232=EDGE_CURVE('',#35,#43,#235,.T.);
#233=LINE('',#42,#236);
#234=LINE('',#48,#237);
#235=LINE('',#34,#238);
#236=VECTOR('',#239,1.0);
#237=VECTOR('',#240,1.0);
#238=VECTOR('',#241,1.0);
#239=DIRECTION('',(0.28930122817183035,0,0.9572381100741187));
#240=DIRECTION('',(1,0,0));
#241=DIRECTION('',(-0.8256051527689003,0,-0.5642482890726748));
#242=FACE_SURFACE('',(#247),#243,.T.);
#243=PLANE('',#244);
#244=AXIS2_PLACEMENT_3D('',#44,#245,#246);
#245=DIRECTION('',(0,1,0));
#246=DIRECTION('',(0.9996367221425988,0,-0.02695224933100803));
#247=FACE_BOUND('',#248,.T.);
#248=EDGE_LOOP('',(#249,#250,#251));
#249=ORIENTED_EDGE('',*,*,#252,.T.);
#250=ORIENTED_EDGE('',*,*,#253,.T.);
#251=ORIENTED_EDGE('',*,*,#254,.T.);
#252=EDGE_CURVE('',#45,#39,#255,.F.);
#253=EDGE_CURVE('',#39,#37,#256,.T.);
#254=EDGE_CURVE('',#37,#45,#257,.T.);
#255=LINE('',#44,#258);
#256=LINE('',#38,#259);
#257=LINE('',#36,#260);
#258=VECTOR('',#261,1.0);
#259=VECTOR('',#262,1.0);
#260=VECTOR('',#263,1.0);
#261=DIRECTION('',(0.9996367221425988,0,-0.02695224933100803));
#262=DIRECTION('',(-0.9696161984131972,0,-0.24463120768769317));
#263=DIRECTION('',(-0.9859817992781826,0,0.16685290375704442));
#264=FACE_SURFACE('',(#269),#265,.T.);
#265=PLANE('',#266);
#266=AXIS2_PLACEMENT_3D('',#44,#267,#268);
#267=DIRECTION('',(0,1,0));
#268=DIRECTION('',(0.9859817992781826,0,-0.16685290375704442));
#269=FACE_BOUND('',#270,.T.);
#270=EDGE_LOOP('',(#271,#272,#273));
#271=ORIENTED_EDGE('',*,*,#274,.T.);
#272=ORIENTED_EDGE('',*,*,#275,.T.);
#273=ORIENTED_EDGE('',*,*,#276,.T.);
#274=EDGE_CURVE('',#45,#37,#277,.F.);
#275=EDGE_CURVE('',#37,#47,#278,.T.);
#276=EDGE_CURVE('',#47,#45,#279,.T.);
#277=LINE('',#44,#280);
#278=LINE('',#36,#281);
#279=LINE('',#46,#282);
#280=VECTOR('',#283,1.0);
#281=VECTOR('',#284,1.0);
#282=VECTOR('',#285,1.0);
#283=DIRECTION('',(0.9859817992781826,0,-0.16685290375704442));
#284=DIRECTION('',(-1,0,0));
#285=DIRECTION('',(-0.7735376758449898,0,0.6337503168033382));
#286=FACE_SURFACE('',(#291),#287,.T.);
#287=PLANE('',#288);
#288=AXIS2_PLACEMENT_3D('',#50,#289,#290);
#289=DIRECTION('',(1,-0,0));
#290=DIRECTION('',(0,0.9247173675988285,-0.3806544234093347));
#291=FACE_BOUND('',#292,.T.);
#292=EDGE_LOOP('',(#293,#294,#295));
#293=ORIENTED_EDGE('',*,*,#296,.T.);
#294=ORIENTED_EDGE('',*,*,#297,.T.);
#295=ORIENTED_EDGE('',*,*,#298,.T.);
#296=EDGE_CURVE('',#51,#41,#299,.F.);
#297=EDGE_CURVE('',#41,#39,#300,.T.);
#298=EDGE_CURVE('',#39,#51,#301,.T.);
#299=LINE('',#50,#302);
#300=LINE('',#40,#303);
#301=LINE('',#38,#304);
#302=VECTOR('',#305,1.0);
#303=VECTOR('',#306,1.0);
#304=VECTOR('',#307,1.0);
#305=DIRECTION('',(0,0.9247173675988285,-0.3806544234093347));
#306=DIRECTION('',(0,0,1));
#307=DIRECTION('',(0,-0.18707556337844627,-0.9823455265774039));
#308=FACE_SURFACE('',(#313),#309,.T.);
#309=PLANE('',#310);
#310=AXIS2_PLACEMENT_3D('',#50,#311,#312);
#311=DIRECTION('',(1,0,0));
#312=DIRECTION('',(0,0.18707556337844627,0.9823455265774039));
#313=FACE_BOUND('',#314,.T.);
#314=EDGE_LOOP('',(#315,#316,#317));
#315=ORIENTED_EDGE('',*,*,#318,.T.);
#316=ORIENTED_EDGE('',*,*,#319,.T.);
#317=ORIENTED_EDGE('',*,*,#320,.T.);
#318=EDGE_CURVE('',#51,#39,#321,.F.);
#319=EDGE_CURVE('',#39,#53,#322,.T.);
#320=EDGE_CURVE('',#53,#51,#323,.T.);
#321=LINE('',#50,#324);
#322=LINE('',#38,#325);
#323=LINE('',#52,#326);
#324=VECTOR('',#327,1.0);
#325=VECTOR('',#328,1.0);
#326=VECTOR('',#329,1.0);
#327=DIRECTION('',(0,0.18707556337844627,0.9823455265774039));
#328=DIRECTION('',(0,-0.9311976398568483,-0.3645146849237152));
#329=DIRECTION('',(0,0,-1));
#330=FACE_SURFACE('',(#335),#331,.T.);
#331=PLANE('',#332);
#332=AXIS2_PLACEMENT_3D('',#54,#333,#334);
#333=DIRECTION('',(0.9999999999998016,6.298553977976487E-07,-0));
#334=DIRECTION('',(0,0,1));
#335=FACE_BOUND('',#336,.T.);
#336=EDGE_LOOP('',(#337,#338,#339));
#337=ORIENTED_EDGE('',*,*,#340,.T.);
#338=ORIENTED_EDGE('',*,*,#341,.T.);
#339=ORIENTED_EDGE('',*,*,#342,.T.);
#340=EDGE_CURVE('',#55,#57,#343,.F.);
#341=EDGE_CURVE('',#57,#59,#344,.T.);
#342=EDGE_CURVE('',#59,#55,#345,.T.);
#343=LINE('',#54,#346);
#344=LINE('',#56,#347);
#345=LINE('',#58,#348);
#346=VECTOR('',#349,1.0);
#347=VECTOR('',#350,1.0);
#348=VECTOR('',#351,1.0);
#349=DIRECTION('',(0,0,1));
#350=DIRECTION('',(2.791808564890434E-07,-0.4432459536985336,0.8964000359938633));
#351=DIRECTION('',(-9.148597869482072E-08,0.14524917785049124,-0.9893951062814835));
#352=FACE_SURFACE('',(#357),#353,.T.);
#353=PLANE('',#354);
#354=AXIS2_PLACEMENT_3D('',#60,#355,#356);
#355=DIRECTION('',(0.9999999999994993,3.809427122633504E-07,9.254177028472824E-07));
#356=DIRECTION('',(-3.809427122635135E-07,0.9999999999999275,0));
#357=FACE_BOUND('',#358,.T.);
#358=EDGE_LOOP('',(#359,#360,#361));
#359=ORIENTED_EDGE('',*,*,#362,.T.);
#360=ORIENTED_EDGE('',*,*,#363,.T.);
#361=ORIENTED_EDGE('',*,*,#364,.T.);
#362=EDGE_CURVE('',#61,#41,#365,.F.);
#363=EDGE_CURVE('',#41,#51,#366,.T.);
#364=EDGE_CURVE('',#51,#61,#367,.T.);
#365=LINE('',#60,#368);
#366=LINE('',#40,#369);
#367=LINE('',#50,#370);
#368=VECTOR('',#371,1.0);
#369=VECTOR('',#372,1.0);
#370=VECTOR('',#373,1.0);
#371=DIRECTION('',(-3.809427122635135E-07,0.9999999999999275,0));
#372=DIRECTION('',(0,-0.9247173675988285,0.3806544234093347));
#373=DIRECTION('',(4.288939029301845E-07,-0.998627181528515,-0.05238083917073237));
#374=FACE_SURFACE('',(#379),#375,.T.);
#375=PLANE('',#376);
#376=AXIS2_PLACEMENT_3D('',#54,#377,#378);
#377=DIRECTION('',(0.9999999999998018,6.298553977976487E-07,0));
#378=DIRECTION('',(9.148597869482072E-08,-0.14524917785049124,0.9893951062814835));
#379=FACE_BOUND('',#380,.T.);
#380=EDGE_LOOP('',(#381,#382,#383));
#381=ORIENTED_EDGE('',*,*,#384,.T.);
#382=ORIENTED_EDGE('',*,*,#385,.T.);
#383=ORIENTED_EDGE('',*,*,#386,.T.);
#384=EDGE_CURVE('',#55,#59,#387,.F.);
#385=EDGE_CURVE('',#59,#61,#388,.T.);
#386=EDGE_CURVE('',#61,#55,#389,.T.);
#387=LINE('',#54,#390);
#388=LINE('',#58,#391);
#389=LINE('',#60,#392);
#390=VECTOR('',#393,1.0);
#391=VECTOR('',#394,1.0);
#392=VECTOR('',#395,1.0);
#393=DIRECTION('',(9.148597869482072E-08,-0.14524917785049124,0.9893951062814835));
#394=DIRECTION('',(0,0,-1));
#395=DIRECTION('',(-5.36419285129579E-07,0.8516546607445382,0.5241033665526464));
#396=FACE_SURFACE('',(#401),#397,.T.);
#397=PLANE('',#398);
#398=AXIS2_PLACEMENT_3D('',#54,#399,#400);
#399=DIRECTION('',(0.9999999999998523,4.108135757923151E-07,3.5593739806688726E-07));
#400=DIRECTION('',(5.36419285129579E-07,-0.8516546607445382,-0.5241033665526464));
#401=FACE_BOUND('',#402,.T.);
#402=EDGE_LOOP('',(#403,#404,#405));
#403=ORIENTED_EDGE('',*,*,#406,.T.);
#404=ORIENTED_EDGE('',*,*,#407,.T.);
#405=ORIENTED_EDGE('',*,*,#408,.T.);
#406=EDGE_CURVE('',#55,#61,#409,.F.);
#407=EDGE_CURVE('',#61,#51,#410,.T.);
#408=EDGE_CURVE('',#51,#55,#411,.T.);
#409=LINE('',#54,#412);
#410=LINE('',#60,#413);
#411=LINE('',#50,#414);
#412=VECTOR('',#415,1.0);
#413=VECTOR('',#416,1.0);
#414=VECTOR('',#417,1.0);
#415=DIRECTION('',(5.36419285129579E-07,-0.8516546607445382,-0.5241033665526464));
#416=DIRECTION('',(-4.288939029301845E-07,0.998627181528515,0.05238083917073237));
#417=DIRECTION('',(4.108135757923411E-07,-0.9999999999999156,0));
#418=FACE_SURFACE('',(#423),#419,.T.);
#419=PLANE('',#420);
#420=AXIS2_PLACEMENT_3D('',#62,#421,#422);
#421=DIRECTION('',(-0.9993338510910488,-0.03649457580975004,-0));
#422=DIRECTION('',(0,0,-1));
#423=FACE_BOUND('',#424,.T.);
#424=EDGE_LOOP('',(#425,#426,#427));
#425=ORIENTED_EDGE('',*,*,#428,.T.);
#426=ORIENTED_EDGE('',*,*,#429,.T.);
#427=ORIENTED_EDGE('',*,*,#430,.T.);
#428=EDGE_CURVE('',#63,#65,#431,.F.);
#429=EDGE_CURVE('',#65,#67,#432,.T.);
#430=EDGE_CURVE('',#67,#63,#433,.T.);
#431=LINE('',#62,#434);
#432=LINE('',#64,#435);
#433=LINE('',#66,#436);
#434=VECTOR('',#437,1.0);
#435=VECTOR('',#438,1.0);
#436=VECTOR('',#439,1.0);
#437=DIRECTION('',(0,0,-1));
#438=DIRECTION('',(0.03649457580975004,-0.9993338510910488,0));
#439=DIRECTION('',(-0.03287239849827091,0.90014748375566,0.43434308202770405));
#440=FACE_SURFACE('',(#445),#441,.T.);
#441=PLANE('',#442);
#442=AXIS2_PLACEMENT_3D('',#62,#443,#444);
#443=DIRECTION('',(-0.9993338510910488,-0.03649457580975004,0));
#444=DIRECTION('',(0.03287239849827091,-0.90014748375566,-0.43434308202770405));
#445=FACE_BOUND('',#446,.T.);
#446=EDGE_LOOP('',(#447,#448,#449));
#447=ORIENTED_EDGE('',*,*,#450,.T.);
#448=ORIENTED_EDGE('',*,*,#451,.T.);
#449=ORIENTED_EDGE('',*,*,#452,.T.);
#450=EDGE_CURVE('',#63,#67,#453,.F.);
#451=EDGE_CURVE('',#67,#69,#454,.T.);
#452=EDGE_CURVE('',#69,#63,#455,.T.);
#453=LINE('',#62,#456);
#454=LINE('',#66,#457);
#455=LINE('',#68,#458);
#456=VECTOR('',#459,1.0);
#457=VECTOR('',#460,1.0);
#458=VECTOR('',#461,1.0);
#459=DIRECTION('',(0.03287239849827091,-0.90014748375566,-0.43434308202770405));
#460=DIRECTION('',(0,0,1));
#461=DIRECTION('',(-0.03649457580975004,0.9993338510910488,0));
#462=FACE_SURFACE('',(#467),#463,.T.);
#463=PLANE('',#464);
#464=AXIS2_PLACEMENT_3D('',#70,#465,#466);
#465=DIRECTION('',(-1,0,0));
#466=DIRECTION('',(0,-0.4965620242409157,0.8680012419816946));
#467=FACE_BOUND('',#468,.T.);
#468=EDGE_LOOP('',(#469,#470,#471));
#469=ORIENTED_EDGE('',*,*,#472,.T.);
#470=ORIENTED_EDGE('',*,*,#473,.T.);
#471=ORIENTED_EDGE('',*,*,#474,.T.);
#472=EDGE_CURVE('',#71,#65,#475,.F.);
#473=EDGE_CURVE('',#65,#63,#476,.T.);
#474=EDGE_CURVE('',#63,#71,#477,.T.);
#475=LINE('',#70,#478);
#476=LINE('',#64,#479);
#477=LINE('',#62,#480);
#478=VECTOR('',#481,1.0);
#479=VECTOR('',#482,1.0);
#480=VECTOR('',#483,1.0);
#481=DIRECTION('',(0,-0.4965620242409157,0.8680012419816946));
#482=DIRECTION('',(0,0,1));
#483=DIRECTION('',(0,0.33859361790800857,-0.940932708492996));
#484=FACE_SURFACE('',(#489),#485,.T.);
#485=PLANE('',#486);
#486=AXIS2_PLACEMENT_3D('',#70,#487,#488);
#487=DIRECTION('',(-1,0,0));
#488=DIRECTION('',(0,-0.33859361790800857,0.940932708492996));
#489=FACE_BOUND('',#490,.T.);
#490=EDGE_LOOP('',(#491,#492,#493));
#491=ORIENTED_EDGE('',*,*,#494,.T.);
#492=ORIENTED_EDGE('',*,*,#495,.T.);
#493=ORIENTED_EDGE('',*,*,#496,.T.);
#494=EDGE_CURVE('',#71,#63,#497,.F.);
#495=EDGE_CURVE('',#63,#73,#498,.T.);
#496=EDGE_CURVE('',#73,#71,#499,.T.);
#497=LINE('',#70,#500);
#498=LINE('',#62,#501);
#499=LINE('',#72,#502);
#500=VECTOR('',#503,1.0);
#501=VECTOR('',#504,1.0);
#502=VECTOR('',#505,1.0);
#503=DIRECTION('',(0,-0.33859361790800857,0.940932708492996));
#504=DIRECTION('',(0,0.7935833690430086,-0.608461532373533));
#505=DIRECTION('',(0,0,-1));
#506=FACE_SURFACE('',(#511),#507,.T.);
#507=PLANE('',#508);
#508=AXIS2_PLACEMENT_3D('',#74,#509,#510);
#509=DIRECTION('',(-0.9999999999999256,-2.3475058718456064E-07,-3.0617245618804815E-07));
#510=DIRECTION('',(2.3475058718457165E-07,-0.9999999999999725,0));
#511=FACE_BOUND('',#512,.T.);
#512=EDGE_LOOP('',(#513,#514,#515));
#513=ORIENTED_EDGE('',*,*,#516,.T.);
#514=ORIENTED_EDGE('',*,*,#517,.T.);
#515=ORIENTED_EDGE('',*,*,#518,.T.);
#516=EDGE_CURVE('',#75,#73,#519,.F.);
#517=EDGE_CURVE('',#73,#63,#520,.T.);
#518=EDGE_CURVE('',#63,#75,#521,.T.);
#519=LINE('',#74,#522);
#520=LINE('',#72,#523);
#521=LINE('',#62,#524);
#522=VECTOR('',#525,1.0);
#523=VECTOR('',#526,1.0);
#524=VECTOR('',#527,1.0);
#525=DIRECTION('',(2.3475058718457165E-07,-0.9999999999999725,0));
#526=DIRECTION('',(0,-0.7935833690430086,0.608461532373533));
#527=DIRECTION('',(-2.099560691189369E-07,0.9969054815489269,-0.0786095468607866));
#528=FACE_SURFACE('',(#533),#529,.T.);
#529=PLANE('',#530);
#530=AXIS2_PLACEMENT_3D('',#42,#531,#532);
#531=DIRECTION('',(-0.9999999999999512,-1.8721195393255814E-07,2.504872783693196E-07));
#532=DIRECTION('',(1.87211953932564E-07,-0.9999999999999823,0));
#533=FACE_BOUND('',#534,.T.);
#534=EDGE_LOOP('',(#535,#536,#537));
#535=ORIENTED_EDGE('',*,*,#538,.T.);
#536=ORIENTED_EDGE('',*,*,#539,.T.);
#537=ORIENTED_EDGE('',*,*,#540,.T.);
#538=EDGE_CURVE('',#43,#77,#541,.F.);
#539=EDGE_CURVE('',#77,#79,#542,.T.);
#540=EDGE_CURVE('',#79,#43,#543,.T.);
#541=LINE('',#42,#544);
#542=LINE('',#76,#545);
#543=LINE('',#78,#546);
#544=VECTOR('',#547,1.0);
#545=VECTOR('',#548,1.0);
#546=VECTOR('',#549,1.0);
#547=DIRECTION('',(1.87211953932564E-07,-0.9999999999999823,0));
#548=DIRECTION('',(0,0.8010019675324164,0.5986617141668554));
#549=DIRECTION('',(-2.05468718837711E-07,0.9971843305985789,-0.07498940464240228));
#550=FACE_SURFACE('',(#555),#551,.T.);
#551=PLANE('',#552);
#552=AXIS2_PLACEMENT_3D('',#42,#553,#554);
#553=DIRECTION('',(-0.9999999999998996,-2.3475058718455455E-07,-3.8166576249065853E-07));
#554=DIRECTION('',(2.05468718837711E-07,-0.9971843305985789,0.07498940464240228));
#555=FACE_BOUND('',#556,.T.);
#556=EDGE_LOOP('',(#557,#558,#559));
#557=ORIENTED_EDGE('',*,*,#560,.T.);
#558=ORIENTED_EDGE('',*,*,#561,.T.);
#559=ORIENTED_EDGE('',*,*,#562,.T.);
#560=EDGE_CURVE('',#43,#79,#563,.F.);
#561=EDGE_CURVE('',#79,#81,#564,.T.);
#562=EDGE_CURVE('',#81,#43,#565,.T.);
#563=LINE('',#42,#566);
#564=LINE('',#78,#567);
#565=LINE('',#80,#568);
#566=VECTOR('',#569,1.0);
#567=VECTOR('',#570,1.0);
#568=VECTOR('',#571,1.0);
#569=DIRECTION('',(2.05468718837711E-07,-0.9971843305985789,0.07498940464240228));
#570=DIRECTION('',(-2.3475058718457165E-07,0.9999999999999725,0));
#571=DIRECTION('',(0,0.8517784800067671,-0.5239021101287542));
#572=FACE_SURFACE('',(#577),#573,.T.);
#573=PLANE('',#574);
#574=AXIS2_PLACEMENT_3D('',#74,#575,#576);
#575=DIRECTION('',(-0.9999999999999379,-1.8706989926141935E-07,2.9850141680583335E-07));
#576=DIRECTION('',(2.099560691189369E-07,-0.9969054815489269,0.0786095468607866));
#577=FACE_BOUND('',#578,.T.);
#578=EDGE_LOOP('',(#579,#580,#581));
#579=ORIENTED_EDGE('',*,*,#582,.T.);
#580=ORIENTED_EDGE('',*,*,#583,.T.);
#581=ORIENTED_EDGE('',*,*,#584,.T.);
#582=EDGE_CURVE('',#75,#63,#585,.F.);
#583=EDGE_CURVE('',#63,#45,#586,.T.);
#584=EDGE_CURVE('',#45,#75,#587,.T.);
#585=LINE('',#74,#588);
#586=LINE('',#62,#589);
#587=LINE('',#44,#590);
#588=VECTOR('',#591,1.0);
#589=VECTOR('',#592,1.0);
#590=VECTOR('',#593,1.0);
#591=DIRECTION('',(2.099560691189369E-07,-0.9969054815489269,0.0786095468607866));
#592=DIRECTION('',(-1.8721193273325275E-07,0.9999998867630293,-0.0004758927330079285));
#593=DIRECTION('',(0,-0.8473514566165068,-0.5310324933277475));
#594=FACE_SURFACE('',(#599),#595,.T.);
#595=PLANE('',#596);
#596=AXIS2_PLACEMENT_3D('',#42,#597,#598);
#597=DIRECTION('',(-1,0,0));
#598=DIRECTION('',(0,-0.8517784800067671,0.5239021101287542));
#599=FACE_BOUND('',#600,.T.);
#600=EDGE_LOOP('',(#601,#602,#603));
#601=ORIENTED_EDGE('',*,*,#604,.T.);
#602=ORIENTED_EDGE('',*,*,#605,.T.);
#603=ORIENTED_EDGE('',*,*,#606,.T.);
#604=EDGE_CURVE('',#43,#81,#607,.F.);
#605=EDGE_CURVE('',#81,#75,#608,.T.);
#606=EDGE_CURVE('',#75,#43,#609,.T.);
#607=LINE('',#42,#610);
#608=LINE('',#80,#611);
#609=LINE('',#74,#612);
#610=VECTOR('',#613,1.0);
#611=VECTOR('',#614,1.0);
#612=VECTOR('',#615,1.0);
#613=DIRECTION('',(0,-0.8517784800067671,0.5239021101287542));
#614=DIRECTION('',(0,0,1));
#615=DIRECTION('',(0,0.17968598769107907,-0.9837240191372179));
#616=FACE_SURFACE('',(#621),#617,.T.);
#617=PLANE('',#618);
#618=AXIS2_PLACEMENT_3D('',#74,#619,#620);
#619=DIRECTION('',(-1,0,0));
#620=DIRECTION('',(0,0.8473514566165068,0.5310324933277475));
#621=FACE_BOUND('',#622,.T.);
#622=EDGE_LOOP('',(#623,#624,#625));
#623=ORIENTED_EDGE('',*,*,#626,.T.);
#624=ORIENTED_EDGE('',*,*,#627,.T.);
#625=ORIENTED_EDGE('',*,*,#628,.T.);
#626=EDGE_CURVE('',#75,#45,#629,.F.);
#627=EDGE_CURVE('',#45,#43,#630,.T.);
#628=EDGE_CURVE('',#43,#75,#631,.T.);
#629=LINE('',#74,#632);
#630=LINE('',#44,#633);
#631=LINE('',#42,#634);
#632=VECTOR('',#635,1.0);
#633=VECTOR('',#636,1.0);
#634=VECTOR('',#637,1.0);
#635=DIRECTION('',(0,0.8473514566165068,0.5310324933277475));
#636=DIRECTION('',(0,0,-1));
#637=DIRECTION('',(0,-0.17968598769107907,0.9837240191372179));
#638=FACE_SURFACE('',(#643),#639,.T.);
#639=PLANE('',#640);
#640=AXIS2_PLACEMENT_3D('',#40,#641,#642);
#641=DIRECTION('',(0.02330820228435192,8.879089796188286E-09,-0.9997283269500127));
#642=DIRECTION('',(3.809427122635135E-07,-0.9999999999999275,0));
#643=FACE_BOUND('',#644,.T.);
#644=EDGE_LOOP('',(#645,#646,#647));
#645=ORIENTED_EDGE('',*,*,#648,.T.);
#646=ORIENTED_EDGE('',*,*,#649,.T.);
#647=ORIENTED_EDGE('',*,*,#650,.T.);
#648=EDGE_CURVE('',#41,#61,#651,.F.);
#649=EDGE_CURVE('',#61,#77,#652,.T.);
#650=EDGE_CURVE('',#77,#41,#653,.T.);
#651=LINE('',#40,#654);
#652=LINE('',#60,#655);
#653=LINE('',#76,#656);
#654=VECTOR('',#657,1.0);
#655=VECTOR('',#658,1.0);
#656=VECTOR('',#659,1.0);
#657=DIRECTION('',(3.809427122635135E-07,-0.9999999999999275,0));
#658=DIRECTION('',(-0.9995726408227288,-0.01764745336741046,-0.02330457269123501));
#659=DIRECTION('',(0.6958926146128993,0.717962559695675,0.01622441994208799));
#660=FACE_SURFACE('',(#665),#661,.T.);
#661=PLANE('',#662);
#662=AXIS2_PLACEMENT_3D('',#40,#663,#664);
#663=DIRECTION('',(0.023308206940543474,4.36357496400377E-09,-0.9997283268414558));
#664=DIRECTION('',(-0.6958926146128993,-0.717962559695675,-0.01622441994208799));
#665=FACE_BOUND('',#666,.T.);
#666=EDGE_LOOP('',(#667,#668,#669));
#667=ORIENTED_EDGE('',*,*,#670,.T.);
#668=ORIENTED_EDGE('',*,*,#671,.T.);
#669=ORIENTED_EDGE('',*,*,#672,.T.);
#670=EDGE_CURVE('',#41,#77,#673,.F.);
#671=EDGE_CURVE('',#77,#43,#674,.T.);
#672=EDGE_CURVE('',#43,#41,#675,.T.);
#673=LINE('',#40,#676);
#674=LINE('',#76,#677);
#675=LINE('',#42,#678);
#676=VECTOR('',#679,1.0);
#677=VECTOR('',#680,1.0);
#678=VECTOR('',#681,1.0);
#679=DIRECTION('',(-0.6958926146128993,-0.717962559695675,-0.01622441994208799));
#680=DIRECTION('',(-1.87211953932564E-07,0.9999999999999823,0));
#681=DIRECTION('',(0.999728326841456,0,0.023308206940543478));
#682=FACE_SURFACE('',(#687),#683,.T.);
#683=PLANE('',#684);
#684=AXIS2_PLACEMENT_3D('',#82,#685,#686);
#685=DIRECTION('',(0,-1,0));
#686=DIRECTION('',(0,0,1));
#687=FACE_BOUND('',#688,.T.);
#688=EDGE_LOOP('',(#689,#690,#691));
#689=ORIENTED_EDGE('',*,*,#692,.T.);
#690=ORIENTED_EDGE('',*,*,#693,.T.);
#691=ORIENTED_EDGE('',*,*,#694,.T.);
#692=EDGE_CURVE('',#83,#85,#695,.F.);
#693=EDGE_CURVE('',#85,#75,#696,.T.);
#694=EDGE_CURVE('',#75,#83,#697,.T.);
#695=LINE('',#82,#698);
#696=LINE('',#84,#699);
#697=LINE('',#74,#700);
#698=VECTOR('',#701,1.0);
#699=VECTOR('',#702,1.0);
#700=VECTOR('',#703,1.0);
#701=DIRECTION('',(0,0,1));
#702=DIRECTION('',(-0.9592919918045628,0,0.28241613703829793));
#703=DIRECTION('',(0.6166885559330274,0,-0.7872072312810886));
#704=FACE_SURFACE('',(#709),#705,.T.);
#705=PLANE('',#706);
#706=AXIS2_PLACEMENT_3D('',#80,#707,#708);
#707=DIRECTION('',(0,-1,0));
#708=DIRECTION('',(1,0,0));
#709=FACE_BOUND('',#710,.T.);
#710=EDGE_LOOP('',(#711,#712,#713));
#711=ORIENTED_EDGE('',*,*,#714,.T.);
#712=ORIENTED_EDGE('',*,*,#715,.T.);
#713=ORIENTED_EDGE('',*,*,#716,.T.);
#714=EDGE_CURVE('',#81,#51,#717,.F.);
#715=EDGE_CURVE('',#51,#53,#718,.T.);
#716=EDGE_CURVE('',#53,#81,#719,.T.);
#717=LINE('',#80,#720);
#718=LINE('',#50,#721);
#719=LINE('',#52,#722);
#720=VECTOR('',#723,1.0);
#721=VECTOR('',#724,1.0);
#722=VECTOR('',#725,1.0);
#723=DIRECTION('',(1,0,0));
#724=DIRECTION('',(0,0,1));
#725=DIRECTION('',(-0.8736350874367367,0,-0.48658168276190333));
#726=FACE_SURFACE('',(#731),#727,.T.);
#727=PLANE('',#728);
#728=AXIS2_PLACEMENT_3D('',#52,#729,#730);
#729=DIRECTION('',(0,-1,0));
#730=DIRECTION('',(-0.9929510772677311,0,-0.11852492629338474));
#731=FACE_BOUND('',#732,.T.);
#732=EDGE_LOOP('',(#733,#734,#735));
#733=ORIENTED_EDGE('',*,*,#736,.T.);
#734=ORIENTED_EDGE('',*,*,#737,.T.);
#735=ORIENTED_EDGE('',*,*,#738,.T.);
#736=EDGE_CURVE('',#53,#87,#739,.F.);
#737=EDGE_CURVE('',#87,#89,#740,.T.);
#738=EDGE_CURVE('',#89,#53,#741,.T.);
#739=LINE('',#52,#742);
#740=LINE('',#86,#743);
#741=LINE('',#88,#744);
#742=VECTOR('',#745,1.0);
#743=VECTOR('',#746,1.0);
#744=VECTOR('',#747,1.0);
#745=DIRECTION('',(-0.9929510772677311,0,-0.11852492629338474));
#746=DIRECTION('',(0,0,-1));
#747=DIRECTION('',(0.8880997106924856,0,0.45965084995888295));
#748=FACE_SURFACE('',(#753),#749,.T.);
#749=PLANE('',#750);
#750=AXIS2_PLACEMENT_3D('',#82,#751,#752);
#751=DIRECTION('',(-0,-1,0));
#752=DIRECTION('',(-0.6166885559330274,0,0.7872072312810886));
#753=FACE_BOUND('',#754,.T.);
#754=EDGE_LOOP('',(#755,#756,#757));
#755=ORIENTED_EDGE('',*,*,#758,.T.);
#756=ORIENTED_EDGE('',*,*,#759,.T.);
#757=ORIENTED_EDGE('',*,*,#760,.T.);
#758=EDGE_CURVE('',#83,#75,#761,.F.);
#759=EDGE_CURVE('',#75,#81,#762,.T.);
#760=EDGE_CURVE('',#81,#83,#763,.T.);
#761=LINE('',#82,#764);
#762=LINE('',#74,#765);
#763=LINE('',#80,#766);
#764=VECTOR('',#767,1.0);
#765=VECTOR('',#768,1.0);
#766=VECTOR('',#769,1.0);
#767=DIRECTION('',(-0.6166885559330274,0,0.7872072312810886));
#768=DIRECTION('',(0,0,-1));
#769=DIRECTION('',(0.33701468410600144,0,0.9414993907044933));
#770=FACE_SURFACE('',(#775),#771,.T.);
#771=PLANE('',#772);
#772=AXIS2_PLACEMENT_3D('',#80,#773,#774);
#773=DIRECTION('',(0,-1,0));
#774=DIRECTION('',(0.8736350874367367,0,0.48658168276190333));
#775=FACE_BOUND('',#776,.T.);
#776=EDGE_LOOP('',(#777,#778,#779));
#777=ORIENTED_EDGE('',*,*,#780,.T.);
#778=ORIENTED_EDGE('',*,*,#781,.T.);
#779=ORIENTED_EDGE('',*,*,#782,.T.);
#780=EDGE_CURVE('',#81,#53,#783,.F.);
#781=EDGE_CURVE('',#53,#89,#784,.T.);
#782=EDGE_CURVE('',#89,#81,#785,.T.);
#783=LINE('',#80,#786);
#784=LINE('',#52,#787);
#785=LINE('',#88,#788);
#786=VECTOR('',#789,1.0);
#787=VECTOR('',#790,1.0);
#788=VECTOR('',#791,1.0);
#789=DIRECTION('',(0.8736350874367367,0,0.48658168276190333));
#790=DIRECTION('',(-0.8880997106924856,0,-0.45965084995888295));
#791=DIRECTION('',(-0.8661449703921241,0,-0.49979284735220697));
#792=FACE_SURFACE('',(#797),#793,.T.);
#793=PLANE('',#794);
#794=AXIS2_PLACEMENT_3D('',#80,#795,#796);
#795=DIRECTION('',(0,-1,0));
#796=DIRECTION('',(0.8661449703921241,0,0.49979284735220697));
#797=FACE_BOUND('',#798,.T.);
#798=EDGE_LOOP('',(#799,#800,#801));
#799=ORIENTED_EDGE('',*,*,#802,.T.);
#800=ORIENTED_EDGE('',*,*,#803,.T.);
#801=ORIENTED_EDGE('',*,*,#804,.T.);
#802=EDGE_CURVE('',#81,#89,#805,.F.);
#803=EDGE_CURVE('',#89,#83,#806,.T.);
#804=EDGE_CURVE('',#83,#81,#807,.T.);
#805=LINE('',#80,#808);
#806=LINE('',#88,#809);
#807=LINE('',#82,#810);
#808=VECTOR('',#811,1.0);
#809=VECTOR('',#812,1.0);
#810=VECTOR('',#813,1.0);
#811=DIRECTION('',(0.8661449703921241,0,0.49979284735220697));
#812=DIRECTION('',(-1,0,0));
#813=DIRECTION('',(-0.33701468410600144,0,-0.9414993907044933));
#814=FACE_SURFACE('',(#819),#815,.T.);
#815=PLANE('',#816);
#816=AXIS2_PLACEMENT_3D('',#86,#817,#818);
#817=DIRECTION('',(0,-1,0));
#818=DIRECTION('',(0.9929510772677311,0,0.11852492629338474));
#819=FACE_BOUND('',#820,.T.);
#820=EDGE_LOOP('',(#821,#822,#823));
#821=ORIENTED_EDGE('',*,*,#824,.T.);
#822=ORIENTED_EDGE('',*,*,#825,.T.);
#823=ORIENTED_EDGE('',*,*,#826,.T.);
#824=EDGE_CURVE('',#87,#53,#827,.F.);
#825=EDGE_CURVE('',#53,#75,#828,.T.);
#826=EDGE_CURVE('',#75,#87,#829,.T.);
#827=LINE('',#86,#830);
#828=LINE('',#52,#831);
#829=LINE('',#74,#832);
#830=VECTOR('',#833,1.0);
#831=VECTOR('',#834,1.0);
#832=VECTOR('',#835,1.0);
#833=DIRECTION('',(0.9929510772677311,0,0.11852492629338474));
#834=DIRECTION('',(-1,0,0));
#835=DIRECTION('',(0.9981562524582956,0,-0.06069675179456767));
#836=FACE_SURFACE('',(#841),#837,.T.);
#837=PLANE('',#838);
#838=AXIS2_PLACEMENT_3D('',#86,#839,#840);
#839=DIRECTION('',(0,-1,0));
#840=DIRECTION('',(-0.9981562524582956,0,0.06069675179456767));
#841=FACE_BOUND('',#842,.T.);
#842=EDGE_LOOP('',(#843,#844,#845));
#843=ORIENTED_EDGE('',*,*,#846,.T.);
#844=ORIENTED_EDGE('',*,*,#847,.T.);
#845=ORIENTED_EDGE('',*,*,#848,.T.);
#846=EDGE_CURVE('',#87,#75,#849,.F.);
#847=EDGE_CURVE('',#75,#85,#850,.T.);
#848=EDGE_CURVE('',#85,#87,#851,.T.);
#849=LINE('',#86,#852);
#850=LINE('',#74,#853);
#851=LINE('',#84,#854);
#852=VECTOR('',#855,1.0);
#853=VECTOR('',#856,1.0);
#854=VECTOR('',#857,1.0);
#855=DIRECTION('',(-0.9981562524582956,0,0.06069675179456767));
#856=DIRECTION('',(0.9592919918045628,0,-0.28241613703829793));
#857=DIRECTION('',(1,0,0));
#858=FACE_SURFACE('',(#863),#859,.T.);
#859=PLANE('',#860);
#860=AXIS2_PLACEMENT_3D('',#56,#861,#862);
#861=DIRECTION('',(-9.65746189829481E-08,0.9999999999999954,0));
#862=DIRECTION('',(-0.9999999999999953,-9.657461898294809E-08,0));
#863=FACE_BOUND('',#864,.T.);
#864=EDGE_LOOP('',(#865,#866,#867));
#865=ORIENTED_EDGE('',*,*,#868,.T.);
#866=ORIENTED_EDGE('',*,*,#869,.T.);
#867=ORIENTED_EDGE('',*,*,#870,.T.);
#868=EDGE_CURVE('',#57,#71,#871,.F.);
#869=EDGE_CURVE('',#71,#73,#872,.T.);
#870=EDGE_CURVE('',#73,#57,#873,.T.);
#871=LINE('',#56,#874);
#872=LINE('',#70,#875);
#873=LINE('',#72,#876);
#874=VECTOR('',#877,1.0);
#875=VECTOR('',#878,1.0);
#876=VECTOR('',#879,1.0);
#877=DIRECTION('',(-0.9999999999999953,-9.657461898294809E-08,0));
#878=DIRECTION('',(0,0,1));
#879=DIRECTION('',(0.982462198861149,9.48809125201653E-08,-0.18646186690287925));
#880=FACE_SURFACE('',(#885),#881,.T.);
#881=PLANE('',#882);
#882=AXIS2_PLACEMENT_3D('',#56,#883,#884);
#883=DIRECTION('',(-9.65746189829481E-08,0.9999999999999954,0));
#884=DIRECTION('',(-0.982462198861149,-9.48809125201653E-08,0.18646186690287925));
#885=FACE_BOUND('',#886,.T.);
#886=EDGE_LOOP('',(#887,#888,#889));
#887=ORIENTED_EDGE('',*,*,#890,.T.);
#888=ORIENTED_EDGE('',*,*,#891,.T.);
#889=ORIENTED_EDGE('',*,*,#892,.T.);
#890=EDGE_CURVE('',#57,#73,#893,.F.);
#891=EDGE_CURVE('',#73,#91,#894,.T.);
#892=EDGE_CURVE('',#91,#57,#895,.T.);
#893=LINE('',#56,#896);
#894=LINE('',#72,#897);
#895=LINE('',#90,#898);
#896=VECTOR('',#899,1.0);
#897=VECTOR('',#900,1.0);
#898=VECTOR('',#901,1.0);
#899=DIRECTION('',(-0.982462198861149,-9.48809125201653E-08,0.18646186690287925));
#900=DIRECTION('',(0.9999999999999953,9.657461898294809E-08,0));
#901=DIRECTION('',(0,0,-1));
#902=FACE_SURFACE('',(#907),#903,.T.);
#903=PLANE('',#904);
#904=AXIS2_PLACEMENT_3D('',#78,#905,#906);
#905=DIRECTION('',(0,0,1));
#906=DIRECTION('',(0.9999999999999953,9.657461898294809E-08,0));
#907=FACE_BOUND('',#908,.T.);
#908=EDGE_LOOP('',(#909,#910,#911));
#909=ORIENTED_EDGE('',*,*,#912,.T.);
#910=ORIENTED_EDGE('',*,*,#913,.T.);
#911=ORIENTED_EDGE('',*,*,#914,.T.);
#912=EDGE_CURVE('',#79,#55,#915,.F.);
#913=EDGE_CURVE('',#55,#51,#916,.T.);
#914=EDGE_CURVE('',#51,#79,#917,.T.);
#915=LINE('',#78,#918);
#916=LINE('',#54,#919);
#917=LINE('',#50,#920);
#918=VECTOR('',#921,1.0);
#919=VECTOR('',#922,1.0);
#920=VECTOR('',#923,1.0);
#921=DIRECTION('',(0.9999999999999953,9.657461898294809E-08,0));
#922=DIRECTION('',(-4.108135757923411E-07,0.9999999999999156,0));
#923=DIRECTION('',(-0.7722121811783024,-0.6353647355966875,0));
#924=FACE_SURFACE('',(#929),#925,.T.);
#925=PLANE('',#926);
#926=AXIS2_PLACEMENT_3D('',#78,#927,#928);
#927=DIRECTION('',(0,-0,1));
#928=DIRECTION('',(0.7722121811783024,0.6353647355966875,0));
#929=FACE_BOUND('',#930,.T.);
#930=EDGE_LOOP('',(#931,#932,#933));
#931=ORIENTED_EDGE('',*,*,#934,.T.);
#932=ORIENTED_EDGE('',*,*,#935,.T.);
#933=ORIENTED_EDGE('',*,*,#936,.T.);
#934=EDGE_CURVE('',#79,#51,#937,.F.);
#935=EDGE_CURVE('',#51,#81,#938,.T.);
#936=EDGE_CURVE('',#81,#79,#939,.T.);
#937=LINE('',#78,#940);
#938=LINE('',#50,#941);
#939=LINE('',#80,#942);
#940=VECTOR('',#943,1.0);
#941=VECTOR('',#944,1.0);
#942=VECTOR('',#945,1.0);
#943=DIRECTION('',(0.7722121811783024,0.6353647355966875,0));
#944=DIRECTION('',(-1,0,0));
#945=DIRECTION('',(2.3475058718457165E-07,-0.9999999999999725,0));
#946=FACE_SURFACE('',(#951),#947,.T.);
#947=PLANE('',#948);
#948=AXIS2_PLACEMENT_3D('',#52,#949,#950);
#949=DIRECTION('',(0,-0,-1));
#950=DIRECTION('',(4.108135757923411E-07,-0.9999999999999156,0));
#951=FACE_BOUND('',#952,.T.);
#952=EDGE_LOOP('',(#953,#954,#955));
#953=ORIENTED_EDGE('',*,*,#956,.T.);
#954=ORIENTED_EDGE('',*,*,#957,.T.);
#955=ORIENTED_EDGE('',*,*,#958,.T.);
#956=EDGE_CURVE('',#53,#91,#959,.F.);
#957=EDGE_CURVE('',#91,#73,#960,.T.);
#958=EDGE_CURVE('',#73,#53,#961,.T.);
#959=LINE('',#52,#962);
#960=LINE('',#90,#963);
#961=LINE('',#72,#964);
#962=VECTOR('',#965,1.0);
#963=VECTOR('',#966,1.0);
#964=VECTOR('',#967,1.0);
#965=DIRECTION('',(4.108135757923411E-07,-0.9999999999999156,0));
#966=DIRECTION('',(-0.9999999999999953,-9.657461898294809E-08,0));
#967=DIRECTION('',(0.7722121811783024,0.6353647355966875,0));
#968=FACE_SURFACE('',(#973),#969,.T.);
#969=PLANE('',#970);
#970=AXIS2_PLACEMENT_3D('',#52,#971,#972);
#971=DIRECTION('',(-0,0,-1));
#972=DIRECTION('',(-0.7722121811783024,-0.6353647355966875,0));
#973=FACE_BOUND('',#974,.T.);
#974=EDGE_LOOP('',(#975,#976,#977));
#975=ORIENTED_EDGE('',*,*,#978,.T.);
#976=ORIENTED_EDGE('',*,*,#979,.T.);
#977=ORIENTED_EDGE('',*,*,#980,.T.);
#978=EDGE_CURVE('',#53,#73,#981,.F.);
#979=EDGE_CURVE('',#73,#75,#982,.T.);
#980=EDGE_CURVE('',#75,#53,#983,.T.);
#981=LINE('',#52,#984);
#982=LINE('',#72,#985);
#983=LINE('',#74,#986);
#984=VECTOR('',#987,1.0);
#985=VECTOR('',#988,1.0);
#986=VECTOR('',#989,1.0);
#987=DIRECTION('',(-0.7722121811783024,-0.6353647355966875,0));
#988=DIRECTION('',(-2.3475058718457165E-07,0.9999999999999725,0));
#989=DIRECTION('',(1,0,0));
#990=FACE_SURFACE('',(#995),#991,.T.);
#991=PLANE('',#992);
#992=AXIS2_PLACEMENT_3D('',#54,#993,#994);
#993=DIRECTION('',(-9.65746189829481E-08,0.9999999999999954,0));
#994=DIRECTION('',(-0.9999999999999953,-9.657461898294809E-08,0));
#995=FACE_BOUND('',#996,.T.);
#996=EDGE_LOOP('',(#997,#998,#999));
#997=ORIENTED_EDGE('',*,*,#1000,.T.);
#998=ORIENTED_EDGE('',*,*,#1001,.T.);
#999=ORIENTED_EDGE('',*,*,#1002,.T.);
#1000=EDGE_CURVE('',#55,#79,#1003,.F.);
#1001=EDGE_CURVE('',#79,#71,#1004,.T.);
#1002=EDGE_CURVE('',#71,#55,#1005,.T.);
#1003=LINE('',#54,#1006);
#1004=LINE('',#78,#1007);
#1005=LINE('',#70,#1008);
#1006=VECTOR('',#1009,1.0);
#1007=VECTOR('',#1010,1.0);
#1008=VECTOR('',#1011,1.0);
#1009=DIRECTION('',(-0.9999999999999953,-9.657461898294809E-08,0));
#1010=DIRECTION('',(0,0,1));
#1011=DIRECTION('',(0.9387229911076688,9.06568151967569E-08,-0.34467251988788333));
#1012=FACE_SURFACE('',(#1017),#1013,.T.);
#1013=PLANE('',#1014);
#1014=AXIS2_PLACEMENT_3D('',#54,#1015,#1016);
#1015=DIRECTION('',(-9.65746189829481E-08,0.9999999999999954,0));
#1016=DIRECTION('',(-0.9387229911076688,-9.06568151967569E-08,0.34467251988788333));
#1017=FACE_BOUND('',#1018,.T.);
#1018=EDGE_LOOP('',(#1019,#1020,#1021));
#1019=ORIENTED_EDGE('',*,*,#1022,.T.);
#1020=ORIENTED_EDGE('',*,*,#1023,.T.);
#1021=ORIENTED_EDGE('',*,*,#1024,.T.);
#1022=EDGE_CURVE('',#55,#71,#1025,.F.);
#1023=EDGE_CURVE('',#71,#57,#1026,.T.);
#1024=EDGE_CURVE('',#57,#55,#1027,.T.);
#1025=LINE('',#54,#1028);
#1026=LINE('',#70,#1029);
#1027=LINE('',#56,#1030);
#1028=VECTOR('',#1031,1.0);
#1029=VECTOR('',#1032,1.0);
#1030=VECTOR('',#1033,1.0);
#1031=DIRECTION('',(-0.9387229911076688,-9.06568151967569E-08,0.34467251988788333));
#1032=DIRECTION('',(0.9999999999999953,9.657461898294809E-08,0));
#1033=DIRECTION('',(0,0,-1));
#1034=FACE_SURFACE('',(#1039),#1035,.T.);
#1035=PLANE('',#1036);
#1036=AXIS2_PLACEMENT_3D('',#78,#1037,#1038);
#1037=DIRECTION('',(-1,-0,0));
#1038=DIRECTION('',(0,-0.8010019675324164,-0.5986617141668554));
#1039=FACE_BOUND('',#1040,.T.);
#1040=EDGE_LOOP('',(#1041,#1042,#1043));
#1041=ORIENTED_EDGE('',*,*,#1044,.T.);
#1042=ORIENTED_EDGE('',*,*,#1045,.T.);
#1043=ORIENTED_EDGE('',*,*,#1046,.T.);
#1044=EDGE_CURVE('',#79,#77,#1047,.F.);
#1045=EDGE_CURVE('',#77,#65,#1048,.T.);
#1046=EDGE_CURVE('',#65,#79,#1049,.T.);
#1047=LINE('',#78,#1050);
#1048=LINE('',#76,#1051);
#1049=LINE('',#64,#1052);
#1050=VECTOR('',#1053,1.0);
#1051=VECTOR('',#1054,1.0);
#1052=VECTOR('',#1055,1.0);
#1053=DIRECTION('',(0,-0.8010019675324164,-0.5986617141668554));
#1054=DIRECTION('',(0,0,1));
#1055=DIRECTION('',(0,0.1745552639687431,-0.9846473784156451));
#1056=FACE_SURFACE('',(#1061),#1057,.T.);
#1057=PLANE('',#1058);
#1058=AXIS2_PLACEMENT_3D('',#78,#1059,#1060);
#1059=DIRECTION('',(-1,0,0));
#1060=DIRECTION('',(0,-0.1745552639687431,0.9846473784156451));
#1061=FACE_BOUND('',#1062,.T.);
#1062=EDGE_LOOP('',(#1063,#1064,#1065));
#1063=ORIENTED_EDGE('',*,*,#1066,.T.);
#1064=ORIENTED_EDGE('',*,*,#1067,.T.);
#1065=ORIENTED_EDGE('',*,*,#1068,.T.);
#1066=EDGE_CURVE('',#79,#65,#1069,.F.);
#1067=EDGE_CURVE('',#65,#71,#1070,.T.);
#1068=EDGE_CURVE('',#71,#79,#1071,.T.);
#1069=LINE('',#78,#1072);
#1070=LINE('',#64,#1073);
#1071=LINE('',#70,#1074);
#1072=VECTOR('',#1075,1.0);
#1073=VECTOR('',#1076,1.0);
#1074=VECTOR('',#1077,1.0);
#1075=DIRECTION('',(0,-0.1745552639687431,0.9846473784156451));
#1076=DIRECTION('',(0,0.4965620242409157,-0.8680012419816946));
#1077=DIRECTION('',(0,0,-1));
#1078=FACE_SURFACE('',(#1083),#1079,.T.);
#1079=PLANE('',#1080);
#1080=AXIS2_PLACEMENT_3D('',#60,#1081,#1082);
#1081=DIRECTION('',(0.017652247513674564,-0.9998441869400031,0));
#1082=DIRECTION('',(0,0,1));
#1083=FACE_BOUND('',#1084,.T.);
#1084=EDGE_LOOP('',(#1085,#1086,#1087));
#1085=ORIENTED_EDGE('',*,*,#1088,.T.);
#1086=ORIENTED_EDGE('',*,*,#1089,.T.);
#1087=ORIENTED_EDGE('',*,*,#1090,.T.);
#1088=EDGE_CURVE('',#61,#59,#1091,.F.);
#1089=EDGE_CURVE('',#59,#65,#1092,.T.);
#1090=EDGE_CURVE('',#65,#61,#1093,.T.);
#1091=LINE('',#60,#1094);
#1092=LINE('',#58,#1095);
#1093=LINE('',#64,#1096);
#1094=VECTOR('',#1097,1.0);
#1095=VECTOR('',#1098,1.0);
#1096=VECTOR('',#1099,1.0);
#1097=DIRECTION('',(0,0,1));
#1098=DIRECTION('',(-0.999795901019593,-0.01765139502582732,0.009827744301844561));
#1099=DIRECTION('',(0.8652222436399936,0.015275497321050572,-0.5011557924360152));
#1100=FACE_SURFACE('',(#1105),#1101,.T.);
#1101=PLANE('',#1102);
#1102=AXIS2_PLACEMENT_3D('',#60,#1103,#1104);
#1103=DIRECTION('',(0.017652247513674564,-0.9998441869400031,0));
#1104=DIRECTION('',(-0.8652222436399936,-0.015275497321050572,0.5011557924360152));
#1105=FACE_BOUND('',#1106,.T.);
#1106=EDGE_LOOP('',(#1107,#1108,#1109));
#1107=ORIENTED_EDGE('',*,*,#1110,.T.);
#1108=ORIENTED_EDGE('',*,*,#1111,.T.);
#1109=ORIENTED_EDGE('',*,*,#1112,.T.);
#1110=EDGE_CURVE('',#61,#65,#1113,.F.);
#1111=EDGE_CURVE('',#65,#77,#1114,.T.);
#1112=EDGE_CURVE('',#77,#61,#1115,.T.);
#1113=LINE('',#60,#1116);
#1114=LINE('',#64,#1117);
#1115=LINE('',#76,#1118);
#1116=VECTOR('',#1119,1.0);
#1117=VECTOR('',#1120,1.0);
#1118=VECTOR('',#1121,1.0);
#1119=DIRECTION('',(-0.8652222436399936,-0.015275497321050572,0.5011557924360152));
#1120=DIRECTION('',(0,0,-1));
#1121=DIRECTION('',(0.9995726408227288,0.01764745336741046,0.02330457269123501));
#1122=FACE_SURFACE('',(#1127),#1123,.T.);
#1123=PLANE('',#1124);
#1124=AXIS2_PLACEMENT_3D('',#90,#1125,#1126);
#1125=DIRECTION('',(0.9999999999993648,4.1081357579211483E-07,-1.049473856667335E-06));
#1126=DIRECTION('',(-4.108135757923411E-07,0.9999999999999156,0));
#1127=FACE_BOUND('',#1128,.T.);
#1128=EDGE_LOOP('',(#1129,#1130,#1131));
#1129=ORIENTED_EDGE('',*,*,#1132,.T.);
#1130=ORIENTED_EDGE('',*,*,#1133,.T.);
#1131=ORIENTED_EDGE('',*,*,#1134,.T.);
#1132=EDGE_CURVE('',#91,#53,#1135,.F.);
#1133=EDGE_CURVE('',#53,#39,#1136,.T.);
#1134=EDGE_CURVE('',#39,#91,#1137,.T.);
#1135=LINE('',#90,#1138);
#1136=LINE('',#52,#1139);
#1137=LINE('',#38,#1140);
#1138=VECTOR('',#1141,1.0);
#1139=VECTOR('',#1142,1.0);
#1140=VECTOR('',#1143,1.0);
#1141=DIRECTION('',(-4.108135757923411E-07,0.9999999999999156,0));
#1142=DIRECTION('',(0,0.9311976398568483,0.3645146849237152));
#1143=DIRECTION('',(3.601733151064335E-07,-0.998856666158612,-0.047805443940761805));
#1144=FACE_SURFACE('',(#1149),#1145,.T.);
#1145=PLANE('',#1146);
#1146=AXIS2_PLACEMENT_3D('',#92,#1147,#1148);
#1147=DIRECTION('',(0.9999999999998016,6.298553977976487E-07,0));
#1148=DIRECTION('',(0,0,-1));
#1149=FACE_BOUND('',#1150,.T.);
#1150=EDGE_LOOP('',(#1151,#1152,#1153));
#1151=ORIENTED_EDGE('',*,*,#1154,.T.);
#1152=ORIENTED_EDGE('',*,*,#1155,.T.);
#1153=ORIENTED_EDGE('',*,*,#1156,.T.);
#1154=EDGE_CURVE('',#93,#59,#1157,.F.);
#1155=EDGE_CURVE('',#59,#57,#1158,.T.);
#1156=EDGE_CURVE('',#57,#93,#1159,.T.);
#1157=LINE('',#92,#1160);
#1158=LINE('',#58,#1161);
#1159=LINE('',#56,#1162);
#1160=VECTOR('',#1163,1.0);
#1161=VECTOR('',#1164,1.0);
#1162=VECTOR('',#1165,1.0);
#1163=DIRECTION('',(0,0,-1));
#1164=DIRECTION('',(-2.791808564890434E-07,0.4432459536985336,-0.8964000359938633));
#1165=DIRECTION('',(1.952366654239324E-07,-0.30997061564695305,0.9507461372182433));
#1166=FACE_SURFACE('',(#1171),#1167,.T.);
#1167=PLANE('',#1168);
#1168=AXIS2_PLACEMENT_3D('',#90,#1169,#1170);
#1169=DIRECTION('',(0.9999999999998389,3.807388315898335E-07,-4.210860360906855E-07));
#1170=DIRECTION('',(-3.601733151064335E-07,0.998856666158612,0.047805443940761805));
#1171=FACE_BOUND('',#1172,.T.);
#1172=EDGE_LOOP('',(#1173,#1174,#1175));
#1173=ORIENTED_EDGE('',*,*,#1176,.T.);
#1174=ORIENTED_EDGE('',*,*,#1177,.T.);
#1175=ORIENTED_EDGE('',*,*,#1178,.T.);
#1176=EDGE_CURVE('',#91,#39,#1179,.F.);
#1177=EDGE_CURVE('',#39,#93,#1180,.T.);
#1178=EDGE_CURVE('',#93,#91,#1181,.T.);
#1179=LINE('',#90,#1182);
#1180=LINE('',#38,#1183);
#1181=LINE('',#92,#1184);
#1182=VECTOR('',#1185,1.0);
#1183=VECTOR('',#1186,1.0);
#1184=VECTOR('',#1187,1.0);
#1185=DIRECTION('',(-3.601733151064335E-07,0.998856666158612,0.047805443940761805));
#1186=DIRECTION('',(3.8094266761160375E-07,-0.9999998827856894,0.00048417813053434834));
#1187=DIRECTION('',(-5.420939437731676E-07,0.8606641233345699,-0.5091731206617669));
#1188=FACE_SURFACE('',(#1193),#1189,.T.);
#1189=PLANE('',#1190);
#1190=AXIS2_PLACEMENT_3D('',#92,#1191,#1192);
#1191=DIRECTION('',(0.9999999999998017,6.298553977976487E-07,0));
#1192=DIRECTION('',(-1.952366654239324E-07,0.30997061564695305,-0.9507461372182433));
#1193=FACE_BOUND('',#1194,.T.);
#1194=EDGE_LOOP('',(#1195,#1196,#1197));
#1195=ORIENTED_EDGE('',*,*,#1198,.T.);
#1196=ORIENTED_EDGE('',*,*,#1199,.T.);
#1197=ORIENTED_EDGE('',*,*,#1200,.T.);
#1198=EDGE_CURVE('',#93,#57,#1201,.F.);
#1199=EDGE_CURVE('',#57,#91,#1202,.T.);
#1200=EDGE_CURVE('',#91,#93,#1203,.T.);
#1201=LINE('',#92,#1204);
#1202=LINE('',#56,#1205);
#1203=LINE('',#90,#1206);
#1204=VECTOR('',#1207,1.0);
#1205=VECTOR('',#1208,1.0);
#1206=VECTOR('',#1209,1.0);
#1207=DIRECTION('',(-1.952366654239324E-07,0.30997061564695305,-0.9507461372182433));
#1208=DIRECTION('',(0,0,1));
#1209=DIRECTION('',(5.420939437731676E-07,-0.8606641233345699,0.5091731206617669));
#1210=FACE_SURFACE('',(#1215),#1211,.T.);
#1211=PLANE('',#1212);
#1212=AXIS2_PLACEMENT_3D('',#94,#1213,#1214);
#1213=DIRECTION('',(0.017652199248935206,-0.9998441877921159,0));
#1214=DIRECTION('',(0,0,1));
#1215=FACE_BOUND('',#1216,.T.);
#1216=EDGE_LOOP('',(#1217,#1218,#1219));
#1217=ORIENTED_EDGE('',*,*,#1220,.T.);
#1218=ORIENTED_EDGE('',*,*,#1221,.T.);
#1219=ORIENTED_EDGE('',*,*,#1222,.T.);
#1220=EDGE_CURVE('',#95,#97,#1223,.F.);
#1221=EDGE_CURVE('',#97,#69,#1224,.T.);
#1222=EDGE_CURVE('',#69,#95,#1225,.T.);
#1223=LINE('',#94,#1226);
#1224=LINE('',#96,#1227);
#1225=LINE('',#68,#1228);
#1226=VECTOR('',#1229,1.0);
#1227=VECTOR('',#1230,1.0);
#1228=VECTOR('',#1231,1.0);
#1229=DIRECTION('',(0,0,1));
#1230=DIRECTION('',(-0.9994810797961776,-0.01764578859538394,0.026948047690212987));
#1231=DIRECTION('',(0.9941641460447193,0.017551918395286675,-0.10644050394384312));
#1232=FACE_SURFACE('',(#1237),#1233,.T.);
#1233=PLANE('',#1234);
#1234=AXIS2_PLACEMENT_3D('',#94,#1235,#1236);
#1235=DIRECTION('',(0.017652199248935206,-0.9998441877921158,0));
#1236=DIRECTION('',(-0.9941641460447193,-0.017551918395286675,0.10644050394384312));
#1237=FACE_BOUND('',#1238,.T.);
#1238=EDGE_LOOP('',(#1239,#1240,#1241));
#1239=ORIENTED_EDGE('',*,*,#1242,.T.);
#1240=ORIENTED_EDGE('',*,*,#1243,.T.);
#1241=ORIENTED_EDGE('',*,*,#1244,.T.);
#1242=EDGE_CURVE('',#95,#69,#1245,.F.);
#1243=EDGE_CURVE('',#69,#67,#1246,.T.);
#1244=EDGE_CURVE('',#67,#95,#1247,.T.);
#1245=LINE('',#94,#1248);
#1246=LINE('',#68,#1249);
#1247=LINE('',#66,#1250);
#1248=VECTOR('',#1251,1.0);
#1249=VECTOR('',#1252,1.0);
#1250=VECTOR('',#1253,1.0);
#1251=DIRECTION('',(-0.9941641460447193,-0.017551918395286675,0.10644050394384312));
#1252=DIRECTION('',(0,0,-1));
#1253=DIRECTION('',(0.9997959018715822,0.017651346763417376,-0.009827744310219402));
#1254=FACE_SURFACE('',(#1259),#1255,.T.);
#1255=PLANE('',#1256);
#1256=AXIS2_PLACEMENT_3D('',#64,#1257,#1258);
#1257=DIRECTION('',(-0.00982294240882165,-0.00035872299344351567,-0.9999516893931661));
#1258=DIRECTION('',(0.999795901019593,0.01765139502582732,-0.009827744301844561));
#1259=FACE_BOUND('',#1260,.T.);
#1260=EDGE_LOOP('',(#1261,#1262,#1263));
#1261=ORIENTED_EDGE('',*,*,#1264,.T.);
#1262=ORIENTED_EDGE('',*,*,#1265,.T.);
#1263=ORIENTED_EDGE('',*,*,#1266,.T.);
#1264=EDGE_CURVE('',#65,#59,#1267,.F.);
#1265=EDGE_CURVE('',#59,#95,#1268,.T.);
#1266=EDGE_CURVE('',#95,#65,#1269,.T.);
#1267=LINE('',#64,#1270);
#1268=LINE('',#58,#1271);
#1269=LINE('',#94,#1272);
#1270=VECTOR('',#1273,1.0);
#1271=VECTOR('',#1274,1.0);
#1272=VECTOR('',#1275,1.0);
#1273=DIRECTION('',(0.999795901019593,0.01765139502582732,-0.009827744301844561));
#1274=DIRECTION('',(0.03649456707648845,-0.9993338514099779,0));
#1275=DIRECTION('',(-0.9837035042254088,0.1795418516501432,0.009598920808579115));
#1276=FACE_SURFACE('',(#1281),#1277,.T.);
#1277=PLANE('',#1278);
#1278=AXIS2_PLACEMENT_3D('',#64,#1279,#1280);
#1279=DIRECTION('',(-0.00982294242461382,-0.00035872307997822204,-0.9999516893929798));
#1280=DIRECTION('',(0.9837035042254088,-0.1795418516501432,-0.009598920808579115));
#1281=FACE_BOUND('',#1282,.T.);
#1282=EDGE_LOOP('',(#1283,#1284,#1285));
#1283=ORIENTED_EDGE('',*,*,#1286,.T.);
#1284=ORIENTED_EDGE('',*,*,#1287,.T.);
#1285=ORIENTED_EDGE('',*,*,#1288,.T.);
#1286=EDGE_CURVE('',#65,#95,#1289,.F.);
#1287=EDGE_CURVE('',#95,#67,#1290,.T.);
#1288=EDGE_CURVE('',#67,#65,#1291,.T.);
#1289=LINE('',#64,#1292);
#1290=LINE('',#94,#1293);
#1291=LINE('',#66,#1294);
#1292=VECTOR('',#1295,1.0);
#1293=VECTOR('',#1296,1.0);
#1294=VECTOR('',#1297,1.0);
#1295=DIRECTION('',(0.9837035042254088,-0.1795418516501432,-0.009598920808579115));
#1296=DIRECTION('',(-0.9997959018715822,-0.017651346763417376,0.009827744310219402));
#1297=DIRECTION('',(-0.03649457580975004,0.9993338510910488,0));
#1298=FACE_SURFACE('',(#1303),#1299,.T.);
#1299=PLANE('',#1300);
#1300=AXIS2_PLACEMENT_3D('',#58,#1301,#1302);
#1301=DIRECTION('',(0.9993338514099778,0.03649456707648845,-0));
#1302=DIRECTION('',(0,0,1));
#1303=FACE_BOUND('',#1304,.T.);
#1304=EDGE_LOOP('',(#1305,#1306,#1307));
#1305=ORIENTED_EDGE('',*,*,#1308,.T.);
#1306=ORIENTED_EDGE('',*,*,#1309,.T.);
#1307=ORIENTED_EDGE('',*,*,#1310,.T.);
#1308=EDGE_CURVE('',#59,#93,#1311,.F.);
#1309=EDGE_CURVE('',#93,#97,#1312,.T.);
#1310=EDGE_CURVE('',#97,#59,#1313,.T.);
#1311=LINE('',#58,#1314);
#1312=LINE('',#92,#1315);
#1313=LINE('',#96,#1316);
#1314=VECTOR('',#1317,1.0);
#1315=VECTOR('',#1318,1.0);
#1316=VECTOR('',#1319,1.0);
#1317=DIRECTION('',(0,0,1));
#1318=DIRECTION('',(0.03649456707648845,-0.9993338514099779,0));
#1319=DIRECTION('',(-0.03391651770324611,0.9287389049378727,-0.36917978856065037));
#1320=FACE_SURFACE('',(#1325),#1321,.T.);
#1321=PLANE('',#1322);
#1322=AXIS2_PLACEMENT_3D('',#58,#1323,#1324);
#1323=DIRECTION('',(0.9993338514099778,0.03649456707648845,0));
#1324=DIRECTION('',(0.03391651770324611,-0.9287389049378727,0.36917978856065037));
#1325=FACE_BOUND('',#1326,.T.);
#1326=EDGE_LOOP('',(#1327,#1328,#1329));
#1327=ORIENTED_EDGE('',*,*,#1330,.T.);
#1328=ORIENTED_EDGE('',*,*,#1331,.T.);
#1329=ORIENTED_EDGE('',*,*,#1332,.T.);
#1330=EDGE_CURVE('',#59,#97,#1333,.F.);
#1331=EDGE_CURVE('',#97,#95,#1334,.T.);
#1332=EDGE_CURVE('',#95,#59,#1335,.T.);
#1333=LINE('',#58,#1336);
#1334=LINE('',#96,#1337);
#1335=LINE('',#94,#1338);
#1336=VECTOR('',#1339,1.0);
#1337=VECTOR('',#1340,1.0);
#1338=VECTOR('',#1341,1.0);
#1339=DIRECTION('',(0.03391651770324611,-0.9287389049378727,0.36917978856065037));
#1340=DIRECTION('',(0,0,-1));
#1341=DIRECTION('',(-0.03649456707648845,0.9993338514099779,0));
#1342=FACE_SURFACE('',(#1347),#1343,.T.);
#1343=PLANE('',#1344);
#1344=AXIS2_PLACEMENT_3D('',#38,#1345,#1346);
#1345=DIRECTION('',(-1.9919575593196753E-05,0.9999997268883698,-0.0007388006473191149));
#1346=DIRECTION('',(-0.9996367221425988,0,0.02695224933100803));
#1347=FACE_BOUND('',#1348,.T.);
#1348=EDGE_LOOP('',(#1349,#1350,#1351));
#1349=ORIENTED_EDGE('',*,*,#1352,.T.);
#1350=ORIENTED_EDGE('',*,*,#1353,.T.);
#1351=ORIENTED_EDGE('',*,*,#1354,.T.);
#1352=EDGE_CURVE('',#39,#45,#1355,.F.);
#1353=EDGE_CURVE('',#45,#99,#1356,.T.);
#1354=EDGE_CURVE('',#99,#39,#1357,.T.);
#1355=LINE('',#38,#1358);
#1356=LINE('',#44,#1359);
#1357=LINE('',#98,#1360);
#1358=VECTOR('',#1361,1.0);
#1359=VECTOR('',#1362,1.0);
#1360=VECTOR('',#1363,1.0);
#1361=DIRECTION('',(-0.9996367221425988,0,0.02695224933100803));
#1362=DIRECTION('',(0.026948877514744757,0.0007390691347666799,0.9996365398371098));
#1363=DIRECTION('',(0.9966380202077822,-4.0677928442406815E-05,-0.08193079409854523));
#1364=FACE_SURFACE('',(#1369),#1365,.T.);
#1365=PLANE('',#1366);
#1366=AXIS2_PLACEMENT_3D('',#38,#1367,#1368);
#1367=DIRECTION('',(-1.9919683195703485E-05,0.9999997268874005,-0.0007388019562373431));
#1368=DIRECTION('',(-0.9966380202077822,4.0677928442406815E-05,0.08193079409854523));
#1369=FACE_BOUND('',#1370,.T.);
#1370=EDGE_LOOP('',(#1371,#1372,#1373));
#1371=ORIENTED_EDGE('',*,*,#1374,.T.);
#1372=ORIENTED_EDGE('',*,*,#1375,.T.);
#1373=ORIENTED_EDGE('',*,*,#1376,.T.);
#1374=EDGE_CURVE('',#39,#99,#1377,.F.);
#1375=EDGE_CURVE('',#99,#101,#1378,.T.);
#1376=EDGE_CURVE('',#101,#39,#1379,.T.);
#1377=LINE('',#38,#1380);
#1378=LINE('',#98,#1381);
#1379=LINE('',#100,#1382);
#1380=VECTOR('',#1383,1.0);
#1381=VECTOR('',#1384,1.0);
#1382=VECTOR('',#1385,1.0);
#1383=DIRECTION('',(-0.9966380202077822,4.0677928442406815E-05,0.08193079409854523));
#1384=DIRECTION('',(0.9996367195065168,0,-0.026952347100939678));
#1385=DIRECTION('',(-0.026948049654614167,-0.00073907044610692,-0.99963656215381));
#1386=FACE_SURFACE('',(#1391),#1387,.T.);
#1387=PLANE('',#1388);
#1388=AXIS2_PLACEMENT_3D('',#68,#1389,#1390);
#1389=DIRECTION('',(0.0176592683679669,-0.999844028558231,0.0002622921189589469));
#1390=DIRECTION('',(0.9994810797961776,0.01764578859538394,-0.026948047690212987));
#1391=FACE_BOUND('',#1392,.T.);
#1392=EDGE_LOOP('',(#1393,#1394,#1395));
#1393=ORIENTED_EDGE('',*,*,#1396,.T.);
#1394=ORIENTED_EDGE('',*,*,#1397,.T.);
#1395=ORIENTED_EDGE('',*,*,#1398,.T.);
#1396=EDGE_CURVE('',#69,#97,#1399,.F.);
#1397=EDGE_CURVE('',#97,#103,#1400,.T.);
#1398=EDGE_CURVE('',#103,#69,#1401,.T.);
#1399=LINE('',#68,#1402);
#1400=LINE('',#96,#1403);
#1401=LINE('',#102,#1404);
#1402=VECTOR('',#1405,1.0);
#1403=VECTOR('',#1406,1.0);
#1404=VECTOR('',#1407,1.0);
#1405=DIRECTION('',(0.9994810797961776,0.01764578859538394,-0.026948047690212987));
#1406=DIRECTION('',(0.02694804967204424,0.0007381947707003736,0.9996365628003777));
#1407=DIRECTION('',(-0.9994490118144548,-0.017659664060462245,-0.028103541562963977));
#1408=FACE_SURFACE('',(#1413),#1409,.T.);
#1409=PLANE('',#1410);
#1410=AXIS2_PLACEMENT_3D('',#68,#1411,#1412);
#1411=DIRECTION('',(0.0176592683679669,-0.999844028558231,0.0002622921189589469));
#1412=DIRECTION('',(0.9994490118144548,0.017659664060462245,0.028103541562963977));
#1413=FACE_BOUND('',#1414,.T.);
#1414=EDGE_LOOP('',(#1415,#1416,#1417));
#1415=ORIENTED_EDGE('',*,*,#1418,.T.);
#1416=ORIENTED_EDGE('',*,*,#1419,.T.);
#1417=ORIENTED_EDGE('',*,*,#1420,.T.);
#1418=EDGE_CURVE('',#69,#103,#1421,.F.);
#1419=EDGE_CURVE('',#103,#105,#1422,.T.);
#1420=EDGE_CURVE('',#105,#69,#1423,.T.);
#1421=LINE('',#68,#1424);
#1422=LINE('',#102,#1425);
#1423=LINE('',#104,#1426);
#1424=VECTOR('',#1427,1.0);
#1425=VECTOR('',#1428,1.0);
#1426=VECTOR('',#1429,1.0);
#1427=DIRECTION('',(0.9994490118144548,0.017659664060462245,0.028103541562963977));
#1428=DIRECTION('',(-0.9994810797961776,-0.01764578859538394,0.026948047690212987));
#1429=DIRECTION('',(-0.02694804967204424,-0.0007381947707003736,-0.9996365628003777));
#1430=FACE_SURFACE('',(#1435),#1431,.T.);
#1431=PLANE('',#1432);
#1432=AXIS2_PLACEMENT_3D('',#106,#1433,#1434);
#1433=DIRECTION('',(0.02695234394390185,0.0004840125054019996,0.9996366024150097));
#1434=DIRECTION('',(-3.8094266761160375E-07,0.9999998827856894,-0.00048417813053434834));
#1435=FACE_BOUND('',#1436,.T.);
#1436=EDGE_LOOP('',(#1437,#1438,#1439));
#1437=ORIENTED_EDGE('',*,*,#1440,.T.);
#1438=ORIENTED_EDGE('',*,*,#1441,.T.);
#1439=ORIENTED_EDGE('',*,*,#1442,.T.);
#1440=EDGE_CURVE('',#107,#101,#1443,.F.);
#1441=EDGE_CURVE('',#101,#99,#1444,.T.);
#1442=EDGE_CURVE('',#99,#107,#1445,.T.);
#1443=LINE('',#106,#1446);
#1444=LINE('',#100,#1447);
#1445=LINE('',#98,#1448);
#1446=VECTOR('',#1449,1.0);
#1447=VECTOR('',#1450,1.0);
#1448=VECTOR('',#1451,1.0);
#1449=DIRECTION('',(-3.8094266761160375E-07,0.9999998827856894,-0.00048417813053434834));
#1450=DIRECTION('',(-0.9996367195065168,0,0.026952347100939678));
#1451=DIRECTION('',(0.7020324952902877,-0.7119023986386087,-0.018583604846414324));
#1452=FACE_SURFACE('',(#1457),#1453,.T.);
#1453=PLANE('',#1454);
#1454=AXIS2_PLACEMENT_3D('',#106,#1455,#1456);
#1455=DIRECTION('',(0.026943849929471266,0.00047563017066763134,0.999636835419203));
#1456=DIRECTION('',(-0.7020324952902877,0.7119023986386087,0.018583604846414324));
#1457=FACE_BOUND('',#1458,.T.);
#1458=EDGE_LOOP('',(#1459,#1460,#1461));
#1459=ORIENTED_EDGE('',*,*,#1462,.T.);
#1460=ORIENTED_EDGE('',*,*,#1463,.T.);
#1461=ORIENTED_EDGE('',*,*,#1464,.T.);
#1462=EDGE_CURVE('',#107,#99,#1465,.F.);
#1463=EDGE_CURVE('',#99,#109,#1466,.T.);
#1464=EDGE_CURVE('',#109,#107,#1467,.T.);
#1465=LINE('',#106,#1468);
#1466=LINE('',#98,#1469);
#1467=LINE('',#108,#1470);
#1468=VECTOR('',#1471,1.0);
#1469=VECTOR('',#1472,1.0);
#1470=VECTOR('',#1473,1.0);
#1471=DIRECTION('',(-0.7020324952902877,0.7119023986386087,0.018583604846414324));
#1472=DIRECTION('',(1.4040894955619473E-07,-0.9999998868075791,0.0004757991270627586));
#1473=DIRECTION('',(0.9994810789449928,0.017645836842606174,-0.026948047667263313));
#1474=FACE_SURFACE('',(#1479),#1475,.T.);
#1475=PLANE('',#1476);
#1476=AXIS2_PLACEMENT_3D('',#106,#1477,#1478);
#1477=DIRECTION('',(0.026934877681014303,0.000983631945260224,0.9996367064251417));
#1478=DIRECTION('',(-0.9994810789449928,-0.017645836842606174,0.026948047667263313));
#1479=FACE_BOUND('',#1480,.T.);
#1480=EDGE_LOOP('',(#1481,#1482,#1483));
#1481=ORIENTED_EDGE('',*,*,#1484,.T.);
#1482=ORIENTED_EDGE('',*,*,#1485,.T.);
#1483=ORIENTED_EDGE('',*,*,#1486,.T.);
#1484=EDGE_CURVE('',#107,#109,#1487,.F.);
#1485=EDGE_CURVE('',#109,#105,#1488,.T.);
#1486=EDGE_CURVE('',#105,#107,#1489,.T.);
#1487=LINE('',#106,#1490);
#1488=LINE('',#108,#1491);
#1489=LINE('',#104,#1492);
#1490=VECTOR('',#1493,1.0);
#1491=VECTOR('',#1494,1.0);
#1492=VECTOR('',#1495,1.0);
#1493=DIRECTION('',(-0.9994810789449928,-0.017645836842606174,0.026948047667263313));
#1494=DIRECTION('',(0.03649456707648845,-0.9993338514099779,0));
#1495=DIRECTION('',(0.9761381602646788,0.21552566181370372,-0.02651379216282065));
#1496=FACE_SURFACE('',(#1501),#1497,.T.);
#1497=PLANE('',#1498);
#1498=AXIS2_PLACEMENT_3D('',#106,#1499,#1500);
#1499=DIRECTION('',(0.02693487773260797,0.0009836317114444275,0.9996367064239816));
#1500=DIRECTION('',(-0.9761381602646788,-0.21552566181370372,0.02651379216282065));
#1501=FACE_BOUND('',#1502,.T.);
#1502=EDGE_LOOP('',(#1503,#1504,#1505));
#1503=ORIENTED_EDGE('',*,*,#1506,.T.);
#1504=ORIENTED_EDGE('',*,*,#1507,.T.);
#1505=ORIENTED_EDGE('',*,*,#1508,.T.);
#1506=EDGE_CURVE('',#107,#105,#1509,.F.);
#1507=EDGE_CURVE('',#105,#103,#1510,.T.);
#1508=EDGE_CURVE('',#103,#107,#1511,.T.);
#1509=LINE('',#106,#1512);
#1510=LINE('',#104,#1513);
#1511=LINE('',#102,#1514);
#1512=VECTOR('',#1515,1.0);
#1513=VECTOR('',#1516,1.0);
#1514=VECTOR('',#1517,1.0);
#1515=DIRECTION('',(-0.9761381602646788,-0.21552566181370372,0.02651379216282065));
#1516=DIRECTION('',(0.9994810797961776,0.01764578859538394,-0.026948047690212987));
#1517=DIRECTION('',(-0.036494558343231044,0.9993338517289068,0));
#1518=FACE_SURFACE('',(#1523),#1519,.T.);
#1519=PLANE('',#1520);
#1520=AXIS2_PLACEMENT_3D('',#62,#1521,#1522);
#1521=DIRECTION('',(-0.9989706861613044,-0.03648131342496688,0.026957039177218214));
#1522=DIRECTION('',(0.03649457580975004,-0.9993338510910488,0));
#1523=FACE_BOUND('',#1524,.T.);
#1524=EDGE_LOOP('',(#1525,#1526,#1527));
#1525=ORIENTED_EDGE('',*,*,#1528,.T.);
#1526=ORIENTED_EDGE('',*,*,#1529,.T.);
#1527=ORIENTED_EDGE('',*,*,#1530,.T.);
#1528=EDGE_CURVE('',#63,#69,#1531,.F.);
#1529=EDGE_CURVE('',#69,#105,#1532,.T.);
#1530=EDGE_CURVE('',#105,#63,#1533,.T.);
#1531=LINE('',#62,#1534);
#1532=LINE('',#68,#1535);
#1533=LINE('',#104,#1536);
#1534=VECTOR('',#1537,1.0);
#1535=VECTOR('',#1538,1.0);
#1536=VECTOR('',#1539,1.0);
#1537=DIRECTION('',(0.03649457580975004,-0.9993338510910488,0));
#1538=DIRECTION('',(0.02694804967204424,0.0007381947707003736,0.9996365628003777));
#1539=DIRECTION('',(-0.042307676605220605,0.9636865840169357,-0.2636630961777506));
#1540=FACE_SURFACE('',(#1545),#1541,.T.);
#1541=PLANE('',#1542);
#1542=AXIS2_PLACEMENT_3D('',#62,#1543,#1544);
#1543=DIRECTION('',(-0.9989706856194688,-0.036481304663449086,0.026957071113554682));
#1544=DIRECTION('',(0.042307676605220605,-0.9636865840169357,0.2636630961777506));
#1545=FACE_BOUND('',#1546,.T.);
#1546=EDGE_LOOP('',(#1547,#1548,#1549));
#1547=ORIENTED_EDGE('',*,*,#1550,.T.);
#1548=ORIENTED_EDGE('',*,*,#1551,.T.);
#1549=ORIENTED_EDGE('',*,*,#1552,.T.);
#1550=EDGE_CURVE('',#63,#105,#1553,.F.);
#1551=EDGE_CURVE('',#105,#109,#1554,.T.);
#1552=EDGE_CURVE('',#109,#63,#1555,.T.);
#1553=LINE('',#62,#1556);
#1554=LINE('',#104,#1557);
#1555=LINE('',#108,#1558);
#1556=VECTOR('',#1559,1.0);
#1557=VECTOR('',#1560,1.0);
#1558=VECTOR('',#1561,1.0);
#1559=DIRECTION('',(0.042307676605220605,-0.9636865840169357,0.2636630961777506));
#1560=DIRECTION('',(-0.03649456707648845,0.9993338514099779,0));
#1561=DIRECTION('',(-0.026948049654614167,-0.00073907044610692,-0.99963656215381));
#1562=FACE_SURFACE('',(#1567),#1563,.T.);
#1563=PLANE('',#1564);
#1564=AXIS2_PLACEMENT_3D('',#44,#1565,#1566);
#1565=DIRECTION('',(-0.9996368353390935,1.2637237544737808E-05,0.02694804767589682));
#1566=DIRECTION('',(1.8721193273325275E-07,-0.9999998867630293,0.0004758927330079285));
#1567=FACE_BOUND('',#1568,.T.);
#1568=EDGE_LOOP('',(#1569,#1570,#1571));
#1569=ORIENTED_EDGE('',*,*,#1572,.T.);
#1570=ORIENTED_EDGE('',*,*,#1573,.T.);
#1571=ORIENTED_EDGE('',*,*,#1574,.T.);
#1572=EDGE_CURVE('',#45,#63,#1575,.F.);
#1573=EDGE_CURVE('',#63,#109,#1576,.T.);
#1574=EDGE_CURVE('',#109,#45,#1577,.T.);
#1575=LINE('',#44,#1578);
#1576=LINE('',#62,#1579);
#1577=LINE('',#108,#1580);
#1578=VECTOR('',#1581,1.0);
#1579=VECTOR('',#1582,1.0);
#1580=VECTOR('',#1583,1.0);
#1581=DIRECTION('',(1.8721193273325275E-07,-0.9999998867630293,0.0004758927330079285));
#1582=DIRECTION('',(0.026948049654614167,0.00073907044610692,0.99963656215381));
#1583=DIRECTION('',(-0.0014384692827095328,0.9985491736296919,-0.05382823282982925));
#1584=FACE_SURFACE('',(#1589),#1585,.T.);
#1585=PLANE('',#1586);
#1586=AXIS2_PLACEMENT_3D('',#44,#1587,#1588);
#1587=DIRECTION('',(-0.9996368130217497,1.2681894920402924E-05,0.026948875503235947));
#1588=DIRECTION('',(0.0014384692827095328,-0.9985491736296919,0.05382823282982925));
#1589=FACE_BOUND('',#1590,.T.);
#1590=EDGE_LOOP('',(#1591,#1592,#1593));
#1591=ORIENTED_EDGE('',*,*,#1594,.T.);
#1592=ORIENTED_EDGE('',*,*,#1595,.T.);
#1593=ORIENTED_EDGE('',*,*,#1596,.T.);
#1594=EDGE_CURVE('',#45,#109,#1597,.F.);
#1595=EDGE_CURVE('',#109,#99,#1598,.T.);
#1596=EDGE_CURVE('',#99,#45,#1599,.T.);
#1597=LINE('',#44,#1600);
#1598=LINE('',#108,#1601);
#1599=LINE('',#98,#1602);
#1600=VECTOR('',#1603,1.0);
#1601=VECTOR('',#1604,1.0);
#1602=VECTOR('',#1605,1.0);
#1603=DIRECTION('',(0.0014384692827095328,-0.9985491736296919,0.05382823282982925));
#1604=DIRECTION('',(-1.4040894955619473E-07,0.9999998868075791,-0.0004757991270627586));
#1605=DIRECTION('',(-0.026948877514744757,-0.0007390691347666799,-0.9996365398371098));
#1606=FACE_SURFACE('',(#1611),#1607,.T.);
#1607=PLANE('',#1608);
#1608=AXIS2_PLACEMENT_3D('',#92,#1609,#1610);
#1609=DIRECTION('',(0.9996368353393087,-1.2666852496707108E-05,-0.02694804765400713));
#1610=DIRECTION('',(-3.8094266761160375E-07,0.9999998827856894,-0.00048417813053434834));
#1611=FACE_BOUND('',#1612,.T.);
#1612=EDGE_LOOP('',(#1613,#1614,#1615));
#1613=ORIENTED_EDGE('',*,*,#1616,.T.);
#1614=ORIENTED_EDGE('',*,*,#1617,.T.);
#1615=ORIENTED_EDGE('',*,*,#1618,.T.);
#1616=EDGE_CURVE('',#93,#39,#1619,.F.);
#1617=EDGE_CURVE('',#39,#101,#1620,.T.);
#1618=EDGE_CURVE('',#101,#93,#1621,.T.);
#1619=LINE('',#92,#1622);
#1620=LINE('',#38,#1623);
#1621=LINE('',#100,#1624);
#1622=VECTOR('',#1625,1.0);
#1623=VECTOR('',#1626,1.0);
#1624=VECTOR('',#1627,1.0);
#1625=DIRECTION('',(-3.8094266761160375E-07,0.9999998827856894,-0.00048417813053434834));
#1626=DIRECTION('',(0.026948049654614167,0.00073907044610692,0.99963656215381));
#1627=DIRECTION('',(-0.0014628288034654964,-0.9985509714632321,-0.0537942145748695));
#1628=FACE_SURFACE('',(#1633),#1629,.T.);
#1629=PLANE('',#1630);
#1630=AXIS2_PLACEMENT_3D('',#92,#1631,#1632);
#1631=DIRECTION('',(0.9996368353393087,-1.2666852496707108E-05,-0.02694804765400713));
#1632=DIRECTION('',(0.0014628288034654964,0.9985509714632321,0.0537942145748695));
#1633=FACE_BOUND('',#1634,.T.);
#1634=EDGE_LOOP('',(#1635,#1636,#1637));
#1635=ORIENTED_EDGE('',*,*,#1638,.T.);
#1636=ORIENTED_EDGE('',*,*,#1639,.T.);
#1637=ORIENTED_EDGE('',*,*,#1640,.T.);
#1638=EDGE_CURVE('',#93,#101,#1641,.F.);
#1639=EDGE_CURVE('',#101,#107,#1642,.T.);
#1640=EDGE_CURVE('',#107,#93,#1643,.T.);
#1641=LINE('',#92,#1644);
#1642=LINE('',#100,#1645);
#1643=LINE('',#106,#1646);
#1644=VECTOR('',#1647,1.0);
#1645=VECTOR('',#1648,1.0);
#1646=VECTOR('',#1649,1.0);
#1647=DIRECTION('',(0.0014628288034654964,0.9985509714632321,0.0537942145748695));
#1648=DIRECTION('',(3.8094266761160375E-07,-0.9999998827856894,0.00048417813053434834));
#1649=DIRECTION('',(-0.026948049654614167,-0.00073907044610692,-0.99963656215381));
#1650=FACE_SURFACE('',(#1655),#1651,.T.);
#1651=PLANE('',#1652);
#1652=AXIS2_PLACEMENT_3D('',#96,#1653,#1654);
#1653=DIRECTION('',(0.9989706856194688,0.036481304663449086,-0.026957071113554682));
#1654=DIRECTION('',(-0.03649456707648845,0.9993338514099779,0));
#1655=FACE_BOUND('',#1656,.T.);
#1656=EDGE_LOOP('',(#1657,#1658,#1659));
#1657=ORIENTED_EDGE('',*,*,#1660,.T.);
#1658=ORIENTED_EDGE('',*,*,#1661,.T.);
#1659=ORIENTED_EDGE('',*,*,#1662,.T.);
#1660=EDGE_CURVE('',#97,#93,#1663,.F.);
#1661=EDGE_CURVE('',#93,#107,#1664,.T.);
#1662=EDGE_CURVE('',#107,#97,#1665,.T.);
#1663=LINE('',#96,#1666);
#1664=LINE('',#92,#1667);
#1665=LINE('',#106,#1668);
#1666=VECTOR('',#1669,1.0);
#1667=VECTOR('',#1670,1.0);
#1668=VECTOR('',#1671,1.0);
#1669=DIRECTION('',(-0.03649456707648845,0.9993338514099779,0));
#1670=DIRECTION('',(0.026948049654614167,0.00073907044610692,0.99963656215381));
#1671=DIRECTION('',(0.028095598513053596,-0.9641965989489695,-0.2636959535514969));
#1672=FACE_SURFACE('',(#1677),#1673,.T.);
#1673=PLANE('',#1674);
#1674=AXIS2_PLACEMENT_3D('',#96,#1675,#1676);
#1675=DIRECTION('',(0.9989706867988148,0.036481295964791126,-0.02695703918151043));
#1676=DIRECTION('',(-0.028095598513053596,0.9641965989489695,0.2636959535514969));
#1677=FACE_BOUND('',#1678,.T.);
#1678=EDGE_LOOP('',(#1679,#1680,#1681));
#1679=ORIENTED_EDGE('',*,*,#1682,.T.);
#1680=ORIENTED_EDGE('',*,*,#1683,.T.);
#1681=ORIENTED_EDGE('',*,*,#1684,.T.);
#1682=EDGE_CURVE('',#97,#107,#1685,.F.);
#1683=EDGE_CURVE('',#107,#103,#1686,.T.);
#1684=EDGE_CURVE('',#103,#97,#1687,.T.);
#1685=LINE('',#96,#1688);
#1686=LINE('',#106,#1689);
#1687=LINE('',#102,#1690);
#1688=VECTOR('',#1691,1.0);
#1689=VECTOR('',#1692,1.0);
#1690=VECTOR('',#1693,1.0);
#1691=DIRECTION('',(-0.028095598513053596,0.9641965989489695,0.2636959535514969));
#1692=DIRECTION('',(0.036494558343231044,-0.9993338517289068,0));
#1693=DIRECTION('',(-0.02694804967204424,-0.0007381947707003736,-0.9996365628003777));
#1694=FACE_SURFACE('',(#1699),#1695,.T.);
#1695=PLANE('',#1696);
#1696=AXIS2_PLACEMENT_3D('',#36,#1697,#1698);
#1697=DIRECTION('',(-1,0,-0));
#1698=DIRECTION('',(0,0,-1));
#1699=FACE_BOUND('',#1700,.T.);
#1700=EDGE_LOOP('',(#1701,#1702,#1703));
#1701=ORIENTED_EDGE('',*,*,#1704,.T.);
#1702=ORIENTED_EDGE('',*,*,#1705,.T.);
#1703=ORIENTED_EDGE('',*,*,#1706,.T.);
#1704=EDGE_CURVE('',#37,#35,#1707,.F.);
#1705=EDGE_CURVE('',#35,#89,#1708,.T.);
#1706=EDGE_CURVE('',#89,#37,#1709,.T.);
#1707=LINE('',#36,#1710);
#1708=LINE('',#34,#1711);
#1709=LINE('',#88,#1712);
#1710=VECTOR('',#1713,1.0);
#1711=VECTOR('',#1714,1.0);
#1712=VECTOR('',#1715,1.0);
#1713=DIRECTION('',(0,0,-1));
#1714=DIRECTION('',(0,-1,0));
#1715=DIRECTION('',(0,0.6488870116780708,0.7608847784490783));
#1716=FACE_SURFACE('',(#1721),#1717,.T.);
#1717=PLANE('',#1718);
#1718=AXIS2_PLACEMENT_3D('',#36,#1719,#1720);
#1719=DIRECTION('',(-1,-0,0));
#1720=DIRECTION('',(0,-0.6488870116780708,-0.7608847784490783));
#1721=FACE_BOUND('',#1722,.T.);
#1722=EDGE_LOOP('',(#1723,#1724,#1725));
#1723=ORIENTED_EDGE('',*,*,#1726,.T.);
#1724=ORIENTED_EDGE('',*,*,#1727,.T.);
#1725=ORIENTED_EDGE('',*,*,#1728,.T.);
#1726=EDGE_CURVE('',#37,#89,#1729,.F.);
#1727=EDGE_CURVE('',#89,#87,#1730,.T.);
#1728=EDGE_CURVE('',#87,#37,#1731,.T.);
#1729=LINE('',#36,#1732);
#1730=LINE('',#88,#1733);
#1731=LINE('',#86,#1734);
#1732=VECTOR('',#1735,1.0);
#1733=VECTOR('',#1736,1.0);
#1734=VECTOR('',#1737,1.0);
#1735=DIRECTION('',(0,-0.6488870116780708,-0.7608847784490783));
#1736=DIRECTION('',(0,0,1));
#1737=DIRECTION('',(0,1,0));
#1738=FACE_SURFACE('',(#1743),#1739,.T.);
#1739=PLANE('',#1740);
#1740=AXIS2_PLACEMENT_3D('',#82,#1741,#1742);
#1741=DIRECTION('',(0.9999999999999778,2.1065865377322887E-07,0));
#1742=DIRECTION('',(-2.1065865377322887E-07,0.9999999999999778,0));
#1743=FACE_BOUND('',#1744,.T.);
#1744=EDGE_LOOP('',(#1745,#1746,#1747));
#1745=ORIENTED_EDGE('',*,*,#1748,.T.);
#1746=ORIENTED_EDGE('',*,*,#1749,.T.);
#1747=ORIENTED_EDGE('',*,*,#1750,.T.);
#1748=EDGE_CURVE('',#83,#49,#1751,.F.);
#1749=EDGE_CURVE('',#49,#47,#1752,.T.);
#1750=EDGE_CURVE('',#47,#83,#1753,.T.);
#1751=LINE('',#82,#1754);
#1752=LINE('',#48,#1755);
#1753=LINE('',#46,#1756);
#1754=VECTOR('',#1757,1.0);
#1755=VECTOR('',#1758,1.0);
#1756=VECTOR('',#1759,1.0);
#1757=DIRECTION('',(-2.1065865377322887E-07,0.9999999999999778,0));
#1758=DIRECTION('',(0,0,1));
#1759=DIRECTION('',(1.3669366433103762E-07,-0.6488870116780648,-0.7608847784490712));
#1760=FACE_SURFACE('',(#1765),#1761,.T.);
#1761=PLANE('',#1762);
#1762=AXIS2_PLACEMENT_3D('',#82,#1763,#1764);
#1763=DIRECTION('',(0.9999999999999778,2.1065865377322887E-07,-0));
#1764=DIRECTION('',(-1.3669366433103762E-07,0.6488870116780648,0.7608847784490712));
#1765=FACE_BOUND('',#1766,.T.);
#1766=EDGE_LOOP('',(#1767,#1768,#1769));
#1767=ORIENTED_EDGE('',*,*,#1770,.T.);
#1768=ORIENTED_EDGE('',*,*,#1771,.T.);
#1769=ORIENTED_EDGE('',*,*,#1772,.T.);
#1770=EDGE_CURVE('',#83,#47,#1773,.F.);
#1771=EDGE_CURVE('',#47,#85,#1774,.T.);
#1772=EDGE_CURVE('',#85,#83,#1775,.T.);
#1773=LINE('',#82,#1776);
#1774=LINE('',#46,#1777);
#1775=LINE('',#84,#1778);
#1776=VECTOR('',#1779,1.0);
#1777=VECTOR('',#1780,1.0);
#1778=VECTOR('',#1781,1.0);
#1779=DIRECTION('',(-1.3669366433103762E-07,0.6488870116780648,0.7608847784490712));
#1780=DIRECTION('',(2.1065865377322887E-07,-0.9999999999999778,0));
#1781=DIRECTION('',(0,0,-1));
#1782=FACE_SURFACE('',(#1787),#1783,.T.);
#1783=PLANE('',#1784);
#1784=AXIS2_PLACEMENT_3D('',#84,#1785,#1786);
#1785=DIRECTION('',(0,0,-1));
#1786=DIRECTION('',(-2.1065865377322887E-07,0.9999999999999778,0));
#1787=FACE_BOUND('',#1788,.T.);
#1788=EDGE_LOOP('',(#1789,#1790,#1791));
#1789=ORIENTED_EDGE('',*,*,#1792,.T.);
#1790=ORIENTED_EDGE('',*,*,#1793,.T.);
#1791=ORIENTED_EDGE('',*,*,#1794,.T.);
#1792=EDGE_CURVE('',#85,#47,#1795,.F.);
#1793=EDGE_CURVE('',#47,#37,#1796,.T.);
#1794=EDGE_CURVE('',#37,#85,#1797,.T.);
#1795=LINE('',#84,#1798);
#1796=LINE('',#46,#1799);
#1797=LINE('',#36,#1800);
#1798=VECTOR('',#1801,1.0);
#1799=VECTOR('',#1802,1.0);
#1800=VECTOR('',#1803,1.0);
#1801=DIRECTION('',(-2.1065865377322887E-07,0.9999999999999778,0));
#1802=DIRECTION('',(1,0,0));
#1803=DIRECTION('',(-0.977046449588091,-0.2130263724220687,0));
#1804=FACE_SURFACE('',(#1809),#1805,.T.);
#1805=PLANE('',#1806);
#1806=AXIS2_PLACEMENT_3D('',#84,#1807,#1808);
#1807=DIRECTION('',(0,0,-1));
#1808=DIRECTION('',(0.977046449588091,0.2130263724220687,0));
#1809=FACE_BOUND('',#1810,.T.);
#1810=EDGE_LOOP('',(#1811,#1812,#1813));
#1811=ORIENTED_EDGE('',*,*,#1814,.T.);
#1812=ORIENTED_EDGE('',*,*,#1815,.T.);
#1813=ORIENTED_EDGE('',*,*,#1816,.T.);
#1814=EDGE_CURVE('',#85,#37,#1817,.F.);
#1815=EDGE_CURVE('',#37,#87,#1818,.T.);
#1816=EDGE_CURVE('',#87,#85,#1819,.T.);
#1817=LINE('',#84,#1820);
#1818=LINE('',#36,#1821);
#1819=LINE('',#86,#1822);
#1820=VECTOR('',#1823,1.0);
#1821=VECTOR('',#1824,1.0);
#1822=VECTOR('',#1825,1.0);
#1823=DIRECTION('',(0.977046449588091,0.2130263724220687,0));
#1824=DIRECTION('',(0,-1,0));
#1825=DIRECTION('',(-1,0,0));
#1826=FACE_SURFACE('',(#1831),#1827,.T.);
#1827=PLANE('',#1828);
#1828=AXIS2_PLACEMENT_3D('',#88,#1829,#1830);
#1829=DIRECTION('',(0,-0,1));
#1830=DIRECTION('',(0,1,0));
#1831=FACE_BOUND('',#1832,.T.);
#1832=EDGE_LOOP('',(#1833,#1834,#1835));
#1833=ORIENTED_EDGE('',*,*,#1836,.T.);
#1834=ORIENTED_EDGE('',*,*,#1837,.T.);
#1835=ORIENTED_EDGE('',*,*,#1838,.T.);
#1836=EDGE_CURVE('',#89,#35,#1839,.F.);
#1837=EDGE_CURVE('',#35,#49,#1840,.T.);
#1838=EDGE_CURVE('',#49,#89,#1841,.T.);
#1839=LINE('',#88,#1842);
#1840=LINE('',#34,#1843);
#1841=LINE('',#48,#1844);
#1842=VECTOR('',#1845,1.0);
#1843=VECTOR('',#1846,1.0);
#1844=VECTOR('',#1847,1.0);
#1845=DIRECTION('',(0,1,0));
#1846=DIRECTION('',(-1,0,0));
#1847=DIRECTION('',(0.9770464516245675,-0.2130263630817598,0));
#1848=FACE_SURFACE('',(#1853),#1849,.T.);
#1849=PLANE('',#1850);
#1850=AXIS2_PLACEMENT_3D('',#88,#1851,#1852);
#1851=DIRECTION('',(0,0,1));
#1852=DIRECTION('',(-0.9770464516245675,0.2130263630817598,0));
#1853=FACE_BOUND('',#1854,.T.);
#1854=EDGE_LOOP('',(#1855,#1856,#1857));
#1855=ORIENTED_EDGE('',*,*,#1858,.T.);
#1856=ORIENTED_EDGE('',*,*,#1859,.T.);
#1857=ORIENTED_EDGE('',*,*,#1860,.T.);
#1858=EDGE_CURVE('',#89,#49,#1861,.F.);
#1859=EDGE_CURVE('',#49,#83,#1862,.T.);
#1860=EDGE_CURVE('',#83,#89,#1863,.T.);
#1861=LINE('',#88,#1864);
#1862=LINE('',#48,#1865);
#1863=LINE('',#82,#1866);
#1864=VECTOR('',#1867,1.0);
#1865=VECTOR('',#1868,1.0);
#1866=VECTOR('',#1869,1.0);
#1867=DIRECTION('',(-0.9770464516245675,0.2130263630817598,0));
#1868=DIRECTION('',(2.1065865377322887E-07,-0.9999999999999778,0));
#1869=DIRECTION('',(1,0,0));
ENDSEC;
END-ISO-10303-21;
